<svg xmlns="http://www.w3.org/2000/svg" width="640" height="360" viewBox="0 0 640 360"><path fill="#e6e5c6" d="M-16-16h672v392H-16z"/><path fill="#dc5943" d="M200 60h240v240H200z"/><path d="M346.64 116.14c-6.8 0-10.84 3.68-10.84 8.44 0 4 3.04 6.52 7.6 8.12 3.04 1.04 4.24 1.8 4.24 3.12 0 1.36-1.2 2.2-3.68 2.2-2.72 0-5.36-.84-7-1.68l-1.36 5.96c1.52.8 4.68 1.64 7.92 1.64 7.88 0 11.48-3.96 11.48-8.6 0-3.76-2.16-6.36-7-8.16-3.4-1.24-4.84-1.8-4.84-3.16 0-1.2 1.2-2 3.4-2 2.68 0 4.68.76 5.84 1.28l1.52-5.76c-1.76-.8-4.08-1.4-7.28-1.4zm-111.75.24c-4.08 0-6.92.28-8.88.6v26.56h7.16v-9.16c.44 0 1.04.1 1.76.1 3.64 0 6.8-.88 8.96-2.8 1.72-1.56 2.64-3.92 2.64-6.64 0-2.76-1.24-5.12-3.08-6.48-1.88-1.44-4.68-2.16-8.56-2.16zm51.59 0c-3.32 0-6.88.28-8.52.56v26.48c1.44.24 3.84.44 7.12.44 5.76 0 9.12-.92 11.12-2.44 1.8-1.32 3.04-3.32 3.04-5.88 0-3.2-2-5.64-5.28-6.56v-.1c3.16-1.2 4.4-3.4 4.4-5.64 0-2.64-1.52-4.6-3.64-5.56-2.08-1.04-4.4-1.32-8.24-1.32zm-36.45.2v14.72c0 8.64 3.92 12.68 11.28 12.68 7.56 0 11.72-4.2 11.72-12.52v-14.88h-7.24v15.32c0 4.28-1.4 6.36-4.28 6.36-2.84 0-4.24-2.28-4.24-6.36v-15.32h-7.24zm53.17 0v26.96h17.6v-6.04h-10.36v-20.92h-7.24zm21.09 0v26.96h7.24v-26.96h-7.24zm34.61 0v26.96h7.24v-10.68h8.76v10.68h7.24v-26.96h-7.24v9.96h-8.76v-9.96h-7.24zm-71.42 5c2.44 0 3.64 1 3.64 2.56 0 1.72-1.48 2.8-4.56 2.8h-1.44v-5.2c.48-.12 1.16-.16 2.36-.16zm-52.19.24c2.76 0 4.08 1.36 4.08 3.36 0 2.32-1.76 3.76-4.56 3.76-.76 0-1.24 0-1.64-.1v-6.88c.36-.1 1.08-.16 2.12-.16zm49.83 10.24h1.72c2.72 0 4.8.88 4.8 3.16 0 2.4-2.04 3.36-4.44 3.36-.92 0-1.56 0-2.08-.1v-6.44zm-61.01 34.52l6.2 26.96h8l2.04-10.52c.48-2.4.84-4.92 1.28-8.12h.1c.36 3.2.72 5.72 1.12 8.08l1.8 10.56h7.88l6.64-26.96h-7.32l-1.6 9.92c-.48 3.16-.96 6.36-1.36 9.4h-.1c-.36-3.08-.72-5.84-1.2-8.92l-1.68-10.4h-7.72l-1.72 9.92c-.6 3.28-1.16 6.52-1.6 9.56h-.1c-.4-2.76-.88-6.36-1.36-9.48l-1.56-10h-7.76zm38.15 0v26.96h7.24v-10.68h8.76v10.68h7.24v-26.96h-7.24v9.96h-8.76v-9.96h-7.24zm34.08 0l-7.8 26.96h7.48l1.52-6.24h6.96l1.72 6.24h7.8l-8.04-26.96h-9.64zm16.08 0v6.08h6.88v20.88h7.24v-20.88h7v-6.08h-21.12zm-11.6 5.24h.1c.44 1.56.96 3.8 1.36 5.32l1.24 4.84h-5l1.16-4.84c.36-1.52.76-3.76 1.16-5.32zm24.22 44.56c-3.6 0-6.68.24-8.72.56v26.6h7.16v-10.12h1.16c2.24 0 3.24.68 3.96 3.88.76 3.36 1.48 5.44 1.88 6.24h7.36c-.52-1.04-1.4-4.96-2.2-7.72-.68-2.32-1.68-4.04-3.44-4.84v-.12c2.08-.8 4.6-3.16 4.6-6.52 0-2.6-.92-4.52-2.64-5.88-2.04-1.52-5-2.08-9.12-2.08zm74.84 0c-3.2 0-6.28.2-8.56.6v26.44c1.36.2 3.72.44 7.16.44 5.28 0 9.72-1.04 12.68-3.32 2.64-2.04 4.72-5.6 4.72-11.12 0-4.96-1.92-8.32-4.88-10.36-2.68-1.84-5.92-2.68-11.12-2.68zm-173.87.2v26.96h7.24v-26.96h-7.24zm20.08 0v26.96h17.6v-6.04h-10.36v-20.92h-7.24zm21.09 0v26.96h18.08v-5.92h-10.84v-4.96h9.68v-5.84h-9.68v-4.32h10.28v-5.92h-17.52zm27.99 0l-7.8 26.96h7.48l1.52-6.24h6.96l1.72 6.24h7.8l-8.04-26.96h-9.64zm45.84 0v26.96h6.6v-6.6c0-4.4-.1-8.44-.28-12.08h.16c1.28 3.24 3.04 6.88 4.52 9.72l4.6 8.96h7.6v-26.96h-6.6v6.36c0 4.04.16 7.8.56 11.36h-.12c-1.2-3.16-2.76-6.76-4.24-9.44l-4.28-8.28h-8.52zm28.2 0v26.96h18.08v-5.92h-10.84v-4.96h9.68v-5.84h-9.68v-4.32h10.28v-5.92h-17.52zm-43.29 5.16c2.4 0 3.72 1.16 3.72 3.16s-1.56 3.32-4.28 3.32h-1.88v-6.32c.36-.12 1.08-.16 2.44-.16zm-26.27.1h.1c.44 1.56.96 3.8 1.36 5.32l1.24 4.84h-5l1.16-4.84c.36-1.52.76-3.76 1.16-5.32zm101.07.1c4.36 0 7.48 2.48 7.48 7.76 0 6.08-3.48 8.64-8.16 8.6-.48 0-1.16 0-1.52-.1v-16.1c.36-.1 1.08-.16 2.2-.16z" fill="#e3a964"/></svg>