<?xml version="1.0" encoding="UTF-8" standalone="no"?>
<svg
  xmlns="http://www.w3.org/2000/svg"
  version="1.1"
  width="640"
  height="360"
  viewBox="0 0 640 360">
  <rect
    width="672"
    height="392"
    x="-16"
    y="-16"
    style="fill:#e6e5c6"/>
  <rect
    width="240"
    height="240"
    x="200"
    y="60"
    style="fill:#dc5943"/>
  <path
    d="m 346.64,116.14 c -6.8,0 -10.84,3.68 -10.84,8.44 0,4 3.04,6.52 7.6,8.12 3.04,1.04 4.24,1.8 4.24,3.12 0,1.36 -1.2,2.2 -3.68,2.2 -2.72,0 -5.36,-0.84 -7,-1.68 l -1.36,5.96 c 1.52,0.8 4.68,1.64 7.92,1.64 7.88,0 11.48,-3.96 11.48,-8.6 0,-3.76 -2.16,-6.36 -7,-8.16 -3.4,-1.24 -4.84,-1.8 -4.84,-3.16 0,-1.2 1.2,-2 3.4,-2 2.68,0 4.68,0.76 5.84,1.28 l 1.52,-5.76 c -1.76,-0.8 -4.08,-1.4 -7.28,-1.4 z m -111.75,0.24 c -4.08,0 -6.92,0.28 -8.88,0.6 l 0,26.56 7.16,0 0,-9.16 c 0.44,0 1.04,0.1 1.76,0.1 3.64,0 6.8,-0.88 8.96,-2.8 1.72,-1.56 2.64,-3.92 2.64,-6.64 0,-2.76 -1.24,-5.12 -3.08,-6.48 -1.88,-1.44 -4.68,-2.16 -8.56,-2.16 z m 51.59,0 c -3.32,0 -6.88,0.28 -8.52,0.56 l 0,26.48 c 1.44,0.24 3.84,0.44 7.12,0.44 5.76,0 9.12,-0.92 11.12,-2.44 1.8,-1.32 3.04,-3.32 3.04,-5.88 0,-3.2 -2,-5.64 -5.28,-6.56 l 0,-0.1 c 3.16,-1.2 4.4,-3.4 4.4,-5.64 0,-2.64 -1.52,-4.6 -3.64,-5.56 -2.08,-1.04 -4.4,-1.32 -8.24,-1.32 z m -36.45,0.2 0,14.72 c 0,8.64 3.92,12.68 11.28,12.68 7.56,0 11.72,-4.2 11.72,-12.52 l 0,-14.88 -7.24,0 0,15.32 c 0,4.28 -1.4,6.36 -4.28,6.36 -2.84,0 -4.24,-2.28 -4.24,-6.36 l 0,-15.32 -7.24,0 z m 53.17,0 0,26.96 17.6,0 0,-6.04 -10.36,0 0,-20.92 -7.24,0 z m 21.09,0 0,26.96 7.24,0 0,-26.96 -7.24,0 z m 34.61,0 0,26.96 7.24,0 0,-10.68 8.76,0 0,10.68 7.24,0 0,-26.96 -7.24,0 0,9.96 -8.76,0 0,-9.96 -7.24,0 z m -71.42,5 c 2.44,0 3.64,1 3.64,2.56 0,1.72 -1.48,2.8 -4.56,2.8 l -1.44,0 0,-5.2 c 0.48,-0.12 1.16,-0.16 2.36,-0.16 z m -52.19,0.24 c 2.76,0 4.08,1.36 4.08,3.36 0,2.32 -1.76,3.76 -4.56,3.76 -0.76,0 -1.24,-0 -1.64,-0.1 l 0,-6.88 c 0.36,-0.1 1.08,-0.16 2.12,-0.16 z m 49.83,10.24 1.72,0 c 2.72,0 4.8,0.88 4.8,3.16 0,2.4 -2.04,3.36 -4.44,3.36 -0.92,0 -1.56,0 -2.08,-0.1 l 0,-6.44 z m -61.01,34.52 6.2,26.96 8,0 0,0 2.04,-10.52 c 0.48,-2.4 0.84,-4.92 1.28,-8.12 l 0.1,0 c 0.36,3.2 0.72,5.72 1.12,8.08 l 1.8,10.56 7.88,0 6.64,-26.96 -7.32,0 -1.6,9.92 c -0.48,3.16 -0.96,6.36 -1.36,9.4 l -0.1,0 c -0.36,-3.08 -0.72,-5.84 -1.2,-8.92 l -1.68,-10.4 -7.72,0 -1.72,9.92 c -0.6,3.28 -1.16,6.52 -1.6,9.56 l -0.1,0 c -0.4,-2.76 -0.88,-6.36 -1.36,-9.48 l -1.56,-10 -7.76,0 z m 38.15,0 0,26.96 7.24,0 0,-10.68 8.76,0 0,10.68 7.24,0 0,-26.96 -7.24,0 0,9.96 -8.76,0 0,-9.96 -7.24,0 z m 34.08,0 -7.8,26.96 7.48,0 1.52,-6.24 6.96,0 1.72,6.24 7.8,0 -8.04,-26.96 -9.64,0 z m 16.08,0 0,6.08 6.88,0 0,20.88 7.24,0 0,-20.88 7,0 0,-6.08 -21.12,0 z m -11.6,5.24 0.1,0 c 0.44,1.56 0.96,3.8 1.36,5.32 l 1.24,4.84 -5,0 0,0 1.16,-4.84 c 0.36,-1.52 0.76,-3.76 1.16,-5.32 z m 24.22,44.56 c -3.6,0 -6.68,0.24 -8.72,0.56 l 0,26.6 7.16,0 0,-10.12 1.16,0 c 2.24,0 3.24,0.68 3.96,3.88 0.76,3.36 1.48,5.44 1.88,6.24 l 7.36,0 c -0.52,-1.04 -1.4,-4.96 -2.2,-7.72 -0.68,-2.32 -1.68,-4.04 -3.44,-4.84 l 0,-0.12 c 2.08,-0.8 4.6,-3.16 4.6,-6.52 0,-2.6 -0.92,-4.52 -2.64,-5.88 -2.04,-1.52 -5,-2.08 -9.12,-2.08 z m 74.84,0 c -3.2,0 -6.28,0.2 -8.56,0.6 l 0,26.44 c 1.36,0.2 3.72,0.44 7.16,0.44 5.28,0 9.72,-1.04 12.68,-3.32 2.64,-2.04 4.72,-5.6 4.72,-11.12 0,-4.96 -1.92,-8.32 -4.88,-10.36 -2.68,-1.84 -5.92,-2.68 -11.12,-2.68 z m -173.87,0.2 0,26.96 7.24,0 0,-26.96 -7.24,0 z m 20.08,0 0,26.96 17.6,0 0,-6.04 -10.36,0 0,-20.92 -7.24,0 z m 21.09,0 0,26.96 18.08,0 0,-5.92 -10.84,0 0,-4.96 9.68,0 0,-5.84 -9.68,0 0,-4.32 10.28,0 0,-5.92 -17.52,0 z m 27.99,0 -7.8,26.96 7.48,0 1.52,-6.24 6.96,0 1.72,6.24 7.8,0 -8.04,-26.96 -9.64,0 z m 45.84,0 0,26.96 6.6,0 0,-6.6 c 0,-4.4 -0.1,-8.44 -0.28,-12.08 l 0.16,0 c 1.28,3.24 3.04,6.88 4.52,9.72 l 4.6,8.96 7.6,0 0,-26.96 -6.6,0 0,6.36 c 0,4.04 0.16,7.8 0.56,11.36 l -0.12,0 c -1.2,-3.16 -2.76,-6.76 -4.24,-9.44 l -4.28,-8.28 -8.52,0 z m 28.2,0 0,26.96 18.08,0 0,-5.92 -10.84,0 0,-4.96 9.68,0 0,-5.84 -9.68,0 0,-4.32 10.28,0 0,-5.92 -17.52,0 z m -43.29,5.16 c 2.4,0 3.72,1.16 3.72,3.16 0,2 -1.56,3.32 -4.28,3.32 l -1.88,0 0,-6.32 c 0.36,-0.12 1.08,-0.16 2.44,-0.16 z m -26.27,0.1 0.1,0 c 0.44,1.56 0.96,3.8 1.36,5.32 l 1.24,4.84 -5,0 0,0 1.16,-4.84 c 0.36,-1.52 0.76,-3.76 1.16,-5.32 z m 101.07,0.1 c 4.36,0 7.48,2.48 7.48,7.76 0,6.08 -3.48,8.64 -8.16,8.6 -0.48,0 -1.16,0 -1.52,-0.1 l 0,-16.1 c 0.36,-0.1 1.08,-0.16 2.2,-0.16 z"
    style="fill:#e3a964"/>
</svg>
