<svg xmlns="http://www.w3.org/2000/svg" width="1200" height="627"><defs><style><![CDATA[
      rect {
        shape-rendering: crispEdges;
      }
    ]]></style></defs><rect width="20%" height="12.5%" x="0%" y="0%" fill="#3C3330"/><rect width="20%" height="12.5%" x="20%" y="0%" fill="#534A47"/><rect width="20%" height="12.5%" x="40%" y="0%" fill="#6A625E"/><rect width="20%" height="12.5%" x="60%" y="0%" fill="#817A75"/><rect width="20%" height="12.5%" x="80%" y="0%" fill="#98928C"/><rect width="20%" height="12.5%" x="0%" y="12.5%" fill="#FCF9F0"/><rect width="20%" height="12.5%" x="20%" y="12.5%" fill="#B3ADA7"/><rect width="20%" height="12.5%" x="40%" y="12.5%" fill="#CAC5BE"/><rect width="20%" height="12.5%" x="60%" y="12.5%" fill="#E1DDD5"/><rect width="20%" height="12.5%" x="80%" y="12.5%" fill="#F8F5EC"/><rect width="20%" height="12.5%" x="0%" y="25%" fill="#18B"/><rect width="20%" height="12.5%" x="20%" y="25%" fill="#045375"/><rect width="20%" height="12.5%" x="40%" y="25%" fill="#056B97"/><rect width="20%" height="12.5%" x="60%" y="25%" fill="#3598C3"/><rect width="20%" height="12.5%" x="80%" y="25%" fill="#5BACD0"/><rect width="20%" height="12.5%" x="0%" y="37.5%" fill="#FF8C0C"/><rect width="20%" height="12.5%" x="20%" y="37.5%" fill="#B96200"/><rect width="20%" height="12.5%" x="40%" y="37.5%" fill="#EF7E00"/><rect width="20%" height="12.5%" x="60%" y="37.5%" fill="#FFA33C"/><rect width="20%" height="12.5%" x="80%" y="37.5%" fill="#FFB868"/><rect width="20%" height="12.5%" x="0%" y="50%" fill="#0ACB58"/><rect width="20%" height="12.5%" x="20%" y="50%" fill="#008536"/><rect width="20%" height="12.5%" x="40%" y="50%" fill="#00AC46"/><rect width="20%" height="12.5%" x="60%" y="50%" fill="#31D172"/><rect width="20%" height="12.5%" x="80%" y="50%" fill="#5ADB8E"/><rect width="20%" height="12.5%" x="0%" y="62.5%" fill="#2238C5"/><rect width="20%" height="12.5%" x="20%" y="62.5%" fill="#0C1C7F"/><rect width="20%" height="12.5%" x="40%" y="62.5%" fill="#1024A4"/><rect width="20%" height="12.5%" x="60%" y="62.5%" fill="#4457CC"/><rect width="20%" height="12.5%" x="80%" y="62.5%" fill="#6878D7"/><rect width="20%" height="12.5%" x="0%" y="75%" fill="#FFBA0C"/><rect width="20%" height="12.5%" x="20%" y="75%" fill="#B98500"/><rect width="20%" height="12.5%" x="40%" y="75%" fill="#EFAC00"/><rect width="20%" height="12.5%" x="60%" y="75%" fill="#FFC83C"/><rect width="20%" height="12.5%" x="80%" y="75%" fill="#FFD468"/><rect width="20%" height="12.5%" x="0%" y="87.5%" fill="#FF3B0C"/><rect width="20%" height="12.5%" x="20%" y="87.5%" fill="#B92300"/><rect width="20%" height="12.5%" x="40%" y="87.5%" fill="#EF2E00"/><rect width="20%" height="12.5%" x="60%" y="87.5%" fill="#FF613C"/><rect width="20%" height="12.5%" x="80%" y="87.5%" fill="#FF8568"/></svg>