<?xml version="1.0" encoding="UTF-8" standalone="no"?>
<svg
  xmlns="http://www.w3.org/2000/svg"
  version="1.1"
  width="640"
  height="360"
  viewBox="0 0 640 360">
  <rect
    width="672"
    height="392"
    x="-16"
    y="-16"
    style="fill:#fdfdfa"/>
  <path
    d="m 272.68,160.57 c -1.12,0.4 -2.36,0.8 -3.16,0.92 l 0,0.6 c 0,0.8 -0.47,1.04 -3.8,1.04 l -16.64,0 c -1.12,0 -1.64,-0.12 -2.2,-1 l -0.76,0 c -0.1,2.2 -0.28,4.88 -0.48,7.24 l 1.16,0 c 0.48,-1.84 0.84,-2.76 1.32,-3.52 0.56,-0.96 1.28,-1.32 4.84,-1.32 l 2.53,0 0,19.6 c 0,3.36 -0.33,3.68 -3.88,3.92 l 0,1.08 11.27,0 0,-1.08 c -3.68,-0.24 -4,-0.56 -4,-3.92 l 0,-19.6 2.84,0 c 3.53,0 5.6,0 7.8,0.28 l 0,20.12 c 0,2.64 -0.24,2.92 -2.8,3.16 l 0,1.04 8.6,0 0,-1.04 c -2.44,-0.24 -2.64,-0.56 -2.64,-3.12 l 0,-9.4 c 1.08,-1.36 2.64,-2.12 4.13,-2.12 2.71,0 3.95,1.64 3.95,4.96 l 0,6.56 c 0,2.6 -0.27,2.88 -2.64,3.12 l 0,1.04 8.49,0 0,-1.04 c -2.41,-0.2 -2.68,-0.44 -2.68,-3.12 l 0,-7 c 0,-4.76 -2.29,-6.88 -5.65,-6.8 -2.08,0 -4.12,1.36 -5.6,2.88 l 0,-13.48 z m -102.93,0.1 c -1.55,0.48 -3.96,1.12 -5.88,1.4 l 0,0.96 c 2.64,0.24 2.72,0.4 2.72,2.92 l 0,19.08 c 0,2.64 -0.32,2.88 -2.72,3.08 l 0,1.04 8.51,0 0,-1.04 c -2.4,-0.24 -2.59,-0.52 -2.6,-3.08 l 0,-9.52 c 1.13,-1.28 2.65,-2.04 4.17,-2.04 2.68,0 3.92,1.64 3.92,4.92 l 0,6.64 c 0,2.6 -0.33,2.84 -2.65,3.08 l 0,1.04 8.44,0 0,-1.04 c -2.32,-0.2 -2.63,-0.44 -2.63,-3.08 l 0,-7 c 0,-4.8 -2.29,-6.84 -5.53,-6.84 -2.16,0 -4.27,1.48 -5.72,2.92 l 0,-13.44 z m -108.935,2.46 0,1.12 c 3.12,0.24 3.439,0.4 3.439,3.96 l 0,15.92 c 0,3.28 -0.319,3.6 -3.959,3.88 l 0,1.12 19.279,0 c 0.36,-1.24 1.161,-5 1.401,-6.32 l -1.16,-0.16 c -0.56,1.56 -1.32,2.96 -2,3.76 -0.88,1.04 -1.999,1.36 -5.039,1.36 -2,0 -3.401,0 -4.161,-0.52 -0.72,-0.48 -0.96,-1.36 -0.96,-3.24 l 0,-7.56 3.8,0 c 3.48,0 3.76,0.24 4.28,3.08 l 1.16,0 0,-7.64 -1.16,0 c -0.48,2.68 -0.681,3 -4.321,3 l -3.759,0 0,-9.12 c 0,-1.16 0.08,-1.28 1.32,-1.28 l 3.041,0 c 2.88,0 3.959,0.28 4.519,1.16 0.52,0.84 0.92,1.72 1.28,3.4 l 1.16,-0.16 c -0.12,-2.04 -0.32,-4.76 -0.32,-5.76 l -17.84,0 z m 265.935,0 0,1.12 c 3.27,0.24 3.59,0.48 3.59,3.88 l 0,16 c 0,3.4 -0.32,3.64 -3.59,3.88 l 0,1.12 10.59,0 0,-1.12 c -3.28,-0.24 -3.59,-0.44 -3.59,-3.88 l 0,-16 c 0,-3.4 0.31,-3.64 3.59,-3.88 l 0,-1.12 -10.59,0 z m 21.86,0 0,1.12 c 2.44,0.28 3.03,0.64 4.03,3.92 2.2,7.12 4.44,14.16 6.56,21.4 l 1.24,0 c 2.05,-6.48 4.28,-12.92 6.52,-19.96 l 0.1,0 c 2.03,5.8 4.79,13.52 7,19.96 l 1.23,0 c 3.28,-11.2 5.72,-18.76 6.6,-21.32 1.2,-3.32 1.56,-3.64 4.32,-4 l 0,-1.12 -8.8,0 0,1.12 c 3.12,0.36 3.28,0.8 2.72,3.2 -0.6,2.84 -2.84,10.68 -4.51,16.04 l -0.1,0 c -2.44,-6.92 -4.76,-13.4 -7,-20 l -1.15,0 c -2.05,6.52 -4.32,13.16 -6.49,19.96 l -0.1,0 c -1.76,-5.68 -3.32,-11.08 -4.88,-16.48 -0.61,-2.04 -0.53,-2.36 2.39,-2.72 l 0,-1.12 -9.71,0 z m 136.77,0 0,1.12 c 3.17,0.24 3.49,0.44 3.49,4.08 l 0,15.68 c 0,3.48 -0.32,3.76 -3.37,4 l 0,1.12 10.4,0 0,-1.12 c -3.32,-0.24 -3.68,-0.52 -3.68,-4 l 0,-7.6 c 0.68,-0.12 1.21,0 2.16,1.08 3.56,4.24 6.8,8.16 9.93,11.64 l 6.11,0 0,-1.12 c -1.92,-0.24 -2.71,-0.6 -4.84,-2.88 -2,-2.16 -6.4,-7.08 -9.4,-10.88 2.69,-2.72 5.52,-5.6 7.08,-7 2.52,-2.32 3.49,-2.72 6.49,-3 l 0,-1.12 -9.61,0 0,1.12 0.92,0.12 c 1.81,0.2 1.84,0.6 0.64,2.04 -1.8,2.2 -4.48,5 -6.68,7.12 -1.12,1.04 -1.91,1.6 -2.8,1.8 l 0,-7 c 0,-3.56 0.4,-3.84 3.48,-4.08 l 0,-1.12 -10.32,0 z m -295.5,0.44 c -1.08,0 -2.04,0.88 -2.04,2.08 0,1.08 0.96,2.04 2,2.04 1.16,0 2.04,-0.96 2.04,-2.04 0,-1.2 -0.88,-2.08 -2,-2.08 z m -32.99,2.52 -2.6,2.68 0,2.88 -1.79,0 -1.13,1.16 0.16,0.44 2.76,0 0,11.6 c 0,3.16 1.4,4.76 3.92,4.76 0.4,0 1,-0.16 1.68,-0.52 l 2.72,-1.4 -0.36,-1.04 c -0.52,0.28 -1.44,0.68 -2.44,0.68 -1.04,0 -2.36,-0.6 -2.36,-3.84 l 0,-10.24 4.28,0 c 0.52,-0.32 0.64,-1.16 0.24,-1.6 l -4.52,0 0,-5.48 -0.56,-0.1 z m 153.29,0 -2.61,2.68 0,2.88 -1.8,0 -1.12,1.16 0.16,0.44 2.76,0 0,11.6 c 0,3.16 1.4,4.76 3.93,4.76 0.39,0 1,-0.16 1.68,-0.52 l 2.71,-1.4 -0.36,-1.04 c -0.52,0.28 -1.44,0.68 -2.44,0.68 -1.03,0 -2.35,-0.6 -2.35,-3.84 l 0,-10.24 4.27,0 c 0.52,-0.32 0.64,-1.16 0.24,-1.6 l -4.51,0 0,-5.48 -0.56,-0.1 z m 117.1,0 -2.6,2.68 0,2.88 -1.8,0 -1.12,1.16 0.17,0.44 2.75,0 0,11.6 c 0,3.16 1.4,4.76 3.93,4.76 0.39,0 1,-0.16 1.67,-0.52 l 2.72,-1.4 -0.36,-1.04 c -0.52,0.28 -1.44,0.68 -2.44,0.68 -1.04,0 -2.36,-0.6 -2.36,-3.84 l 0,-10.24 4.28,0 c 0.52,-0.32 0.64,-1.16 0.25,-1.6 l -4.53,0 0,-5.48 -0.56,-0.1 z m 21.25,0 -2.6,2.68 0,2.88 -1.8,0 -1.12,1.16 0.17,0.44 2.75,0 0,11.6 c 0,3.16 1.4,4.76 3.93,4.76 0.39,0 1,-0.16 1.67,-0.52 l 2.72,-1.4 -0.36,-1.04 c -0.52,0.28 -1.44,0.68 -2.44,0.68 -1.04,0 -2.36,-0.6 -2.36,-3.84 l 0,-10.24 4.28,0 c 0.52,-0.32 0.64,-1.16 0.25,-1.6 l -4.53,0 0,-5.48 -0.56,-0.1 z m -324.97,5 c -1.92,0.8 -3.68,1.28 -5.64,1.6 l 0,0.92 c 2.32,0.28 2.48,0.44 2.48,3.08 l 0,8.28 c 0,2.64 -0.28,2.88 -2.76,3.12 l 0,1.04 9.2,0 0,-1.04 c -3.08,-0.24 -3.28,-0.48 -3.28,-3.12 l 0,-7.32 c 0.88,-2.24 2.16,-3.4 3.2,-3.4 0.64,0 1.12,0.24 1.72,0.8 0.24,0.24 0.56,0.28 1.04,0.1 0.76,-0.36 1.28,-1.16 1.28,-1.96 0,-0.92 -0.96,-2 -2.32,-2 -1.92,0 -3.64,2.24 -4.84,4.28 l -0.1,0 0,-4.36 z m 68.12,0 c -1.72,0.72 -3.64,1.24 -5.68,1.56 l 0,0.96 c 2.4,0.36 2.52,0.56 2.52,3.04 l 0,8.24 c 0,2.72 -0.27,2.96 -2.8,3.2 l 0,1.04 8.8,0 0,-1.04 c -2.56,-0.24 -2.84,-0.48 -2.84,-3.2 l 0,-13.8 z m 10.71,0 c -1.76,0.76 -3.64,1.24 -5.56,1.6 l 0,0.92 c 2.17,0.4 2.4,0.56 2.4,3.12 l 0,8.24 c 0,2.64 -0.2,2.84 -2.92,3.12 l 0,1.04 8.69,0 0,-1.04 c -2.37,-0.24 -2.61,-0.4 -2.61,-3.12 l 0,-9.4 c 1.2,-1.04 2.76,-2.04 4.36,-2.04 2.68,0 3.64,1.8 3.64,4.56 l 0,6.68 c 0,2.76 -0.28,3.08 -2.64,3.32 l 0,1.04 8.36,0 0,-1.04 c -2.32,-0.24 -2.56,-0.4 -2.56,-3.12 l 0,-7.72 c 0,-3.84 -1.96,-6.08 -5.16,-6.08 -1.16,0 -2.2,0.48 -3.32,1.2 -1,0.68 -1.88,1.28 -2.68,1.88 l 0,-3.16 z m 204.85,0 c -1.77,0.76 -3.65,1.24 -5.56,1.6 l 0,0.92 c 2.15,0.4 2.39,0.56 2.39,3.12 l 0,8.24 c 0,2.64 -0.2,2.84 -2.92,3.12 l 0,1.04 8.68,0 0,-1.04 c -2.36,-0.24 -2.59,-0.4 -2.59,-3.12 l 0,-9.4 c 1.19,-1.04 2.76,-2.04 4.35,-2.04 2.68,0 3.65,1.8 3.65,4.56 l 0,6.68 c 0,2.76 -0.29,3.08 -2.65,3.32 l 0,1.04 8.36,0 0,-1.04 c -2.32,-0.24 -2.56,-0.4 -2.56,-3.12 l 0,-7.72 c 0,-3.84 -1.96,-6.08 -5.15,-6.08 -1.17,0 -2.21,0.48 -3.33,1.2 -1,0.68 -1.88,1.28 -2.67,1.88 l 0,-3.16 z m 110.38,0 c -1.75,0.76 -3.63,1.24 -5.56,1.6 l 0,0.92 c 2.17,0.4 2.41,0.56 2.41,3.12 l 0,8.24 c 0,2.64 -0.21,2.84 -2.93,3.12 l 0,1.04 8.69,0 0,-1.04 c -2.36,-0.24 -2.61,-0.4 -2.61,-3.12 l 0,-9.4 c 1.21,-1.04 2.76,-2.04 4.37,-2.04 2.67,0 3.63,1.8 3.63,4.56 l 0,6.68 c 0,2.76 -0.27,3.08 -2.63,3.32 l 0,1.04 8.36,0 0,-1.04 c -2.33,-0.24 -2.57,-0.4 -2.57,-3.12 l 0,-7.72 c 0,-3.84 -1.95,-6.08 -5.16,-6.08 -1.15,0 -2.2,0.48 -3.32,1.2 -1,0.68 -1.88,1.28 -2.68,1.88 l 0,-3.16 z m -408.37,0.1 c -2.04,0 -4.2,1.12 -5.84,2.92 -1.64,1.8 -2.64,4.28 -2.64,7 0,4.52 2.88,8.52 7.8,8.52 1.24,0 4,-0.72 6.52,-3.84 l -0.6,-0.88 c -1.48,1.36 -2.96,2 -4.6,2 -2.8,0 -5.96,-2.24 -6,-7.68 4.8,-0.16 9.84,-0.56 10.48,-0.68 0.76,-0.16 0.92,-0.48 0.92,-1.28 0,-3.08 -2.68,-6.08 -6,-6.08 l 0,0 z m 116.66,0 c -3.08,0 -7.16,2.12 -7.16,6.64 0,2.72 1.72,4.6 3.52,5.36 -0.64,0.8 -1.92,1.84 -3.52,2.44 0,0.4 0.1,1.12 0.44,1.68 0.52,0.84 1.52,1.76 2.96,2.2 -0.96,0.76 -2.52,2 -3.32,2.8 -0.6,0.6 -0.96,1.36 -0.96,2.24 0,2.28 2.48,4.88 6.96,4.88 5.32,0 9.96,-3.88 9.96,-7.92 0,-3.92 -3.24,-4.72 -5.72,-4.72 -1.36,0 -2.76,0 -4.24,0 -1.8,0 -2.52,-0.76 -2.52,-1.52 0,-0.56 0.69,-1.32 1.2,-1.68 0.64,0.12 1.4,0.2 2.04,0.2 3.4,0 7,-2.08 7,-6.4 0,-1.4 -0.48,-2.68 -1.2,-3.52 l 2.28,0.12 c 0.64,-0.36 1.44,-1.4 1.8,-2.04 l -0.2,-0.32 c -1.48,0.24 -3.52,0.48 -5.44,0.6 -1.2,-0.72 -2.52,-1.08 -3.84,-1.08 l 0,0 z m 70.27,0 c -2.28,0.48 -4.92,2 -6,2.8 -0.75,0.56 -1.24,1.04 -1.24,1.6 0,0.96 1,1.72 1.72,1.72 0.56,0 0.96,-0.28 1.16,-0.92 0.32,-1.2 0.68,-2.08 1.17,-2.64 0.44,-0.48 1.03,-0.76 1.79,-0.76 2.04,0 3.4,1.6 3.4,4.52 l 0,0.68 c -0.87,0.72 -3.8,1.8 -6.19,2.6 -2.21,0.76 -3.24,2 -3.24,3.96 0,2.52 1.95,4.88 4.8,4.88 1.2,0 3.11,-1.48 4.71,-2.56 0.2,0.68 0.44,1.24 0.96,1.76 0.44,0.44 1.28,0.8 1.89,0.8 l 3.39,-2.04 -0.39,-1.04 c -0.41,0.24 -0.97,0.44 -1.45,0.44 -0.67,0 -1.4,-0.6 -1.4,-2.4 l 0,-7.4 c 0,-2.12 -0.39,-3.72 -1.8,-4.92 -0.88,-0.72 -2.08,-1.08 -3.28,-1.08 z m 95.63,0 c -2.29,0.48 -4.93,2 -6,2.8 -0.76,0.56 -1.25,1.04 -1.25,1.6 0,0.96 1,1.72 1.72,1.72 0.56,0 0.97,-0.28 1.16,-0.92 0.32,-1.2 0.68,-2.08 1.17,-2.64 0.44,-0.48 1.03,-0.76 1.79,-0.76 2.04,0 3.41,1.6 3.41,4.52 l 0,0.68 c -0.88,0.72 -3.81,1.8 -6.2,2.6 -2.21,0.76 -3.24,2 -3.24,3.96 0,2.52 1.95,4.88 4.79,4.88 1.21,0 3.12,-1.48 4.72,-2.56 0.2,0.68 0.44,1.24 0.96,1.76 0.44,0.44 1.28,0.8 1.88,0.8 l 3.4,-2.04 -0.4,-1.04 c -0.4,0.24 -0.96,0.44 -1.44,0.44 -0.67,0 -1.4,-0.6 -1.4,-2.4 l 0,-7.4 c 0,-2.12 -0.39,-3.72 -1.8,-4.92 -0.88,-0.72 -2.08,-1.08 -3.27,-1.08 z m 72.76,0 c -3.68,0 -8.8,3 -8.8,9.6 0,4.44 3.29,8.84 8.76,8.84 3.97,0 8.68,-3.08 8.68,-9.52 0,-4.92 -3.68,-8.92 -8.64,-8.92 z m 77.81,0 c -3.67,0 -8.79,3 -8.79,9.6 0,4.44 3.28,8.84 8.76,8.84 3.95,0 8.67,-3.08 8.67,-9.52 0,-4.92 -3.67,-8.92 -8.64,-8.92 z m -461.372,0.48 0,1.04 c 2.16,0.32 2.439,0.6 3.359,2.88 1.92,4.68 3.762,9.2 5.522,14 l 1.119,0 c 2.24,-5.96 4.317,-10.88 5.677,-13.88 1.08,-2.36 1.4,-2.72 3.515,-3 l 0,-1.04 -7.112,0 0,1.04 c 2.277,0.28 2.517,0.72 1.881,2.64 -0.88,2.6 -2.161,6.2 -3.561,9.52 -1.16,-2.84 -2.8,-7.08 -3.8,-9.88 -0.64,-1.72 -0.561,-2.04 1.599,-2.28 l 0,-1.04 -8.199,0 z m 51.402,0 0,1.04 c 2.2,0.28 2.56,0.8 3.44,3 1.16,2.84 2.96,7.68 4.56,12.24 0.24,0.68 0.28,1.2 0.1,1.8 -0.21,0.52 -0.53,1.36 -1.25,2.76 -0.96,1.76 -1.72,2.76 -3,3.52 -0.68,0.48 -1,0.84 -1,1.48 0,0.96 1.12,1.92 2.25,1.92 0.55,0 1.07,-0.2 1.27,-1 0.56,-2.12 1.44,-4.4 4.12,-10.8 2.76,-6.6 4,-9.92 5.04,-12.04 1.08,-2.24 1.4,-2.56 3.52,-2.88 l 0,-1.04 -7.24,0 0,1.04 c 2.32,0.28 2.56,0.76 2.08,2.24 -0.79,2.52 -2.56,7.24 -3.68,9.96 l -3.6,-10 c -0.56,-1.52 -0.36,-1.92 1.52,-2.2 l 0,-1.04 -8.09,0 z m 419.82,0 0,1.04 c 1.91,0.24 2.24,0.52 2.95,2.6 1.69,4.8 3.18,9.52 4.66,14.28 l 1.1,0 c 1.6,-4.44 3.24,-8.4 4.77,-12.44 1.64,4.2 3.29,8.12 4.89,12.44 l 1.15,0 c 1.8,-5.4 3.6,-10.72 4.79,-13.92 0.81,-2.2 1.17,-2.68 3.17,-2.96 l 0,-1.04 -7.2,0 0,1.04 c 2.57,0.36 2.85,0.56 2.33,2.64 -0.76,2.96 -1.9,6.48 -2.78,9.24 l -0.1,0 c -1.69,-4.32 -3.33,-8.56 -4.81,-12.72 l -1.04,0 c -1.67,4.64 -3.15,8.72 -4.63,12.56 l -0.1,0 c -1,-3.08 -2,-6.24 -2.95,-9.28 -0.57,-1.84 -0.36,-2.08 2.04,-2.44 l 0,-1.04 -8.28,0 z m -326.76,0.76 c 2.32,0 3.8,2.24 3.8,5.36 0,3.16 -1.56,4.72 -3.32,4.76 -2.2,0 -3.76,-2.24 -3.76,-5.36 0,-3.08 1.6,-4.76 3.28,-4.76 z m 238.59,0.1 c 3.56,0 5.44,3.84 5.44,8.48 0,5.48 -2.05,7.32 -4.53,7.32 -3.32,0 -5.47,-3.76 -5.47,-8.8 0,-4.52 2.15,-7 4.56,-7 z m 77.81,0 c 3.55,0 5.43,3.84 5.43,8.48 0,5.48 -2.04,7.32 -4.52,7.32 -3.31,0 -5.48,-3.76 -5.48,-8.8 0,-4.52 2.17,-7 4.57,-7 z m -433.58,0.16 c 2.24,0 3.6,1.92 3.56,4 0,0.6 -0.24,0.8 -0.96,0.8 -2.32,0.1 -4.56,0.12 -6.8,0.12 0.6,-3.24 2.4,-4.92 4.2,-4.92 z m 189.89,6.88 0,6.24 c -0.75,0.76 -2.16,1.44 -3.19,1.44 -1.24,0 -2.85,-1 -2.85,-3.04 0,-1.48 0.88,-2.24 2.44,-2.96 0.85,-0.4 2.76,-1.24 3.6,-1.68 z m 95.63,0 0,6.24 c -0.76,0.76 -2.17,1.44 -3.2,1.44 -1.24,0 -2.85,-1 -2.85,-3.04 0,-1.48 0.88,-2.24 2.44,-2.96 0.85,-0.4 2.76,-1.24 3.61,-1.68 z m -167.46,10.04 c 1.76,0 2.92,0.12 3.92,0.52 1.12,0.48 1.8,1.48 1.8,2.84 0,2.48 -1.96,4.44 -5.76,4.44 -2.96,0 -5.28,-1.64 -5.28,-3.84 0,-1.12 0.8,-2.24 1.84,-3.12 0.72,-0.6 1.64,-0.84 3.48,-0.84 z"
    style="fill:#36333d"/>
</svg>
