<svg xmlns="http://www.w3.org/2000/svg" width="1200" height="627" viewBox="0 0 1200 627"><path fill="#75bae7" d="M-16-13h1232v656H-16z"/><g fill="#fcf9f0"><path d="M547.674 279.35l34.195 93.945 5.87-2.136-34.193-93.948zm11.743-4.273l34.195 93.946 5.87-2.136-34.19-93.946zm41.104-14.96l12.823 35.23-29.356 10.684 2.136 5.875 35.23-12.82-14.962-41.104zm11.745-4.273l34.19 93.945 5.874-2.138-34.195-93.946zM589.33 320.71l2.135 5.875L620.82 315.9l13.892 38.162 5.873-2.136-16.027-44.037zm-22.49-136.326l4.43 21.53c1.57 7.62 5.366 9.088 8.9 8.36 3.718-.764 6.725-3.822 5.065-11.902l-4.3-20.885-1.975.406 4.342 21.116c1.223 5.92-.242 8.8-3.41 9.456-2.8.574-5.447-1.128-6.728-7.373l-4.346-21.116-1.977.406zm-26.375 10.93c-.226.083-.445.204-.68.302-2.464 1.254-3.5 3.253-3.87 4.386l1.328.953c.313-.63.906-2.457 3.035-3.54 2.718-1.38 5.14-.038 6.924 3.477 2.968 5.846 1.597 14.012.8 20.093l-.52 3.944.555 1.084 11.943-6.073-.824-1.627-9.482 4.82-.04-.087.477-3.82c.88-6.96 1.5-14.22-1.087-19.315-2.012-3.955-5.167-5.896-8.55-4.6zm-30.22 19.797l-1.514 1.33 20.813 23.764 8.568-7.502-1.14-1.308-7.052 6.18-19.67-22.46zm116.144-32.295l-7.937 30.575 1.86.483 3.346-12.883c1.752-6.76 2.62-10.115 3.53-14.92l.09.04c.15 4.835.58 8.385 1.06 12.142l2.223 18.296 1.95.508 7.938-30.575-1.86-.482-3.508 13.516c-1.32 5.08-2.12 8.166-3.312 14.056l-.09-.04c-.21-4.03-.772-8.58-1.268-12.825l-2.07-17.387-1.953-.508zM494.154 232.72l-1.21 1.61L518.2 253.3l1.212-1.612-25.256-18.968zm107.49-24.045c-.606.262-.99.914-1.012 1.758-.04 1.124.613 1.886 1.55 1.91 1.125.038 1.707-.71 1.73-1.836.04-1.125-.52-1.933-1.597-1.96-.246 0-.472.038-.672.128zm-123.057 50.203l-.774 1.757 25.888 19.574.797-1.803-8.927-6.705 3.163-7.158 10.966 2.073.832-1.886-31.946-5.853zm2.237 2.015c2.488.637 4.718 1.16 7.174 1.63l8.955 1.748-2.796 6.348-7.31-5.377c-1.935-1.417-3.89-2.792-6.098-4.174l.074-.172zm181.347-65.21l-15.715 27.4 10.035 5.76.887-1.547-8.29-4.757 6.922-12.077 7.237 4.155.885-1.547-7.236-4.15 6.13-10.688 7.764 4.455.886-1.55-9.51-5.456zm-193.32 93.82l-.254 1.996 13.992 1.8-1.323 10.27-13.99-1.793-.258 1.995 31.327 4.023.258-1.996-15.57-2 1.32-10.275 15.57 2.003.254-2.004-31.33-4.023zm218.47-76.75l-1.2 1.245 4.254 4.097-20.69 21.514 1.452 1.396 20.694-21.518 4.253 4.092 1.203-1.25-9.966-9.58zm20.686 50.46v.04-.04zm0 .04l-1.99 7.61-7.953.352 6.542 4.346-2.23 7.528 6.325-4.823 6.432 4.577-2.722-7.482 6.554-5.006-8.242.36-2.718-7.46zm-223.063 81.23l2.722 7.482-6.546 5.022 8.245-.383 2.722 7.483 1.976-7.64 7.955-.378-6.564-4.36 2.215-7.537-6.32 4.846-6.44-4.566zM701.63 319.48l-.26 2 15.567 2.035-1.34 10.27-15.57-2.034-.258 1.997 31.316 4.1.26-2-13.987-1.826 1.346-10.27 13.985 1.83.26-2-31.32-4.1zm-172.945 66.38l-20.74 21.466-4.246-4.104-1.21 1.25 9.942 9.603 1.207-1.246-4.247-4.103 20.742-21.467-1.45-1.4zm14.613 12.203l-.89 1.54 8.28 4.775-6.952 12.055-7.225-4.163-.89 1.54 7.23 4.17-6.16 10.673-7.754-4.472-.89 1.545 9.497 5.483 15.78-27.364-10.024-5.78zm152.916-51.003l-.8 1.796 8.912 6.725-3.18 7.156-10.962-2.1-.84 1.882 31.93 5.928.782-1.753-25.842-19.632zm9.525 9.61l7.29 5.398c1.938 1.42 3.883 2.8 6.09 4.19l-.074.172c-2.488-.644-4.71-1.172-7.17-1.644l-8.95-1.773 2.814-6.342zm-138.486 53.25l-8.01 30.554 1.86.49 3.542-13.514c1.33-5.077 2.136-8.158 3.34-14.043l.092.04c.203 4.025.753 8.575 1.237 12.824l2.035 17.39 1.95.514 8.005-30.555-1.86-.49-3.373 12.88c-1.77 6.752-2.648 10.107-3.566 14.903l-.094-.04c-.136-4.834-.566-8.38-1.03-12.137l-2.18-18.304-1.95-.51zm114.402-35.988l-1.218 1.605 25.208 19.03 1.218-1.605-25.21-19.03zm-11.372 13.07l-8.588 7.48 1.137 1.312 7.068-6.16 19.614 22.504 1.52-1.324-20.738-23.81zm-73.44 27.803c-.643.234-.972.87-.995 1.714-.04 1.123.51 1.93 1.59 1.96.987.04 1.662-.755 1.69-1.88.04-1.12-.61-1.886-1.547-1.913-.28 0-.527.04-.738.117zm21.41-1.6c-3.05 1.202-5.18 4.42-3.742 11.492l4.246 20.897 1.97-.402-4.287-21.128c-1.202-5.924.266-8.802 3.433-9.447 2.804-.566 5.448 1.145 6.714 7.39l4.294 21.123 1.978-.402-4.377-21.538c-1.55-7.623-5.34-9.1-8.876-8.38-.465.093-.922.226-1.35.394zm33.51-12.06l-11.957 6.045.82 1.632 9.498-4.8.04.09-.493 3.816c-.89 6.96-1.53 14.215 1.05 19.315 2.137 4.226 5.577 6.163 9.217 4.32 2.467-1.246 3.506-3.242 3.88-4.374l-1.323-.96c-.313.63-.914 2.457-3.046 3.53-2.717 1.38-5.135.04-6.91-3.486-2.96-5.858-1.57-14.016-.755-20.097l.527-3.94-.55-1.09z"/><path d="M570.083 231.3c-45.38 16.514-68.804 66.74-52.284 112.12 16.513 45.38 66.74 68.803 112.12 52.284 45.38-16.515 68.802-66.742 52.283-112.12-16.515-45.38-66.742-68.805-112.12-52.285zm1.066 2.935c43.796-15.94 92.18 6.62 108.116 50.414 15.942 43.796-6.62 92.18-50.413 108.116-43.798 15.942-92.18-6.62-108.12-50.413-15.94-43.798 6.62-92.18 50.415-108.12z"/><path d="M548.71 172.583c-77.81 28.32-117.95 114.397-89.627 192.21 28.32 77.81 114.397 117.948 192.21 89.627 77.81-28.32 117.948-114.398 89.627-192.21-28.32-77.81-114.398-117.95-192.21-89.627zm1.07 2.936c76.223-27.747 160.46 11.535 188.203 87.76 27.748 76.222-11.536 160.46-87.76 188.202-76.223 27.748-160.46-11.536-188.204-87.76-27.747-76.223 11.535-160.46 87.76-188.204z"/></g></svg>