<svg xmlns="http://www.w3.org/2000/svg" width="2560" height="1440" viewBox="0 0 2560 1440"><path fill="#F2E0C8" d="M-1280-720h5120v2880h-5120z"/><path d="M276.24 804.844c11.328 34.944-14.015 77.305-50.95 81.39-20.963.375-12.878-27.218-4.532-37.564 13.438-19.82 34.852-32.913 55.48-43.827zM486.02 574.98c-7.797-29.355-40.042-42.36-67.51-45.65-57.154-7.28-112.387 16.434-161.058 43.97-37.538 22.662-75.108 52.5-89.587 95.496-9.365 26.827 9.41 52.597 28.186 69.907 21.066 20.005 46.994 33.95 69.25 52.3-28.388 15.19-58.785 31.477-76.602 59.293-10.28 18.234-10.224 46.47 9.565 58.302 45.425 15.117 96.003-22.37 101.178-68.58 3.802-14.32-2.16-32.872-2.41-43.825 26.495-5.39 58.295-3.41 78.51 16.51 13.038 12.21 14.107 35.904-2.743 45.473-15.285 12.084 14.808 3.3 16.4-5.35 16.915-22.195.95-53.755-21.086-65.59-25.024-14.124-56.054-12.562-82.923-5.128-23.657-26.915-60.276-41.312-77.224-74.133-12.668-28.707 6.248-58.923 27.56-77.58 33.46-28.876 73.462-50.317 115.592-63.48 30.638-8.24 65.753-13.65 95.094 1.674 19.706 10.725 15.887 37.586 5.742 53.833-25.68 42.292-76.795 65.14-125.23 64.797-16.06.482-30.568-9.28-41.995-17.528-3.076 16.566 18.54 27.97 32.452 32.082 37.308 7.6 77.037-1.12 110.24-18.975 36.024-21.375 68.628-63.754 58.598-107.82z" fill="#c6538c"/><path d="M660.767 556.207l-12.893 64.465h262.388l-8.19 41.64H639.51l-12.72 64.466h262.39l-14.636 73.525-105.757 35.02-91.644-35.02 6.272-31.884H618.95l-15.332 77.357 151.58 58.018 174.75-58.018 23.172-116.385 4.704-23.347 29.793-149.837z" fill="#433f3c"/><path d="M1264.35 611.38c-62 .053-118.856 33.3-163.567 73.864-9.633 12.096-31.163 21.886-27.352 39.873 12.807 19.017 31.51 33.373 49.186 47.738 44.566 34.973 100.388 60.81 158.255 54.924 60.58-5.853 113.64-41.242 156.885-82.03 7.98-9.207 24.295-19.55 16.4-33.493-33.87-39.214-77.1-71.3-125.877-89.408-20.437-7.476-42.157-11.465-63.928-11.47zm0 34.666c36.75-.862 70.55 29.71 73.383 66.354 4.59 36.467-22.207 73.335-58.41 79.944-36.57 8.45-76.504-15.918-85.957-52.18-10.853-35.23 9.4-76.13 43.93-88.953 8.586-3.405 17.818-5.153 27.054-5.164zm-.023 45.306c-22.01-1.08-36.905 26.938-23.712 44.586 11.327 18.66 42.517 15.642 50.04-4.857 8.286-18.04-6.456-40.36-26.328-39.728z" fill="#acdc30"/><path d="M1750.213 528c-22.09 7.803-27.66 19.73-29.312 30.53-5.68-4.066-5.06-17.327-5.374-20.718-5.646.674-21.876 16.427-21.156 36.25-1.49.405-2.947.827-4.406 1.28-4.744-6.444-18.66-23.523-37-29.437-6.047-1.953-12.13-2.938-18.063-2.938-21.76 0-34.575 12.96-34.687 13.094l-6.125 7.126 9.188 1.813c.15.03 15.45 3.222 21.78 13.218 1.05 1.66 1.365 4.982 1.657 8.47.18 2.073-.3 4.075-.72 6.03-.316 1.46-.59 2.916-.655 4.406-5.75.208-10.702 1.334-14.688 3.375-5.402 2.763-9.043 7.175-10.563 12.75-3.725 13.664 8.4 28.888 8.813 29.374 1.415 2.525 2.018 20.846-1.25 28.188-.45 1.013-1.66 1.99-3.22 3.25-.487.395-1.076.842-1.655 1.28-4.61 3.48-11.563 8.725-11.563 20.845 0 16.583 16.806 25.583 30.313 32.813 2.216 1.192 4.338 2.336 6.25 3.438 2.017 1.166 9.152 8.542 9.156 19.563 0 5.164-.487 29.68-2.78 46.72-8.67-7.426-16.675-19.332-18.47-32.75 0 0-21.91 16.917-15.468 53.125 3.94 22.15 17.384 34.543 35.25 41.03 6.596 14.306 22.017 34.285 50.438 37.22 10.834 8.874 25.8 14.638 47.656 14.656h.125c21.854-.018 36.824-5.78 47.657-14.655 28.45-2.93 43.88-22.94 50.47-37.25 17.842-6.493 31.28-18.87 35.218-41 6.442-36.208-15.47-53.125-15.47-53.125-1.792 13.407-9.775 25.322-18.437 32.75-2.296-17.04-2.785-41.556-2.78-46.72 0-11.02 7.137-18.396 9.155-19.562 1.906-1.102 4-2.245 6.22-3.438 13.5-7.23 30.312-16.23 30.312-32.813 0-12.12-6.95-17.364-11.563-20.844-.584-.44-1.137-.886-1.625-1.28-1.563-1.26-2.8-2.238-3.25-3.25-3.264-7.343-2.664-25.663-1.25-28.19.414-.485 12.57-15.71 8.844-29.374-1.52-5.575-5.19-9.987-10.593-12.75-4.233-2.166-9.544-3.306-15.75-3.407-.16-3.318-1.694-6.728-1.375-10.53.305-3.624.586-7.022 1.78-8.907 6.65-10.5 22.34-13.686 22.5-13.72l7.376-1.437-4.875-5.75c-.63-.74-20.653-19.81-51.625-9.814-17.605 5.68-31.347 22.21-36.25 28.78-2.718-.872-5.49-1.673-8.313-2.374-3.14-11.85 6.75-28.844 6.75-28.844s-10.166-2.254-25.25 11.438c-1.952-4.872-6.074-15.39-1.344-27.938zm-32.594 127.406l.624.375-.125.19-.5-.564zm41 0l-.657.75-.22-.25.876-.5z" fill="#e48632"/><path d="M2200.126 528.018c-75.757-.088-148.444 49.765-175.877 120.266-24.886 61.826-15.404 136.29 26.09 188.726 39.1 50.94 104.667 80.542 168.98 74.12 62.725-5.29 121.762-43.11 151.65-98.795 30.534-55.195 31.835-125.463 1.962-181.107-26.704-51.483-77.34-89.568-134.487-99.896-12.61-2.408-25.45-3.486-38.318-3.315zm1.032 27.213c8.882-.11 17.748.837 26.522 2.032 9.66 21.6 18.765 43.636 24.683 66.614-33.082 3.296-66.49 3.295-99.57 0 5.816-22.905 15.07-44.892 24.618-66.582 7.872-1.018 15.766-2.053 23.748-2.064zm64.82 12.318c22.256 10.136 42.722 24.195 59.498 42.077-14.907 4.634-30.2 7.863-45.59 10.64-4.845-18.79-11.764-36.92-18.65-55.103l4.743 2.386zm-123.994 2.676c-6.196 16.46-12.396 33.018-16.68 50.04-15.372-2.77-30.614-5.978-45.527-10.64 17.74-19.15 39.96-33.808 63.917-44.043l-1.71 4.644zm200.915 63.744c13.21 21.876 21.494 46.758 23.682 72.32h-73.5c-1.018-19.846-3.485-39.506-7.26-59.004 19.043-3.8 38.003-8.178 56.206-14.8l.523.89.35.593zm-278.19-.903c17.795 6.264 36.122 10.61 54.624 14.22-3.776 19.498-6.243 39.156-7.26 59.004h-73.5c2.26-26.065 10.783-51.552 24.586-73.74l.98.325.57.19zm194.106 20.41c3.073 17.478 5.715 35.06 6.42 52.814H2139.92c.724-18.42 3.556-36.587 6.742-54.717 37.132 4.205 74.735 4.235 111.863-.032l.153 1.02.137.915zm-217.95 80.027h71.047c.557 19.814 2.418 39.56 5.71 59.07-18.526 3.495-36.664 8.412-54.463 14.67-13.816-22.204-22.32-47.655-24.586-73.74h2.29zm101.086 0h123.382c-.347 18.476-2.127 36.887-5.227 55.07-38.183-4.452-76.875-4.45-115.058 0-3.1-18.186-4.882-36.593-5.228-55.07h2.13zm153.292 0h71.338c-2.26 26.064-10.783 51.55-24.586 73.74-17.8-6.26-35.938-11.177-54.464-14.67 3.296-19.51 5.152-39.255 5.71-59.07h2zm-93.633 79.866c17.656.008 35.333.652 52.884 2.644-5.962 22.814-14.006 45.06-24.52 66.163-18.04 3.133-36.75 3.14-54.787 0-10.497-21.105-18.596-43.334-24.49-66.163 16.898-1.957 33.915-2.565 50.915-2.644zm-77.758 8.286c4.51 17.29 10.418 34.352 16.713 51.17-22.81-10.103-43.864-24.347-60.755-42.722 14.308-4.322 28.822-7.634 43.526-10.253l.284.99.233.815zm159.745-1.45c14.114 2.504 28.042 5.76 41.783 9.898-16.95 18.326-37.968 32.673-60.82 42.722 6.602-17.442 12.647-34.902 17.133-52.975l1.015.188.89.166z" fill="#005a9c"/></svg>