<?xml version="1.0" encoding="UTF-8" standalone="no"?>
<svg
	xmlns="http://www.w3.org/2000/svg"
	height="360"
	viewBox="0 0 640 360"
	width="640">
	<rect
		fill="#8eb1c7"
		height="392"
		width="672"
		x="-16"
		y="-16"/>
	<rect
		fill="#c1bfb5"
		height="112"
		width="276"
		x="-16"
		y="124"/>
	<path
		d="m 92.324,168.015 c -4.064,0 -7.457,2.944 -7.457,7.648 0,4.832 2.848,7.136 6.816,7.136 1.536,0 3.551,-0.959 4.863,-2.591 -0.192,5.952 -2.43,7.935 -5.15,7.935 -1.376,0 -2.816,-0.735 -3.648,-1.695 l -2.496,2.847 c 1.376,1.44 3.519,2.687 6.431,2.687 4.768,0 9.152,-3.807 9.152,-12.607 0,-7.936 -4.031,-11.361 -8.511,-11.361 z m 48.828,0 c -4.864,0 -8.031,4.065 -8.031,11.873 0,7.84 3.167,12.095 8.031,12.095 4.864,0 8,-4.255 8,-12.095 0,-7.776 -3.136,-11.873 -8,-11.873 z m 29.25,0 c -4.864,0 -8.031,4.065 -8.031,11.873 0,7.84 3.167,12.095 8.031,12.095 4.864,0 8,-4.255 8,-12.095 0,-7.776 -3.136,-11.873 -8,-11.873 z m -48.636,0.449 c -1.504,0.928 -3.135,1.536 -5.503,1.984 v 2.912 h 4.287 v 14.367 h -5.087 v 3.808 h 14.24 v -3.808 h -4.447 v -19.263 z m -29.378,3.103 c 1.952,0 3.553,1.471 4.033,5.343 -1.088,1.792 -2.591,2.527 -3.839,2.527 -2.08,0 -3.392,-1.183 -3.392,-3.775 0,-2.752 1.439,-4.095 3.199,-4.095 z m 48.765,0.128 c 2.048,0 3.552,1.791 3.552,8.191 0,6.432 -1.504,8.416 -3.552,8.416 -2.048,0 -3.583,-1.984 -3.583,-8.416 0,-6.4 1.535,-8.191 3.583,-8.191 z m 29.25,0 c 2.048,0 3.552,1.791 3.552,8.191 0,6.432 -1.504,8.416 -3.552,8.416 -2.048,0 -3.583,-1.984 -3.583,-8.416 0,-6.4 1.535,-8.191 3.583,-8.191 z m -104.804,1.919 6.113,17.919 h 5.439 l 5.984,-17.919 h -4.511 l -2.625,8.927 c -0.48,1.76 -0.959,3.615 -1.439,5.439 h -0.16 c -0.48,-1.824 -0.959,-3.679 -1.439,-5.439 l -2.625,-8.927 z m 42.048,12.222 c -1.664,0 -2.912,1.312 -2.912,3.072 0,1.728 1.248,3.072 2.912,3.072 1.696,0 2.943,-1.344 2.943,-3.072 0,-1.76 -1.247,-3.072 -2.943,-3.072 z m 48.125,0 c -1.664,0 -2.912,1.312 -2.912,3.072 0,1.728 1.248,3.072 2.912,3.072 1.696,0 2.943,-1.344 2.943,-3.072 0,-1.76 -1.247,-3.072 -2.943,-3.072 z"
		fill="#fefdff"/>
</svg>
