<?xml version="1.0" encoding="UTF-8" standalone="no"?>
<svg
  xmlns="http://www.w3.org/2000/svg"
  version="1.1"
  width="1200"
  height="627">
  <defs>
    <style><![CDATA[
      rect {
        shape-rendering: crispEdges;
      }
    ]]></style>
  </defs>
  <rect style="fill:#3C3330" width="20%" height="12.5%"  x="0%"  y="0%"/>
  <rect style="fill:#534A47" width="20%" height="12.5%"  x="20%" y="0%"/>
  <rect style="fill:#6A625E" width="20%" height="12.5%"  x="40%" y="0%"/>
  <rect style="fill:#817A75" width="20%" height="12.5%"  x="60%" y="0%"/>
  <rect style="fill:#98928C" width="20%" height="12.5%"  x="80%" y="0%"/>
  <rect style="fill:#FCF9F0" width="20%" height="12.5%"  x="0%"  y="12.5%"/>
  <rect style="fill:#B3ADA7" width="20%" height="12.5%"  x="20%" y="12.5%"/>
  <rect style="fill:#CAC5BE" width="20%" height="12.5%"  x="40%" y="12.5%"/>
  <rect style="fill:#E1DDD5" width="20%" height="12.5%"  x="60%" y="12.5%"/>
  <rect style="fill:#F8F5EC" width="20%" height="12.5%"  x="80%" y="12.5%"/>
  <rect style="fill:#1188BB" width="20%" height="12.5%"  x="0%"  y="25%"/>
  <rect style="fill:#045375" width="20%" height="12.5%"  x="20%" y="25%"/>
  <rect style="fill:#056B97" width="20%" height="12.5%"  x="40%" y="25%"/>
  <rect style="fill:#3598C3" width="20%" height="12.5%"  x="60%" y="25%"/>
  <rect style="fill:#5BACD0" width="20%" height="12.5%"  x="80%" y="25%"/>
  <rect style="fill:#FF8C0C" width="20%" height="12.5%"  x="0%"  y="37.5%"/>
  <rect style="fill:#B96200" width="20%" height="12.5%"  x="20%" y="37.5%"/>
  <rect style="fill:#EF7E00" width="20%" height="12.5%"  x="40%" y="37.5%"/>
  <rect style="fill:#FFA33C" width="20%" height="12.5%"  x="60%" y="37.5%"/>
  <rect style="fill:#FFB868" width="20%" height="12.5%"  x="80%" y="37.5%"/>
  <rect style="fill:#0ACB58" width="20%" height="12.5%"  x="0%"  y="50%"/>
  <rect style="fill:#008536" width="20%" height="12.5%"  x="20%" y="50%"/>
  <rect style="fill:#00AC46" width="20%" height="12.5%"  x="40%" y="50%"/>
  <rect style="fill:#31D172" width="20%" height="12.5%"  x="60%" y="50%"/>
  <rect style="fill:#5ADB8E" width="20%" height="12.5%"  x="80%" y="50%"/>
  <rect style="fill:#2238C5" width="20%" height="12.5%"  x="0%"  y="62.5%"/>
  <rect style="fill:#0C1C7F" width="20%" height="12.5%"  x="20%" y="62.5%"/>
  <rect style="fill:#1024A4" width="20%" height="12.5%"  x="40%" y="62.5%"/>
  <rect style="fill:#4457CC" width="20%" height="12.5%"  x="60%" y="62.5%"/>
  <rect style="fill:#6878D7" width="20%" height="12.5%"  x="80%" y="62.5%"/>
  <rect style="fill:#FFBA0C" width="20%" height="12.5%"  x="0%"  y="75%"/>
  <rect style="fill:#B98500" width="20%" height="12.5%"  x="20%" y="75%"/>
  <rect style="fill:#EFAC00" width="20%" height="12.5%"  x="40%" y="75%"/>
  <rect style="fill:#FFC83C" width="20%" height="12.5%"  x="60%" y="75%"/>
  <rect style="fill:#FFD468" width="20%" height="12.5%"  x="80%" y="75%"/>
  <rect style="fill:#FF3B0C" width="20%" height="12.5%"  x="0%"  y="87.5%"/>
  <rect style="fill:#B92300" width="20%" height="12.5%"  x="20%" y="87.5%"/>
  <rect style="fill:#EF2E00" width="20%" height="12.5%"  x="40%" y="87.5%"/>
  <rect style="fill:#FF613C" width="20%" height="12.5%"  x="60%" y="87.5%"/>
  <rect style="fill:#FF8568" width="20%" height="12.5%"  x="80%" y="87.5%"/>
</svg>
