<?xml version="1.0" encoding="UTF-8" standalone="no"?>
<svg
  xmlns="http://www.w3.org/2000/svg"
  version="1.1"
  width="1200"
  height="600"
  viewBox="0 0 1200 600">
  <rect
    width="1208"
    height="608"
    x="-4"
    y="-4"
    style="fill:#46b0dd"/>
  <path
    d="m 480,172 c -6,0 -8,2 -8,8 0,6 2,8 8,8 l 16,0 c 6,0 8,2 8,8 l 0,208 c 0,6 -2,8 -8,8 l -16,0 c -6,0 -8,2 -8,8 0,6 2,8 8,8 l 112,0 c 6,0 8,-2 8,-8 0,-6 -2,-8 -8,-8 l -16,0 c -6,0 -8,-2 -8,-8 l 0,-80 c 0,-6 2,-8 8,-8 l 96,0 c 6,0 8,2 8,8 l 0,80 c 0,6 -2,8 -8,8 l -16,0 c -6,0 -8,2 -8,8 0,6 2,8 8,8 l 64,0 c 6,0 8,-2 8,-8 0,-6 -2,-8 -8,-8 l -16,0 c -6,0 -8,-2 -8,-8 l 0,-208 c 0,-6 2,-8 8,-8 l 16,0 c 6,0 8,-2 8,-8 0,-6 -2,-8 -8,-8 l -64,0 c -6,0 -8,2 -8,8 0,6 2,8 8,8 l 16,0 c 6,0 8,2 8,8 l 0,96 c 0,6 -2,8 -8,8 l -96,0 c -6,0 -8,-2 -8,-8 l 0,-96 c 0,-6 2,-8 8,-8 l 16,0 c 6,0 8,-2 8,-8 0,-6 -2,-8 -8,-8 z m 48,16 16,0 c 6,0 8,2 8,8 l 0,208 c 0,6 -2,8 -8,8 l -16,0 c -6,0 -8,-2 -8,-8 l 0,-208 c 0,-6 2,-8 8,-8 z"
    style="fill:#fcf9f0"/>
</svg>
