<svg
  xmlns="http://www.w3.org/2000/svg"
  width="2560"
  height="1440"
  viewBox="0 0 2560 1440">
  <rect
    width="2592"
    height="1472"
    x="-16"
    y="-16"
    style="fill:#2a372f"/>
  <path
    d="m 879.531,464 c -71.009,0 -130.89,24.849 -179.65,74.514 -24.68,24.688 -43.505,52.648 -56.457,83.889 C 630.472,653.643 624,686.171 624,720.004 c 0,34.137 6.401,66.585 19.201,97.369 12.8,30.784 31.464,58.45 56,82.979 24.536,24.528 52.273,43.273 83.201,56.217 C 813.339,969.537 845.724,976 879.549,976 c 33.825,0 66.593,-6.552 98.281,-19.656 31.705,-13.104 60.049,-32.009 85.033,-56.689 24.064,-23.464 42.281,-50.52 54.625,-81.145 12.328,-30.616 18.512,-63.457 18.512,-98.506 0,-34.745 -6.264,-67.577 -18.752,-98.514 -12.496,-30.928 -30.793,-58.441 -54.858,-82.514 C 1012.11,489 951.14,464 879.531,464 Z m 0.93,46.176 c 57.905,0 107.417,20.578 148.586,61.723 19.792,19.824 34.888,42.368 45.232,67.664 10.36,25.296 15.545,52.113 15.545,80.457 0,58.833 -19.952,107.745 -59.873,146.754 -20.736,20.112 -43.953,35.49 -69.705,46.17 -25.784,10.672 -52.361,15.992 -79.785,15.992 -27.736,0 -54.258,-5.255 -79.547,-15.768 -25.312,-10.528 -48.009,-25.752 -68.121,-45.721 -20.12,-19.96 -35.576,-42.666 -46.4,-68.131 -10.832,-25.432 -16.232,-51.872 -16.232,-79.305 0,-27.736 5.4,-54.329 16.232,-79.777 10.816,-25.448 26.28,-48.376 46.4,-68.801 39.929,-40.833 89.155,-61.258 147.668,-61.258 z M 1455.772,592 c -35.356,0 -65.367,12.339 -90.055,37.031 C 1340.577,654.631 1328,684.956 1328,720 c 0,35.048 12.577,65.135 37.717,90.279 25.444,25.144 55.459,37.721 90.055,37.721 35.196,0 65.744,-12.724 91.648,-38.176 C 1571.804,785.904 1584,755.964 1584,720 c 0,-35.808 -12.428,-66.133 -37.26,-90.973 C 1522.052,604.339 1491.724,592 1455.772,592 Z m 351.996,0 c -35.352,0 -65.367,12.343 -90.051,37.027 C 1692.577,654.627 1680,684.952 1680,720 c 0,34.9 12.577,64.913 37.717,90.061 25.292,25.292 55.307,37.939 90.051,37.939 35.196,0 65.752,-12.72 91.652,-38.168 C 1923.808,785.904 1936,755.968 1936,720 c 0,-35.964 -12.428,-66.289 -37.26,-90.977 C 1874.052,604.339 1843.728,592 1807.768,592 Z m 0.461,22.855 c 29.096,0 53.791,10.285 74.059,30.857 20.416,20.12 30.625,44.879 30.625,74.291 0,9.296 -1.065,18.436 -3.205,27.428 l -65.588,-29.256 -20.574,-9.141 -11.201,-5.027 -16.229,-7.32 c -0.76,-1.068 -1.139,-2.131 -1.139,-3.199 0,-3.656 1.563,-6.247 4.688,-7.771 3.12,-1.52 6.659,-2.285 10.623,-2.285 7.468,0 14.773,2.513 21.945,7.541 l 16.688,-17.145 c -9.6,-7.312 -20.264,-11.273 -32,-11.885 l 0,-19.66 -14.859,0 0,19.66 c -7.928,0.46 -14.865,2.708 -20.801,6.744 -5.948,4.036 -9.983,9.409 -12.115,16.113 l -48.916,-21.941 c 4.416,-6.404 9.14,-12.114 14.172,-17.146 20.116,-20.572 44.724,-30.857 73.828,-30.857 z m -352,0.232 c 28.952,0 53.639,10.209 74.055,30.625 20.412,20.424 30.625,45.179 30.625,74.283 0,29.564 -10.056,54.019 -30.172,73.371 -21.18,20.884 -46.024,31.313 -74.516,31.313 -28.648,0 -53.333,-10.356 -74.057,-31.084 -20.72,-20.712 -31.08,-45.248 -31.08,-73.592 0,-28.188 10.436,-52.951 31.316,-74.287 20.116,-20.416 44.724,-30.629 73.828,-30.629 z M 1456,637.26 c -11.892,0 -17.832,6.025 -17.832,18.057 0,11.884 5.948,17.828 17.832,17.828 11.884,0 17.828,-5.944 17.828,-17.828 0,-12.04 -5.936,-18.057 -17.828,-18.057 z m -646.869,3.223 c -21.648,0 -39.552,7.168 -53.721,21.488 -14.168,14.328 -21.256,33.672 -21.256,58.057 0,24.984 7.007,44.49 21.023,58.506 14.016,14.032 32.464,21.031 55.32,21.031 14.328,0 27.442,-3.576 39.314,-10.744 11.888,-7.16 21.183,-16.984 27.887,-29.488 l -31.535,-16 c -6.104,14.624 -16.616,21.945 -31.553,21.945 -11.28,0 -19.817,-4.121 -25.609,-12.354 -5.784,-8.232 -8.68,-19.192 -8.68,-32.904 0,-30.176 11.441,-45.256 34.289,-45.256 4.576,0 9.527,1.528 14.863,4.568 5.328,3.048 9.816,8.392 13.48,16 L 877.252,677.5 c -13.72,-24.688 -36.417,-37.034 -68.121,-37.018 z m 148.115,0 c -21.64,0 -39.545,7.168 -53.705,21.488 -14.184,14.328 -21.266,33.672 -21.266,58.057 0,24.984 6.928,44.49 20.816,58.506 13.856,14.032 32.361,21.031 55.529,21.031 14.016,0 26.969,-3.576 38.857,-10.744 11.872,-7.16 21.328,-16.984 28.328,-29.488 l -32,-16 c -6.088,14.624 -16.609,21.945 -31.529,21.945 -11.296,0 -19.825,-4.121 -25.609,-12.354 -5.784,-8.232 -8.688,-19.192 -8.688,-32.904 0,-30.176 11.441,-45.256 34.297,-45.256 4.856,0 9.968,1.528 15.313,4.568 5.328,3.048 9.832,8.392 13.488,16 L 1024.91,677.5 c -13.4,-24.688 -35.968,-37.034 -67.664,-37.018 z M 1429.717,680 c -2.28,0 -4.224,0.804 -5.828,2.4 -1.596,1.6 -2.397,3.54 -2.397,5.828 l 0,52.344 14.623,0 0,62.164 39.777,0 0,-62.168 14.623,0 0,-52.34 c 0,-2.284 -0.844,-4.228 -2.512,-5.828 -1.672,-1.6 -3.579,-2.4 -5.711,-2.4 l -52.576,0 z m 279.084,5.488 65.371,29.244 20.344,8.916 15.084,6.859 12.34,5.26 c 2.284,1.98 3.432,4.567 3.432,7.771 0,4.58 -1.567,7.852 -4.688,9.828 -3.128,1.988 -6.904,2.973 -11.32,2.973 -10.668,0 -20.194,-3.884 -28.57,-11.652 l -17.602,17.828 c 11.728,10.06 24.685,15.165 38.857,15.309 l 0,19.66 14.855,0 0,-19.66 c 8.836,-0.756 16.489,-3.697 22.977,-8.801 6.472,-5.1 10.543,-11.688 12.227,-19.768 l 48.225,21.484 c -4.264,7.78 -10.124,15.248 -17.592,22.408 -20.884,20.884 -45.715,31.316 -74.519,31.316 -28.492,0 -53.181,-10.285 -74.057,-30.861 -20.72,-20.72 -31.08,-45.256 -31.08,-73.6 0,-12.496 1.909,-24.004 5.717,-34.516 z"
    style="fill:#ffffff"/>
</svg>
