<svg xmlns="http://www.w3.org/2000/svg" width="640" height="360" viewBox="0 0 640 360"><path fill="#2a372f" d="M-16-16h672v392H-16z"/><path d="M367.98 147.97c-8.84 0-16.35 3.09-22.52 9.26-6.29 6.4-9.43 13.98-9.43 22.74 0 8.73 3.14 16.23 9.43 22.52 6.33 6.32 13.83 9.48 22.52 9.48 8.8 0 16.44-3.18 22.91-9.54 6.09-5.98 9.14-13.47 9.14-22.46s-3.1-16.57-9.31-22.74c-6.17-6.17-13.75-9.26-22.74-9.26zm-96.07.1c-8.83 0-16.34 3.09-22.51 9.26-6.29 6.4-9.43 13.98-9.43 22.74 0 8.76 3.14 16.28 9.43 22.57 6.36 6.29 13.86 9.43 22.51 9.43 8.8 0 16.44-3.18 22.92-9.54 6.09-5.98 9.14-13.47 9.14-22.46 0-8.95-3.1-16.53-9.31-22.74-6.17-6.17-13.76-9.26-22.75-9.26zm96.18 5.66c7.27 0 13.44 2.57 18.51 7.71 5.11 5.03 7.66 11.22 7.66 18.57 0 2.33-.27 4.61-.8 6.86l-16.4-7.31-5.14-2.29-2.8-1.26-4.06-1.83c-.19-.27-.28-.53-.28-.8 0-.91.38-1.56 1.14-1.94.8-.38 1.69-.57 2.68-.57 1.87 0 3.7.63 5.49 1.89l4.17-4.29c-2.4-1.83-5.07-2.82-8-2.97v-4.92h-3.71v4.92c-1.98.11-3.71.68-5.2 1.71-1.49.99-2.5 2.33-3.03 4l-12.23-5.48c1.11-1.6 2.29-3.03 3.54-4.29 5.03-5.14 11.19-7.71 18.46-7.71zm-96.06.11c7.23 0 13.4 2.55 18.51 7.66 5.11 5.11 7.66 11.3 7.66 18.57 0 7.39-2.51 13.51-7.54 18.34-5.3 5.22-11.51 7.83-18.63 7.83-7.17 0-13.34-2.59-18.52-7.77s-7.77-11.31-7.77-18.4c0-7.05 2.61-13.24 7.83-18.57 5.03-5.11 11.18-7.66 18.46-7.66zm-.1 5.54c-2.97 0-4.46 1.51-4.46 4.52 0 2.97 1.49 4.46 4.46 4.46 2.97 0 4.46-1.49 4.46-4.46 0-3.01-1.49-4.52-4.46-4.52zm-6.57 10.69c-.57 0-1.07.21-1.49.63-.38.38-.57.86-.57 1.43v13.08h3.66v15.55h9.94v-15.55h3.66v-13.08c0-.57-.21-1.05-.63-1.43-.42-.42-.9-.63-1.43-.63h-13.14zm77.83 1.31l16.35 7.32 5.08 2.23 3.77 1.71 3.09 1.32c.57.49.86 1.14.86 1.94 0 1.14-.4 1.96-1.2 2.46-.77.49-1.7.74-2.8.74-2.67 0-5.05-.97-7.15-2.92l-4.4 4.46c2.93 2.49 6.17 3.76 9.72 3.83v4.91h3.71v-4.91c2.21-.19 4.12-.92 5.72-2.17 1.63-1.29 2.66-2.95 3.08-4.97l12.06 5.37c-1.07 1.94-2.53 3.81-4.4 5.6-5.22 5.22-11.43 7.83-18.63 7.83-7.13 0-13.3-2.57-18.51-7.72-5.19-5.18-7.78-11.31-7.78-18.4 0-3.12.48-6 1.43-8.63z" fill="#fafaf5"/></svg>