<svg xmlns="http://www.w3.org/2000/svg" width="640" height="360" viewBox="0 0 640 360"><path fill="#17222c" d="M-16-16h672v392H-16z"/><path d="M402.27 250.48c-6 0-8.92 6.36-8.92 13.72 0 7.4 2.4 13.88 8.52 13.88 5.12 0 8.72-4.12 8.72-14.28 0-6.16-1.84-13.32-8.32-13.32zm-28.22.32v26.96h5.24v-11.28h5.48v11.28h5.24V250.8h-5.24v10.8h-5.48v-10.8h-5.24zm38.04 0l4.6 26.96h5.2l1.8-8.8c.56-2.64 1-5.64 1.48-8.88h.1c.36 3.28.76 6.36 1.2 8.84l1.6 8.84h5.4l4.76-26.96h-5.12l-1.32 10.68c-.36 3.12-.68 6-1.04 9.52h-.1c-.32-3.52-.8-6.52-1.28-9.56l-1.8-10.64h-4.24l-1.92 10.72c-.56 3.24-1.16 6.16-1.52 9.48h-.12c-.32-3.28-.56-6.36-.92-9.44l-1.32-10.76h-5.44zm35.32 0v26.96h5.24V250.8h-5.24zm-45.38 4.24c2.4 0 3.12 4.28 3.12 9 0 5.48-.84 9.48-3.08 9.48-2.12 0-3.28-3.12-3.28-9.24 0-5.8 1.16-9.24 3.24-9.24zm74.77 45.52c-5.6 0-8.48 3.6-8.48 7.92 0 2.44 1.4 5.28 5.08 7.52 2.28 1.48 3.48 2.44 3.48 4.4 0 1.76-1.24 3.04-3.68 3.04-1.48 0-3.36-.44-4.44-1.04l-.76 4.52c.92.52 3 1.08 5.16 1.08 5.24 0 8.88-3.24 8.88-8.16 0-2.84-1.28-5.56-4.88-7.72-2.88-1.76-3.68-2.6-3.68-4.2 0-1.44 1.08-2.8 3.32-2.8 1.48 0 2.64.44 3.4.92l.84-4.52c-.76-.48-2.44-.96-4.24-.96zm83.9 0c-5.6 0-8.48 3.6-8.48 7.92 0 2.44 1.4 5.28 5.08 7.52 2.28 1.48 3.48 2.44 3.48 4.4 0 1.76-1.24 3.04-3.68 3.04-1.48 0-3.36-.44-4.44-1.04l-.76 4.52c.92.52 3 1.08 5.16 1.08 5.24 0 8.88-3.24 8.88-8.16 0-2.84-1.28-5.56-4.88-7.72-2.88-1.76-3.68-2.6-3.68-4.2 0-1.44 1.08-2.8 3.32-2.8 1.48 0 2.64.44 3.4.92l.84-4.52c-.76-.48-2.44-.96-4.24-.96zm-20.77.12c-2.24 0-4.36.16-5.96.52v26.44c1.2.2 2.88.32 4.88.32 4.52 0 7.24-.96 8.84-2.72 1.28-1.32 2-3.08 2-5.28 0-3-1.64-5.56-4.76-6.44v-.16c2.64-1.16 3.88-3.48 3.88-5.88 0-1.88-.6-3.68-2.04-4.88-1.88-1.6-4.32-1.92-6.84-1.92zm-118.66.12v4.84h4.76v22.12h5.24v-22.12h4.8v-4.84h-14.8zm17.54 0v26.96h5.24v-11.28h5.48v11.28h5.24V300.8h-5.24v10.8h-5.48v-10.8h-5.24zm20.63 0v26.96h5.24V300.8h-5.24zm29.76 0l4.6 26.96h5.2l1.8-8.8c.56-2.64 1-5.64 1.48-8.88h.1c.36 3.28.76 6.36 1.2 8.84l1.6 8.84h5.4l4.76-26.96h-5.12l-1.32 10.68c-.36 3.12-.68 6-1.04 9.52h-.1c-.32-3.52-.8-6.52-1.28-9.56l-1.8-10.64h-4.24l-1.92 10.72c-.56 3.24-1.16 6.16-1.52 9.48h-.12c-.32-3.28-.56-6.36-.92-9.44l-1.32-10.76h-5.44zm28.99 0v26.96h12.16v-4.56h-6.92v-7.28h6.12v-4.36h-6.12v-6.2h6.48v-4.56h-11.72zm50.86 0v26.96h5.24V300.8h-5.24zm8.08 0v4.84h4.76v22.12h5.24v-22.12h4.8v-4.84h-14.8zm17.54 0v26.96h12.16v-4.56h-6.92v-7.28h6.12v-4.36h-6.12v-6.2h6.48v-4.56h-11.72zm-54.06 3.8c2.12 0 3.04 1.52 3.04 3.48 0 2.2-1.44 3.8-3.32 3.8h-1.12v-7.12c.32-.12.8-.16 1.4-.16zm-1.4 11.16h1.12c2.08 0 3.92 1.4 3.92 4.12s-1.72 4.04-3.88 4.04c-.44 0-.84 0-1.16-.1v-8.06z" fill="#4179ac"/><path d="M570.15 250.64c-2 0-4 .2-5.48.52V277.76h5.24v-10.04h1.04c2.2 0 4.88-.8 6.56-2.6 1.4-1.48 2.28-3.56 2.28-6.48 0-2.28-.72-4.52-2.32-5.92-1.72-1.64-4.2-2.08-7.32-2.08zm-56.95.02c-2 0-4.08.2-5.72.52v26.58h5.24V267h.8c1.72 0 2.56.96 3.04 4.28.4 3 1 5.72 1.36 6.48h5.48c-.48-1-1.2-4.32-1.72-7.32-.52-2.92-1.44-4.6-3.28-5.36v-.1c2.72-1.24 4.16-3.84 4.16-6.72 0-2.32-.52-4.12-2.16-5.6-1.72-1.56-4.32-2-7.2-2zm-48.62.14l-1.92 26.96h4.48l.48-9.36c.12-2.68.32-6.08.4-9h.1c.44 2.92 1.16 6.28 1.68 8.44l2.24 9.48h3.68l2.36-9.64c.52-2.08 1.24-5.4 1.72-8.28h.1c0 2.88.12 6.36.28 8.92l.48 9.44h4.64l-1.64-26.96h-5.52l-2.16 9.76c-.68 3.4-1.28 6.44-1.68 9.44h-.12c-.48-3.04-1.16-6.04-1.88-9.44l-2.16-9.76h-5.56zm28.38 0l-5.84 26.96h5.08l1.2-6.16h4.84l1.16 6.16h5.08l-5.24-26.96h-6.28zm33.35 0v26.96h5.24v-8.96l1.2-2.2 3.92 11.16h5.76l-6.16-15.24 6.08-11.72h-5.8l-3.6 8.64c-.44 1.16-.84 2.36-1.28 3.48h-.12V250.8h-5.24zm18.2 0v16.64c0 6.76 2.2 10.64 7.84 10.64 5.16 0 7.8-3.76 7.8-10.68v-16.6h-5.24v17.52c0 4.08-1.08 5.16-2.6 5.16-1.4 0-2.56-1.2-2.56-5.16V250.8h-5.24zM514 254.76c2.32.1 3.24 1.68 3.24 4 0 2.36-1.28 4.2-3.56 4.2h-.96v-8.04c.28-.12.8-.16 1.28-.16zm57.19.16c2.44 0 3.4 1.84 3.4 4.2 0 2.52-1.16 4.4-3.8 4.4h-.88V255.12c.32-.12.8-.2 1.28-.2zm-75.31.84h.12c.24 1.76.6 4.48.88 6.12l.88 5.64h-3.84l1-5.64c.28-1.56.68-4.32.96-6.12zm-151.11 44.8c-5.6 0-8.48 3.6-8.48 7.92 0 2.44 1.4 5.28 5.08 7.52 2.28 1.48 3.48 2.44 3.48 4.4 0 1.76-1.24 3.04-3.68 3.04-1.48 0-3.36-.44-4.44-1.04l-.76 4.52c.92.52 3 1.08 5.16 1.08 5.24 0 8.88-3.24 8.88-8.16 0-2.84-1.28-5.56-4.88-7.72-2.88-1.76-3.68-2.6-3.68-4.2 0-1.44 1.08-2.8 3.32-2.8 1.48 0 2.64.44 3.4.92l.84-4.52c-.76-.48-2.44-.96-4.24-.96zm6.5.24v4.84h4.76v22.12h5.24v-22.12h4.8v-4.84h-14.8zm15.93 0l5.92 16.64v10.32h5.26v-10.52l6.04-16.44h-5.44l-1.6 6.32c-.48 1.92-.92 3.88-1.24 5.84h-.1c-.4-2-.92-4-1.44-5.72l-1.8-6.44h-5.6zm19.03 0v26.96h12.12v-4.44h-6.88V300.8h-5.24zm15.24 0v26.96h12.16v-4.56h-6.92v-7.28h6.12v-4.36h-6.12v-6.2h6.48v-4.56h-11.72z" fill="#66a0cf"/><path d="M608 277.76c-1.56-1.96-2.88-3.72-3.76-4.84 1.8-2.16 3.04-5.84 3.36-9.52h-4.44c-.1 2.04-.28 4.56-1.2 6.32-1.04-1.32-2.8-3.96-3.96-5.72v-.16c3.88-2.68 4.64-4.88 4.64-7.32 0-3.64-2.48-6.04-5.92-6.04-4.2 0-6.76 3.04-6.76 6.72 0 1.88.56 3.92 2 5.84v.12c-2.68 1.68-4.24 4.12-4.24 7.36 0 4.2 2.76 7.56 7.44 7.56 2.28 0 4.4-.8 5.84-2.08.52.76.88 1.2 1.28 1.76H608zm-11.88-3.56c-2.2 0-3.6-2-3.6-4.32 0-1.68.76-2.92 1.52-3.72 1.52 2.24 3.48 5 4.88 6.76-.68.8-1.56 1.28-2.8 1.28zm.36-20.24c1.44 0 1.76 1.56 1.76 2.8 0 1.56-.64 2.92-2.32 4.24-.92-1.32-1.32-2.48-1.32-4 0-1.68.68-3.04 1.88-3.04z" fill="#f9f9f9"/></svg>