<svg xmlns="http://www.w3.org/2000/svg" width="640" height="360" viewBox="0 0 640 360"><path fill="#afab97" d="M-16-16h672v392H-16z"/><path d="M346.42 169.19v21.3h1.44v-8.79c0-.6 0-.99.18-1.44.63-1.77 2.31-3.24 4.35-3.24 2.94 0 3.96 2.34 3.96 4.95v8.52h1.44v-8.68c0-5.37-3.66-6.06-5.01-6.06-1.08 0-2.07.31-2.91.84-.84.48-1.53 1.26-1.95 2.07h-.1v-9.48zm-111.88 1.08v20.22h1.44v-20.23zm12.88 0v20.22h1.44v-8.37l2.07-2.28 7.68 10.65h1.71l-8.4-11.64 7.68-8.58h-1.74l-7.17 8.13c-.54.63-1.14 1.32-1.74 2.1h-.1v-10.23zm72.41 0l5.34 20.22h1.35l3.45-11.64c.9-2.98 1.47-4.98 1.8-6.84h.1c.27 1.89.75 3.87 1.56 6.84l3.03 11.64h1.38l6.06-20.23h-1.47l-3.33 11.37c-.72 2.58-1.38 4.77-1.83 6.96h-.1c-.33-2.04-.99-4.56-1.65-7.02l-3-11.31h-1.38l-3.3 11.4c-.81 2.64-1.53 5.04-1.86 6.93h-.1c-.39-1.89-1.02-4.32-1.68-6.93l-2.94-11.4zm68.55 0l6.42 11.46v8.76h1.44v-8.74l6.81-11.49h-1.59l-3.45 6c-.9 1.62-1.74 3.03-2.34 4.38h-.1c-.72-1.44-1.44-2.76-2.31-4.35l-3.33-6.03zm50.8 0l5.34 20.22h1.35l3.45-11.64c.9-2.98 1.47-4.98 1.8-6.84h.1c.27 1.89.75 3.87 1.56 6.84l3.03 11.64h1.38l6.06-20.23h-1.47l-3.33 11.37c-.72 2.58-1.38 4.77-1.83 6.96h-.1c-.33-2.04-.99-4.56-1.65-7.02l-3-11.31h-1.38l-3.3 11.4c-.81 2.64-1.53 5.04-1.86 6.93h-.1c-.39-1.89-1.02-4.32-1.68-6.93l-2.94-11.4zm102.85 0v20.22h1.44v-8.37l2.07-2.28 7.68 10.65h1.71l-8.4-11.64 7.68-8.58h-1.74l-7.17 8.13c-.54.63-1.14 1.32-1.74 2.1h-.1v-10.23zm-163.95 2.64l-1.44.54v2.64h-2.43v1.17h2.43v9.09c0 1.47.24 2.7.9 3.45.54.69 1.41 1.01 2.46 1.01.87 0 1.53-.14 2.01-.36l-.18-1.08c-.36.13-.9.21-1.65.21-1.53 0-2.14-1.14-2.1-2.97v-9.36h4.11v-1.17h-4.11zm118.54 0l-1.44.54v2.64h-2.43v1.17h2.43v9.09c0 1.47.24 2.7.9 3.45.54.69 1.41 1.01 2.46 1.01.87 0 1.53-.14 2.01-.36l-.18-1.08c-.36.13-.9.21-1.65.21-1.53 0-2.1-1.14-2.1-2.97v-9.36h4.11v-1.17h-4.11zm15.82 0l-1.44.54v2.64h-2.43v1.17H511v9.09c0 1.47.24 2.7.9 3.45.54.69 1.41 1.01 2.46 1.01.87 0 1.53-.14 2.01-.36l-.18-1.08c-.36.13-.9.21-1.65.21-1.53 0-2.1-1.14-2.1-2.97v-9.36h4.11v-1.17h-4.11zm-243.27 2.85c-2.34 0-4.17 1.32-4.95 2.94h-.1l-.1-2.61h-1.35c.1 1.14.12 2.13.12 3.45v10.95h1.44v-8.92c0-.45.1-.93.18-1.29.57-1.86 2.31-3.3 4.32-3.3 2.97 0 3.99 2.37 3.99 4.98v8.52h1.44v-8.64c0-5.4-3.66-6.09-5.04-6.09zm15.34 0c-3.57 0-6.81 2.73-6.81 7.65 0 4.5 2.88 7.41 6.6 7.41 3.21 0 6.9-2.31 6.9-7.68 0-4.38-2.7-7.38-6.69-7.38zm81.99 0c-1.29 0-2.91.36-4.23 1.23l.45 1.05c1.05-.75 2.37-1.08 3.63-1.08 3.42 0 3.69 2.82 3.69 4.23v.39c-5.88-.1-8.79 1.95-8.79 5.28 0 1.92 1.32 3.96 4.23 3.96 2.31 0 3.9-1.29 4.62-2.4h.1l.21 2.07h1.32c-.18-1.11-.21-2.28-.21-3.42v-5.64c0-2.55-.81-5.67-4.98-5.67zm42.93 0c-3.57 0-6.81 2.73-6.81 7.65 0 4.5 2.88 7.41 6.6 7.41 3.21 0 6.9-2.31 6.9-7.68 0-4.38-2.7-7.38-6.69-7.38zm59.55 0c-1.29 0-2.91.36-4.23 1.23l.45 1.05c1.05-.75 2.37-1.08 3.63-1.08 3.42 0 3.69 2.82 3.69 4.23v.39c-5.88-.1-8.79 1.95-8.79 5.28 0 1.92 1.32 3.96 4.23 3.96 2.31 0 3.9-1.29 4.62-2.4h.1l.21 2.07h1.32c-.18-1.11-.21-2.28-.21-3.42v-5.64c0-2.55-.81-5.67-4.98-5.67zm15.93 0c-2.34 0-4.17 1.32-4.95 2.94h-.1l-.1-2.61h-1.35c.1 1.14.12 2.13.12 3.45v10.95h1.54v-8.92c0-.45.1-.93.18-1.29.57-1.86 2.31-3.3 4.32-3.3 2.97 0 3.99 2.37 3.99 4.98v8.52H490v-8.64c0-5.4-3.66-6.09-5.04-6.09zm40.24 0c-3.57 0-6.81 2.73-6.81 7.65 0 4.5 2.88 7.41 6.6 7.41 3.21 0 6.9-2.31 6.9-7.68 0-4.38-2.7-7.38-6.69-7.38zm38.63 0c-2.34 0-4.17 1.32-4.95 2.94h-.1l-.1-2.61h-1.35c.1 1.14.12 2.13.12 3.45v10.95h1.54v-8.92c0-.45.1-.93.18-1.29.57-1.86 2.31-3.3 4.32-3.3 2.97 0 3.99 2.37 3.99 4.98v8.52h1.44v-8.64c0-5.4-3.66-6.09-5.04-6.09zm15.34 0c-3.57 0-6.81 2.73-6.81 7.65 0 4.5 2.88 7.41 6.6 7.41 3.21 0 6.9-2.31 6.9-7.68 0-4.38-2.7-7.38-6.69-7.38zm-286.2.33l4.44 14.4h1.26l2.85-7.99c.6-1.64 1.14-3.26 1.56-4.94h.1c.39 1.62.9 3.19 1.5 4.92l2.73 8.01h1.23l4.8-14.4h-1.47l-2.55 8.16c-.57 1.74-1.02 3.18-1.32 4.53h-.1c-.36-1.35-.81-2.82-1.41-4.56l-2.76-8.13h-1.35l-2.88 8.19c-.57 1.65-1.08 3.18-1.44 4.5h-.1c-.33-1.38-.75-2.82-1.23-4.5l-2.43-8.19zm126.72 0v8.37c0 5.43 3.09 6.36 4.92 6.36 2.55 0 4.2-1.56 4.92-2.91h.1l.1 2.59h1.35c-.1-1.13-.15-2.25-.12-3.51V176.1h-1.54v8.97c0 .57-.12 1.14-.27 1.59-.63 1.44-2.16 2.91-4.26 2.91-2.85 0-3.81-2.25-3.81-5.37v-8.1zm167.89 0l4.44 14.4h1.26l2.85-7.99c.6-1.64 1.14-3.26 1.56-4.94h.1c.39 1.62.9 3.19 1.5 4.92l2.73 8.01h1.23l4.8-14.4h-1.47l-2.55 8.16c-.57 1.74-1.02 3.18-1.32 4.53h-.1c-.36-1.35-.81-2.82-1.41-4.56l-2.76-8.13h-1.35l-2.88 8.19c-.57 1.65-1.08 3.18-1.44 4.5h-.1c-.33-1.38-.75-2.82-1.23-4.5l-2.43-8.19zm-303.02.87c3.81 0 5.28 3.63 5.28 6.27 0 3.69-2.37 6.39-5.37 6.39-2.94 0-5.25-2.7-5.25-6.31 0-3.08 1.65-6.36 5.34-6.36zm124.92 0c3.81 0 5.28 3.63 5.28 6.27 0 3.69-2.37 6.39-5.37 6.39-2.94 0-5.25-2.7-5.25-6.31 0-3.08 1.65-6.36 5.34-6.36zm115.72 0c3.81 0 5.28 3.63 5.28 6.27 0 3.69-2.37 6.39-5.37 6.39-2.94 0-5.25-2.7-5.25-6.31 0-3.08 1.65-6.36 5.34-6.36zm53.97 0c3.81 0 5.28 3.63 5.28 6.27 0 3.69-2.37 6.39-5.37 6.39-2.94 0-5.25-2.7-5.25-6.31 0-3.08 1.65-6.36 5.34-6.36zm-210.3 5.82h1.22v3.09c0 .24 0 .56-.15.87-.48 1.41-1.86 2.88-4.26 2.88-1.5 0-2.88-.94-2.88-3 0-3.02 3.17-3.76 6.07-3.84zm102.48 0h1.22v3.09c0 .24 0 .56-.15.87-.48 1.41-1.86 2.88-4.26 2.88-1.5 0-2.88-.94-2.88-3 0-3.02 3.17-3.76 6.07-3.84z" fill="#d4d9b8"/></svg>