<?xml version="1.0" encoding="UTF-8" standalone="no"?>
<svg
  xmlns="http://www.w3.org/2000/svg"
  version="1.1"
  width="640"
  height="360"
  viewBox="0 0 640 360">
  <rect
    width="672"
    height="392"
    x="-16"
    y="-16"
    style="fill:#afab97"/>
  <path
    d="m 346.42,169.19 0,21.3 0,0 1.44,0 0,-8.79 c 0,-0.6 0,-0.99 0.18,-1.44 0.63,-1.77 2.31,-3.24 4.35,-3.24 2.94,0 3.96,2.34 3.96,4.95 l 0,8.52 1.44,0 0,-8.68 c 0,-5.37 -3.66,-6.06 -5.01,-6.06 -1.08,0 -2.07,0.31 -2.91,0.84 -0.84,0.48 -1.53,1.26 -1.95,2.07 l -0.1,0 0,-9.48 z m -111.88,1.08 0,20.22 1.44,0 0,-20.23 z m 12.88,0 0,20.22 0,0 1.44,0 0,-8.37 2.07,-2.28 7.68,10.65 1.71,0 -8.4,-11.64 7.68,-8.58 -1.74,0 -7.17,8.13 c -0.54,0.63 -1.14,1.32 -1.74,2.1 l -0.1,0 0,-10.23 z m 72.41,0 5.34,20.22 1.35,0 0,0 3.45,-11.64 c 0.9,-2.98 1.47,-4.98 1.8,-6.84 l 0.1,0 c 0.27,1.89 0.75,3.87 1.56,6.84 l 3.03,11.64 1.38,0 6.06,-20.23 -1.47,0 -3.33,11.37 c -0.72,2.58 -1.38,4.77 -1.83,6.96 l -0.1,0 c -0.33,-2.04 -0.99,-4.56 -1.65,-7.02 l -3,-11.31 -1.38,0 -3.3,11.4 c -0.81,2.64 -1.53,5.04 -1.86,6.93 l -0.1,0 c -0.39,-1.89 -1.02,-4.32 -1.68,-6.93 l -2.94,-11.4 z m 68.55,0 6.42,11.46 0,8.76 1.44,0 0,0 0,-8.74 6.81,-11.49 -1.59,0 -3.45,6 c -0.9,1.62 -1.74,3.03 -2.34,4.38 l -0.1,0 c -0.72,-1.44 -1.44,-2.76 -2.31,-4.35 l -3.33,-6.03 z m 50.8,0 5.34,20.22 1.35,0 0,0 3.45,-11.64 c 0.9,-2.98 1.47,-4.98 1.8,-6.84 l 0.1,0 c 0.27,1.89 0.75,3.87 1.56,6.84 l 3.03,11.64 1.38,0 6.06,-20.23 -1.47,0 -3.33,11.37 c -0.72,2.58 -1.38,4.77 -1.83,6.96 l -0.1,0 c -0.33,-2.04 -0.99,-4.56 -1.65,-7.02 l -3,-11.31 -1.38,0 -3.3,11.4 c -0.81,2.64 -1.53,5.04 -1.86,6.93 l -0.1,0 c -0.39,-1.89 -1.02,-4.32 -1.68,-6.93 l -2.94,-11.4 z m 102.85,0 0,20.22 0,0 1.44,0 0,-8.37 2.07,-2.28 7.68,10.65 1.71,0 -8.4,-11.64 7.68,-8.58 -1.74,0 -7.17,8.13 c -0.54,0.63 -1.14,1.32 -1.74,2.1 l -0.1,0 0,-10.23 z m -163.95,2.64 -1.44,0.54 0,2.64 -2.43,0 0,1.17 2.43,0 0,9.09 c 0,1.47 0.24,2.7 0.9,3.45 0.54,0.69 1.41,1.01 2.46,1.01 0.87,0 1.53,-0.14 2.01,-0.36 l -0.18,-1.08 c -0.36,0.13 -0.9,0.21 -1.65,0.21 -1.53,0 -2.14,-1.14 -2.1,-2.97 l 0,-9.36 4.11,0 0,-1.17 -4.11,0 z m 118.54,0 -1.44,0.54 0,2.64 -2.43,0 0,1.17 2.43,0 0,9.09 c 0,1.47 0.24,2.7 0.9,3.45 0.54,0.69 1.41,1.01 2.46,1.01 0.87,0 1.53,-0.14 2.01,-0.36 l -0.18,-1.08 c -0.36,0.13 -0.9,0.21 -1.65,0.21 -1.53,0 -2.1,-1.14 -2.1,-2.97 l 0,-9.36 4.11,0 0,-1.17 -4.11,0 z m 15.82,0 -1.44,0.54 0,2.64 -2.43,0 0,1.17 2.43,0 0,9.09 c 0,1.47 0.24,2.7 0.9,3.45 0.54,0.69 1.41,1.01 2.46,1.01 0.87,0 1.53,-0.14 2.01,-0.36 l -0.18,-1.08 c -0.36,0.13 -0.9,0.21 -1.65,0.21 -1.53,0 -2.1,-1.14 -2.1,-2.97 l 0,-9.36 4.11,0 0,-1.17 -4.11,0 z m -243.27,2.85 c -2.34,0 -4.17,1.32 -4.95,2.94 l -0.1,0 -0.1,-2.61 -1.35,0 c 0.1,1.14 0.12,2.13 0.12,3.45 l 0,10.95 0,0 1.44,0 0,-8.92 c 0,-0.45 0.1,-0.93 0.18,-1.29 0.57,-1.86 2.31,-3.3 4.32,-3.3 2.97,0 3.99,2.37 3.99,4.98 l 0,8.52 1.44,0 0,-8.64 c 0,-5.4 -3.66,-6.09 -5.04,-6.09 z m 15.34,0 c -3.57,0 -6.81,2.73 -6.81,7.65 0,4.5 2.88,7.41 6.6,7.41 3.21,0 6.9,-2.31 6.9,-7.68 0,-4.38 -2.7,-7.38 -6.69,-7.38 z m 81.99,0 c -1.29,0 -2.91,0.36 -4.23,1.23 l 0.45,1.05 c 1.05,-0.75 2.37,-1.08 3.63,-1.08 3.42,0 3.69,2.82 3.69,4.23 l 0,0.39 c -5.88,-0.1 -8.79,1.95 -8.79,5.28 0,1.92 1.32,3.96 4.23,3.96 2.31,0 3.9,-1.29 4.62,-2.4 l 0.1,0 0.21,2.07 1.32,0 c -0.18,-1.11 -0.21,-2.28 -0.21,-3.42 l 0,-5.64 0,0 c 0,-2.55 -0.81,-5.67 -4.98,-5.67 z m 42.93,0 c -3.57,0 -6.81,2.73 -6.81,7.65 0,4.5 2.88,7.41 6.6,7.41 3.21,0 6.9,-2.31 6.9,-7.68 0,-4.38 -2.7,-7.38 -6.69,-7.38 z m 59.55,0 c -1.29,0 -2.91,0.36 -4.23,1.23 l 0.45,1.05 c 1.05,-0.75 2.37,-1.08 3.63,-1.08 3.42,0 3.69,2.82 3.69,4.23 l 0,0.39 c -5.88,-0.1 -8.79,1.95 -8.79,5.28 0,1.92 1.32,3.96 4.23,3.96 2.31,0 3.9,-1.29 4.62,-2.4 l 0.1,0 0.21,2.07 1.32,0 c -0.18,-1.11 -0.21,-2.28 -0.21,-3.42 l 0,-5.64 0,0 c 0,-2.55 -0.81,-5.67 -4.98,-5.67 z m 15.93,0 c -2.34,0 -4.17,1.32 -4.95,2.94 l -0.1,0 -0.1,-2.61 -1.35,0 c 0.1,1.14 0.12,2.13 0.12,3.45 l 0,10.95 0.1,0 1.44,0 0,-8.92 c 0,-0.45 0.1,-0.93 0.18,-1.29 0.57,-1.86 2.31,-3.3 4.32,-3.3 2.97,0 3.99,2.37 3.99,4.98 l 0,8.52 1.44,0 0,-8.64 c 0,-5.4 -3.66,-6.09 -5.04,-6.09 z m 40.24,0 c -3.57,0 -6.81,2.73 -6.81,7.65 0,4.5 2.88,7.41 6.6,7.41 3.21,0 6.9,-2.31 6.9,-7.68 0,-4.38 -2.7,-7.38 -6.69,-7.38 z m 38.63,0 c -2.34,0 -4.17,1.32 -4.95,2.94 l -0.1,0 -0.1,-2.61 -1.35,0 c 0.1,1.14 0.12,2.13 0.12,3.45 l 0,10.95 0.1,0 1.44,0 0,-8.92 c 0,-0.45 0.1,-0.93 0.18,-1.29 0.57,-1.86 2.31,-3.3 4.32,-3.3 2.97,0 3.99,2.37 3.99,4.98 l 0,8.52 1.44,0 0,-8.64 c 0,-5.4 -3.66,-6.09 -5.04,-6.09 z m 15.34,0 c -3.57,0 -6.81,2.73 -6.81,7.65 0,4.5 2.88,7.41 6.6,7.41 3.21,0 6.9,-2.31 6.9,-7.68 0,-4.38 -2.7,-7.38 -6.69,-7.38 z m -286.2,0.33 4.44,14.4 1.26,0 2.85,-7.99 c 0.6,-1.64 1.14,-3.26 1.56,-4.94 l 0.1,0 c 0.39,1.62 0.9,3.19 1.5,4.92 l 2.73,8.01 1.23,0 4.8,-14.4 -1.47,0 -2.55,8.16 c -0.57,1.74 -1.02,3.18 -1.32,4.53 l -0.1,0 c -0.36,-1.35 -0.81,-2.82 -1.41,-4.56 l -2.76,-8.13 -1.35,0 -2.88,8.19 c -0.57,1.65 -1.08,3.18 -1.44,4.5 l -0.1,0 c -0.33,-1.38 -0.75,-2.82 -1.23,-4.5 l -2.43,-8.19 z m 126.72,0 0,8.37 c 0,5.43 3.09,6.36 4.92,6.36 2.55,0 4.2,-1.56 4.92,-2.91 l 0.1,0 0.1,2.59 1.35,0 c -0.1,-1.13 -0.15,-2.25 -0.12,-3.51 l 0,-10.89 -0.1,0 -1.44,0 0,8.97 c 0,0.57 -0.12,1.14 -0.27,1.59 -0.63,1.44 -2.16,2.91 -4.26,2.91 -2.85,0 -3.81,-2.25 -3.81,-5.37 l 0,-8.1 z m 167.89,0 4.44,14.4 1.26,0 2.85,-7.99 c 0.6,-1.64 1.14,-3.26 1.56,-4.94 l 0.1,0 c 0.39,1.62 0.9,3.19 1.5,4.92 l 2.73,8.01 1.23,0 4.8,-14.4 -1.47,0 -2.55,8.16 c -0.57,1.74 -1.02,3.18 -1.32,4.53 l -0.1,0 c -0.36,-1.35 -0.81,-2.82 -1.41,-4.56 l -2.76,-8.13 -1.35,0 -2.88,8.19 c -0.57,1.65 -1.08,3.18 -1.44,4.5 l -0.1,0 c -0.33,-1.38 -0.75,-2.82 -1.23,-4.5 l -2.43,-8.19 z m -303.02,0.87 c 3.81,0 5.28,3.63 5.28,6.27 0,3.69 -2.37,6.39 -5.37,6.39 -2.94,0 -5.25,-2.7 -5.25,-6.31 0,-3.08 1.65,-6.36 5.34,-6.36 z m 124.92,0 c 3.81,0 5.28,3.63 5.28,6.27 0,3.69 -2.37,6.39 -5.37,6.39 -2.94,0 -5.25,-2.7 -5.25,-6.31 0,-3.08 1.65,-6.36 5.34,-6.36 z m 115.72,0 c 3.81,0 5.28,3.63 5.28,6.27 0,3.69 -2.37,6.39 -5.37,6.39 -2.94,0 -5.25,-2.7 -5.25,-6.31 0,-3.08 1.65,-6.36 5.34,-6.36 z m 53.97,0 c 3.81,0 5.28,3.63 5.28,6.27 0,3.69 -2.37,6.39 -5.37,6.39 -2.94,0 -5.25,-2.7 -5.25,-6.31 0,-3.08 1.65,-6.36 5.34,-6.36 z m -210.3,5.82 c 0.42,0 0.83,0 1.22,0 l 0,3.09 c 0,0.24 0,0.56 -0.15,0.87 -0.48,1.41 -1.86,2.88 -4.26,2.88 -1.5,0 -2.88,-0.94 -2.88,-3 0,-3.02 3.17,-3.76 6.07,-3.84 z m 102.48,0 c 0.42,0 0.83,0 1.22,0 l 0,3.09 c 0,0.24 0,0.56 -0.15,0.87 -0.48,1.41 -1.86,2.88 -4.26,2.88 -1.5,0 -2.88,-0.94 -2.88,-3 0,-3.02 3.17,-3.76 6.07,-3.84 z"
    style="fill:#d4d9b8"/>
</svg>
