<?xml version="1.0" encoding="UTF-8" standalone="no"?>
<svg
  xmlns="http://www.w3.org/2000/svg"
  version="1.1"
  width="1024"
  height="1024"
  viewBox="0 0 1024 1024">
  <path
    d="m 463.99997,320 0,108.86328 -94.27734,-54.43164 -16,27.71289 142.27734,82.14453 0,-164.28906 z m 63.99805,0 0,164.28906 142.2793,-82.14453 -16,-27.71289 -94.27735,54.42969 0,-108.86133 z m -190.27539,109.85547 -16,27.71289 94.2793,54.43164 -94.27929,54.43164 16,27.71289 L 480.00192,512 C 432.5721,484.62459 385.1542,457.22692 337.72263,429.85547 Z m 348.55469,0 L 543.99802,512 686.27536,594.14453 c 5.33537,-9.23429 10.66872,-18.47535 16.002,-27.71289 C 670.8506,548.28948 639.4242,530.14411 607.99802,512 l 94.2793,-54.43164 z m -190.27735,109.85547 -142.27734,82.14453 16,27.71289 94.27734,-54.43164 0,108.86328 32,0 z m 31.99805,0 0.002,164.28906 32,0 -0.002,-108.86328 94.27929,54.43164 16,-27.71289 z"
    style="fill:#98928c"/>
</svg>
