<?xml version="1.0" encoding="UTF-8" standalone="no"?>
<svg
  xmlns="http://www.w3.org/2000/svg"
  version="1.1"
  width="384"
  height="384"
  viewBox="0 0 384 384">
  <path
    d="m 293.9414,0.00756836 c -23.08991,1e-5 -46.1732,8.75513514 -63.71338,26.29598664 -21.19993,21.287844 -42.46977,42.506639 -63.71337,63.751063 L 192,115.54097 255.71337,51.7899 c 21.40084,-21.401664 55.08915,-21.402074 76.49125,0 21.40084,21.401673 21.40124,55.0913 0,76.49424 l -76.49125,76.45903 c -21.40083,21.40168 -55.05395,21.40208 -76.45604,0 -5.23634,-5.23653 -9.11745,-11.15914 -11.75706,-17.49546 l -33.26471,13.83444 c 4.41631,10.60127 10.95264,20.56326 19.53642,29.14737 35.08132,35.0813 92.34641,35.0817 127.42674,0 l 76.49125,-76.45904 c 35.07993,-35.08269 35.08033,-92.385222 0,-127.466925 C 340.1493,8.7629035 317.0313,0.00754836 293.9414,0.00756836 Z M 166.51465,127.47449 c -23.08991,2e-5 -46.1732,8.75514 -63.71337,26.29599 l -76.491249,76.45904 c -35.079928,35.08269 -35.080337,92.38522 0,127.46692 35.081322,35.0813 92.381609,35.0817 127.461949,0 L 217.48535,293.94538 192,268.45903 128.28663,332.2101 c -21.40084,21.40167 -55.089152,21.40207 -76.49125,0 -21.400833,-21.40167 -21.401239,-55.09131 0,-76.49424 L 115.54395,192 128.28663,179.25683 c 21.40083,-21.40167 55.05395,-21.40208 76.45604,0 5.23634,5.23653 9.11745,11.15914 11.75706,17.49546 l 33.26471,-13.83444 c -4.41631,-10.60126 -10.95264,-20.56326 -19.53642,-29.14737 -17.54066,-17.54065 -40.62346,-26.296 -63.71337,-26.29599 z"
    style="fill:#cdcbc4"/>
</svg>
