<svg xmlns="http://www.w3.org/2000/svg" width="512" height="512" viewBox="0 0 512 512"><path d="M350.912 71.615c-10.38-2.221-20.216-4.034-29.507-5.439-9.292-1.405-19.4-2.13-30.323-2.176-31.819.136-54.799 7.479-68.941 22.028-14.142 14.55-21.077 35.49-20.804 62.822v39.705h-40.249v64.181h40.249v195.263h78.323v-195.263h57.11l5.439-64.181h-62.55v-31.003c-.453-8.793.861-15.682 3.943-20.669 3.082-4.986 10.651-7.524 22.708-7.615 4.816.023 10.413.386 16.793 1.088 6.379.703 12.385 1.609 18.017 2.72z" fill="#fff"/></svg>