<svg xmlns="http://www.w3.org/2000/svg" width="512" height="512" viewBox="0 0 512 512"><path d="M215.823 64c-2.447 19.8-7.007 36.247-13.52 49.063-6.502 12.828-15.063 23.82-25.822 32.962-10.74 9.157-23.655 16.06-38.733 20.962v54.38h42.38V355.95c0 17.54 1.94 31.02 5.62 40.253 3.674 9.244 10.22 17.914 19.747 26.126 3.687 3.168 7.72 6.048 12 8.657 1.813 1.106 3.7 2.185 5.62 3.19 1.506.796 3.136 1.546 4.71 2.28 1.113.512 2.194 1.035 3.34 1.518.312.132.598.325.912.455 2.568 1.054 5.168 1.988 7.9 2.886 13.485 4.427 29.09 6.684 46.632 6.684 3.81-.003 7.56-.112 11.24-.304 11.19-.583 21.92-2.073 31.9-4.405 13.288-3.108 28.095-8.526 44.505-16.252V366.43c-19.23 12.64-38.597 18.988-58.025 18.988-10.942 0-20.67-2.504-29.165-7.595-6.403-3.774-10.713-8.877-13.063-15.19-2.364-6.325-3.646-20.585-3.646-42.836v-98.43h91.14v-60.304h-91.14V64h-54.53z" fill="#fff"/></svg>