<svg xmlns="http://www.w3.org/2000/svg" width="512" height="512" viewBox="0 0 512 512"><path d="M215.823 64c-2.447 19.801-7.007 36.247-13.519 49.063-6.503 12.828-15.064 23.82-25.823 32.962-10.742 9.156-23.656 16.061-38.734 20.962v54.38h42.38v134.582c0 17.54 1.941 31.02 5.62 40.253 3.674 9.245 10.22 17.914 19.747 26.127 3.687 3.169 7.721 6.049 12 8.658 1.813 1.106 3.701 2.185 5.62 3.19 1.506.795 3.136 1.546 4.709 2.278 1.114.514 2.195 1.037 3.342 1.519l.911.456c2.568 1.053 5.168 1.987 7.899 2.886 13.486 4.426 29.091 6.684 46.633 6.684 3.811-.003 7.56-.112 11.241-.304 11.19-.583 21.921-2.073 31.899-4.405 13.289-3.109 28.096-8.528 44.506-16.253v-60.607c-19.232 12.639-38.597 18.987-58.025 18.987-10.942 0-20.67-2.504-29.165-7.595-6.403-3.774-10.713-8.876-13.063-15.19-2.364-6.325-3.646-20.585-3.646-42.835v-98.43h91.139v-60.304h-91.139v-97.063h-54.532z" fill="#fff"/></svg>