<svg xmlns="http://www.w3.org/2000/svg" width="512" height="512" viewBox="0 0 512 512"><path d="M492.255 109.456c-17.384 7.71-36.07 12.92-55.676 15.264 20.01-11.997 35.383-30.994 42.622-53.632-18.733 11.11-39.478 19.177-61.56 23.524C399.96 75.77 374.764 64 346.88 64c-53.535 0-96.942 43.402-96.942 96.938 0 7.598.857 14.997 2.51 22.092-80.566-4.042-152-42.637-199.81-101.287-8.345 14.317-13.126 30.97-13.126 48.737 0 33.633 17.114 63.305 43.127 80.688-15.89-.503-30.84-4.864-43.907-12.124-.01.404-.01.808-.01 1.22 0 46.967 33.417 86.146 77.763 95.054-8.134 2.215-16.698 3.4-25.54 3.4-6.246 0-12.318-.608-18.24-1.74 12.338 38.513 48.138 66.542 90.56 67.32C130.087 390.303 88.288 405.8 42.87 405.8c-7.825 0-15.542-.46-23.125-1.356C62.645 431.95 113.602 448 168.345 448c178.31 0 275.82-147.716 275.82-275.82 0-4.204-.096-8.383-.283-12.54 18.943-13.67 35.377-30.743 48.373-50.184" fill="#fff"/></svg>