<svg xmlns="http://www.w3.org/2000/svg" width="512" height="512" viewBox="0 0 512 512"><path d="M492.255 109.456c-17.384 7.711-36.069 12.921-55.676 15.264 20.011-11.997 35.384-30.994 42.623-53.632-18.733 11.111-39.478 19.177-61.561 23.524-17.681-18.841-42.876-30.612-70.759-30.612-53.535 0-96.942 43.402-96.942 96.938 0 7.598.857 14.997 2.51 22.092-80.567-4.042-151.999-42.637-199.81-101.287-8.345 14.317-13.126 30.971-13.126 48.737 0 33.633 17.114 63.305 43.127 80.688-15.891-.503-30.84-4.864-43.908-12.125-.009.404-.009.808-.009 1.219 0 46.968 33.416 86.147 77.762 95.055-8.133 2.215-16.698 3.401-25.539 3.401-6.247 0-12.32-.609-18.24-1.74 12.336 38.511 48.137 66.541 90.558 67.32-33.177 26.003-74.976 41.501-120.395 41.501-7.825 0-15.542-.46-23.125-1.356 42.901 27.504 93.857 43.556 148.602 43.556 178.309 0 275.819-147.716 275.819-275.821 0-4.203-.097-8.382-.283-12.54 18.943-13.67 35.377-30.742 48.373-50.183" fill="#fff"/></svg>