<svg xmlns="http://www.w3.org/2000/svg" width="512" height="512" viewBox="0 0 512 512"><path d="M448 136.906c-14.128 6.267-29.313 10.5-45.247 12.405 16.263-9.748 28.756-25.187 34.64-43.585-15.225 9.03-32.084 15.585-50.03 19.118-14.37-15.312-34.845-24.878-57.505-24.878-43.507 0-78.783 35.273-78.783 78.78 0 6.175.697 12.188 2.04 17.954-65.475-3.286-123.526-34.65-162.382-82.315-6.782 11.635-10.667 25.17-10.667 39.607 0 27.333 13.908 51.447 35.05 65.574-12.916-.41-25.064-3.953-35.685-9.853-.006.328-.006.656-.006.99 0 38.17 27.156 70.01 63.196 77.25-6.61 1.8-13.57 2.764-20.755 2.764-5.077 0-10.012-.495-14.823-1.414 10.025 31.298 39.12 54.077 73.594 54.71-26.962 21.132-60.93 33.726-97.842 33.726-6.36 0-12.63-.375-18.794-1.102 34.865 22.352 76.276 35.397 120.766 35.397 144.908 0 224.152-120.046 224.152-224.155 0-3.415-.078-6.812-.23-10.19 15.395-11.11 28.75-24.984 39.312-40.784" fill="#fff"/></svg>