<?xml version="1.0" encoding="UTF-8" standalone="no"?>
<svg
  xmlns="http://www.w3.org/2000/svg"
  version="1.1"
  width="1024"
  height="2080"
  viewbox="0 0 1024 2080">
  <path
    d="M 96,0 C 42.2793,0 0,42.2793 0,96 l 0,1888 c 0,53.7208 42.2793,96 96,96 l 832,0 c 53.7207,0 96,-42.2792 96,-96 L 1024,96 C 1024,42.2793 981.7207,0 928,0 Z m 0,2 832,0 c 52.6473,0 94,41.3527 94,94 l 0,1888 c 0,52.6472 -41.3527,94 -94,94 l -832,0 C 43.3527,2078 2,2036.6472 2,1984 L 2,96 C 2,43.3527 43.3527,2 96,2 Z"/>
  <path
    d="M 104,14 C 54.7113,14 16,54.7113 16,104 l 0,1872 c 0,49.2888 38.7113,88 88,88 l 816,0 c 49.2887,0 90,-38.7112 90,-88 l 0,-1872 c 0,-49.2887 -40.7113,-90 -90,-90 z m 0,2 816,0 c 48.2153,0 88,39.7847 88,88 l 0,1872 c 0,48.2152 -39.7847,86 -88,86 l -816,0 c -48.2153,0 -86,-37.7848 -86,-86 L 18,104 C 18,55.7847 55.7847,16 104,16 Z"/>
  <path
    d="m 512,1880 c -40.30494,0 -72,31.695 -72,72 0,40.305 31.69506,72 72,72 40.30494,0 72,-31.695 72,-72 0,-40.305 -31.69506,-72 -72,-72 z m 0,2 c 39.22406,0 70,30.776 70,70 0,39.224 -30.77594,70 -70,70 -39.22406,0 -70,-30.776 -70,-70 0,-39.224 30.77594,-70 70,-70 z"/>
  <path
    d="m 512,1888 c -35.88666,0 -64,28.1134 -64,64 0,35.8866 28.11334,64 64,64 35.88666,0 64,-28.1134 64,-64 0,-35.8866 -28.11334,-64 -64,-64 z m 0,2 c 34.80578,0 62,27.1942 62,62 0,34.8058 -27.19422,62 -62,62 -34.80578,0 -62,-27.1942 -62,-62 0,-34.8058 27.19422,-62 62,-62 z"/>
  <path
    d="m 72,224 c -4.9687,0 -8,3.0313 -8,8 l 0,1600 c 0,4.9688 3.0313,8 8,8 l 880,0 c 4.9687,0 8,-3.0312 8,-8 l 0,-1600 c 0,-4.9687 -3.0313,-8 -8,-8 z m 0,2 880,0 c 3.8953,0 6,2.1047 6,6 l 0,1600 c 0,3.8954 -2.1047,6 -6,6 l -880,0 c -3.8953,0 -6,-2.1046 -6,-6 L 66,232 c 0,-3.8953 2.1047,-6 6,-6 z"/>
  <path
    d="m 376,104 c -9.377,0 -16,6.623 -16,16 0,9.377 6.623,16 16,16 9.377,0 16,-6.623 16,-16 0,-9.377 -6.623,-16 -16,-16 z m 0,2 c 8.29612,0 14,5.70388 14,14 0,8.29612 -5.70388,14 -14,14 -8.29612,0 -14,-5.70388 -14,-14 0,-8.29612 5.70388,-14 14,-14 z"/>
  <path
    d="m 448,112 c -4.9687,0 -8,3.0313 -8,8 0,4.9687 3.0313,8 8,8 l 128,0 c 4.9687,0 8,-3.0313 8,-8 0,-4.9687 -3.0313,-8 -8,-8 z m 0,2 128,0 c 3.8953,0 6,2.1047 6,6 0,3.8953 -2.1047,6 -6,6 l -128,0 c -3.8953,0 -6,-2.1047 -6,-6 0,-3.8953 2.1047,-6 6,-6 z"/>
  <path
    d="m 512,48 c -4.95872,0 -8,3.04128 -8,8 0,4.95872 3.04128,8 8,8 4.95872,0 8,-3.04128 8,-8 0,-4.95872 -3.04128,-8 -8,-8 z m 0,2 c 3.87784,0 6,2.12216 6,6 0,3.87784 -2.12216,6 -6,6 -3.87784,0 -6,-2.12216 -6,-6 0,-3.87784 2.12216,-6 6,-6 z"/>
</svg>
