<?xml version="1.0" encoding="UTF-8" standalone="no"?>
<svg
  xmlns="http://www.w3.org/2000/svg"
  version="1.1"
  width="1536"
  height="1536"
  viewBox="0 0 1536 1536">
  <path
    d="m 720,576 0,108.86328 -94.27734,-54.43164 -16,27.71289 L 752,740.28906 752,576 Z m 63.99805,0 0,164.28906 142.27929,-82.14453 -16,-27.71289 L 816,684.86133 816,576 Z m -190.27539,109.85547 -16,27.71289 94.27929,54.43164 -94.27929,54.43164 16,27.71289 L 736.00195,768 C 688.57213,740.62459 641.15423,713.22692 593.72266,685.85547 Z m 348.55468,0 L 799.99805,768 942.27539,850.14453 c 5.33537,-9.23429 10.66872,-18.47535 16.002,-27.71289 C 926.85063,804.28948 895.42423,786.14411 863.99805,768 l 94.27929,-54.43164 z M 752,795.71094 l -142.27734,82.14453 16,27.71289 L 720,851.13672 720,960 l 32,0 z m 31.99805,0 L 784,960 l 32,0 -0.002,-108.86328 94.27929,54.43164 16,-27.71289 z"
    style="fill:#ebe9e0"/>
</svg>
