<?xml version="1.0" encoding="UTF-8" standalone="no"?>
<svg
  xmlns="http://www.w3.org/2000/svg"
  version="1.1"
  width="1536"
  height="1536"
  viewBox="0 0 1536 1536">
  <path
    d="m 736,576 c 0,45.52083 0,91.04167 0,136.5625 -39.42708,-22.76042 -78.85417,-45.52083 -118.28125,-68.28125 -10.66667,18.47917 -21.33333,36.95833 -32,55.4375 C 625.14583,722.47917 664.57292,745.23958 704,768 c -39.42708,22.76042 -78.85417,45.52083 -118.28125,68.28125 10.66667,18.47917 21.33333,36.95833 32,55.4375 C 657.14583,868.95833 696.57292,846.19792 736,823.4375 c 0,45.52083 0,91.04167 0,136.5625 21.33333,0 42.66667,0 64,0 0,-45.52083 0,-91.04167 0,-136.5625 39.42708,22.76042 78.85417,45.52083 118.28125,68.28125 10.66667,-18.47917 21.33333,-36.95833 32,-55.4375 C 910.85417,813.52083 871.42708,790.76042 832,768 c 39.42708,-22.76042 78.85417,-45.52083 118.28125,-68.28125 -10.66667,-18.47917 -21.33333,-36.95833 -32,-55.4375 C 878.85417,667.04167 839.42708,689.80208 800,712.5625 c 0,-45.52083 0,-91.04167 0,-136.5625 -21.33333,0 -42.66667,0 -64,0 z"
    fill="#ebe9e0"/>
</svg>
