<?xml version="1.0" encoding="UTF-8" standalone="no"?>
<svg
  xmlns="http://www.w3.org/2000/svg"
  version="1.1"
  width="2560"
  height="1440"
  viewBox="0 0 2560 1440">
  <rect
    width="2688"
    height="1568"
    x="-64"
    y="-64"
    style="fill:#fcf6e4"/>
  <path
    d="m 790.24,655.68 0,130.28 8.84,0 0,-36.68 8.92,-9.56 36,46.24 10.64,0 -40.56,-51.52 35.6,-36.52 -10.64,0 -31.2,32.64 c -2.76,2.92 -6.24,6.96 -8.44,9.72 l -0.56,0 0,-84.6 -8.84,0 z m 285.72,0 0,130.28 8.84,0 0,-53.76 c 0,-3.68 0.56,-6.04 1.04,-8.8 3.88,-10.84 14.12,-19.8 26.6,-19.8 18,0 24.2,14.28 24.2,30.28 l 0,52.08 8.84,0 0,-53.04 c 0,-32.8 -22.4,-37 -30.64,-37 -6.6,0 -12.68,1.8 -17.8,5.12 -5.12,2.92 -9.32,7.68 -11.92,12.64 l -0.56,0 0,-58 -8.84,0 z m 818.24,0 0,130.28 8.8,0 0,-130.28 -8.8,0 z m -343,4.64 c -21.08,0 -35.92,13.2 -35.92,31.36 0,16.88 11.92,27.12 31.72,34.08 18,7 25.12,15.08 25.12,29.04 0,15.16 -11.36,25.64 -29.92,25.64 -10.24,0 -19.96,-3.32 -26.92,-8.04 l -3.32,7.12 c 6.4,4.96 18.88,8.44 29.52,8.44 26.44,0 39.28,-16.12 39.28,-34.12 0,-18.52 -10.8,-27.68 -31.16,-35.96 -17.84,-6.96 -25.72,-13.92 -25.72,-27.64 0,-9.76 6.8,-22.64 26.76,-22.64 10.64,0 18.56,3.52 21.84,5.92 l 3.32,-7.36 c -4.24,-2.92 -13.04,-5.84 -24.6,-5.84 z m -982.24,2 -8.96,123.64 8.6,0 3.88,-56.88 c 1.44,-20.52 2.36,-42 2.76,-56.52 l 0.56,0 c 3.64,13.6 9,28.48 15.96,47.68 l 24.4,65.72 6.04,0 26.04,-67.32 c 7.2,-18.36 12.12,-32.64 16.68,-46.08 l 0.56,0 c 0,13.44 1.48,36.16 2.56,54.68 l 3.68,58.72 8.64,0 -8.28,-123.64 -10.48,0 -27.64,71.32 c -6.28,16.56 -10.64,28.64 -13.8,40 l -0.56,0 c -3.48,-11.92 -7.72,-24.36 -13.56,-40.16 l -26.6,-71.16 -10.08,0 z m 405.6,0 0,7.32 40.32,0 0,116.32 8.84,0 0,-116.32 40.32,0 0,-7.32 -89.48,0 z m 203.92,2.76 c -4.04,0 -7.12,3.64 -7.12,7.72 0,4 2.76,7.48 6.8,7.48 4.56,0 7.32,-3.48 7.32,-7.48 0,-4.24 -2.96,-7.72 -7,-7.72 z m 430.28,0 c -4,0 -7.16,3.64 -7.16,7.72 0,4 2.76,7.48 6.8,7.48 4.56,0 7.32,-3.48 7.32,-7.48 0,-4.24 -2.92,-7.72 -6.96,-7.72 z m -877.08,30.84 c -7.88,0 -17.76,2.16 -25.88,7.48 l 2.76,6.44 c 6.44,-4.6 14.52,-6.64 22.24,-6.64 20.92,-0.56 22.56,17.28 22.56,25.88 l 0,2.36 c -35.96,-0.56 -53.8,11.92 -53.8,32.28 0,11.76 8.12,24.24 25.88,24.24 14.12,0 23.84,-7.84 28.24,-14.68 l 0.56,0 1.28,12.68 8.08,0 c -1.08,-6.8 -1.32,-13.96 -1.32,-20.92 l 0,-34.48 c 0,-15.6 -4.96,-34.64 -30.44,-34.64 z m 170.92,0 c -22.76,0 -39.64,18.32 -39.64,47.68 0,25.8 15.8,44.2 41.12,44.2 15.4,0 24.36,-3.88 27.68,-5.72 l -2.2,-6.76 c -4.96,2.36 -11.6,4.96 -24.4,4.96 -18.36,0 -33.6,-11.2 -33.6,-39.28 l 64.96,0 c 0.56,-1.6 0.56,-2.92 0.56,-5.32 0,-12.68 -5.44,-39.76 -34.24,-39.76 z m 348.56,0 c -14.36,0 -25.52,8.04 -30.32,17.92 l -0.56,0 -0.56,-15.92 -8.28,0 c 0.56,6.92 0.72,13 0.72,21.12 l 0,66.92 8.84,0 0,-54.52 c 0,-2.76 0.56,-5.68 1.12,-7.88 3.44,-11.36 14.12,-20.16 26.4,-20.16 18.16,0 24.4,14.48 24.4,30.48 l 0,52.08 8.76,0 0,-52.84 c 0,-33 -22.32,-37.2 -30.76,-37.2 z m 91.72,0 c -19.44,0 -39.64,16.12 -39.64,46.72 0,24.08 15.56,43.32 37.8,43.32 15.8,0 26.04,-8.12 30.64,-17.04 l 0.56,0 0,12.4 c 0,26.12 -13.36,35.64 -31.88,35.64 -11.36,0 -20.04,-3.32 -26.28,-7.32 l -3.08,6.96 c 6.8,5.12 18,7.72 28.08,7.72 9.88,0 21.8,-2.76 29.92,-10.48 7.28,-6.96 12.08,-18.16 12.08,-40.72 l 0,-52.48 c 0,-9.16 0.56,-16.12 0.72,-22.72 l -8.08,0 -0.56,14.84 -0.56,0 c -3.68,-7.36 -12.28,-16.84 -29.72,-16.84 z m 90.6,0 c -17.08,0 -27.16,11.16 -27.16,23.84 0,10.64 7.88,18.48 22.4,24 12.64,5.12 18.48,10.24 18.48,19.96 0,9.2 -6.56,16.72 -20.52,16.72 -7.88,0 -15,-3.08 -19.8,-6.08 l -3.12,7.36 c 5.88,3.68 13.92,6.08 22.36,6.08 18,0 29.76,-10.12 29.76,-25.12 0,-13.4 -8.44,-20.56 -22.76,-26.04 -11.96,-4.96 -18.2,-9 -18.2,-18.2 0,-8.08 5.92,-15.24 17.12,-15.24 8.76,0 14.44,3.16 17.6,5.36 l 3.28,-7.2 c -4.4,-3.08 -11.4,-5.44 -19.44,-5.44 z m 246.32,0 c -14.52,0 -22.96,7.48 -28.64,17.6 l -0.56,0 -0.56,-15.6 -8.28,0 c 0.56,6.92 0.72,13 0.72,21.12 l 0,66.92 8.8,0 0,-54.28 c 0,-3 0.56,-6.08 1.28,-8.44 3.32,-10.28 12.64,-19.84 24.4,-19.84 14.28,0 21.84,11.56 21.84,27.56 l 0,55 8.84,0 0,-56.52 c 0,-3.12 0.72,-6.04 1.44,-8.6 3.48,-9.36 12.12,-17.44 23.12,-17.44 15.2,0 22.88,11.76 22.88,31.52 l 0,51.04 8.84,0 0,-51.92 c 0,-33.4 -20.2,-38.12 -28.8,-38.12 -9.4,0 -15.24,2.52 -20.92,7.28 -3.32,2.76 -6.56,6.64 -9,11.96 l -0.56,0 c -3.88,-11.2 -13.2,-19.24 -25.32,-19.24 z m 153.92,0 c -15.24,0 -26.04,7.12 -32.44,18.64 l -0.56,0 -0.56,-16.64 -8.44,0 c 0.56,8.44 0.72,17.04 0.72,28.08 l 0,96.28 8.84,0 0,-50.6 0.56,0 c 6.08,10.6 17.28,16.28 29.92,16.28 21.24,0 40,-16.12 40,-47.52 0,-25.88 -15.24,-44.52 -37.96,-44.52 z m 131.8,0 c -22.72,0 -39.6,18.32 -39.6,47.68 0,25.8 15.8,44.2 41.04,44.2 15.48,0 24.4,-3.88 27.72,-5.72 l -2.2,-6.76 c -4.92,2.36 -11.52,4.96 -24.4,4.96 -18.32,0 -33.56,-11.2 -33.56,-39.28 l 64.88,0 c 0.6,-1.6 0.6,-2.92 0.6,-5.32 0,-12.68 -5.48,-39.76 -34.32,-39.76 z m -791.4,2 0,88.04 8.76,0 0,-88.04 -8.76,0 z m 430.24,0 0,88.04 8.84,0 0,-88.04 -8.84,0 z m -702.88,5.28 c 21.28,0 26.44,18.56 26.2,30.84 l -55.72,0 c 1.64,-13.56 10.08,-30.84 29.52,-30.84 z m 442.12,0 c 14.48,0 23.64,9.36 27.36,20.04 0.88,2.52 1.08,5.28 1.08,8.6 l 0,17.6 c 0,3.12 -0.6,6.44 -1.48,9.36 -4.56,12.64 -15.4,19.84 -27.32,19.84 -20.72,0 -31.16,-17.08 -31.16,-36.88 0,-23.32 12.8,-38.56 31.52,-38.56 z m 488.28,0 c 20,0 30.96,17.8 30.96,37.64 0,23.44 -11.52,39.76 -31.72,39.76 -13.52,0 -25.28,-8.76 -28.96,-22.36 -0.56,-2.2 -0.72,-4.56 -0.72,-6.92 l 0,-17.28 c 0,-2.36 0.72,-5.12 1.28,-7.52 3.84,-14.48 16.32,-23.32 29.16,-23.32 z m 132.56,0 c 21.24,0 26.44,18.56 26.2,30.84 l -55.72,0 c 1.6,-13.56 10.04,-30.84 29.52,-30.84 z m -1218.56,35.6 7.48,0 0,18.92 c 0,1.44 0,3.48 -0.92,5.28 -2.96,8.68 -11.4,17.6 -26.04,17.6 -9.2,0 -17.64,-5.68 -17.64,-18.32 0,-18.44 19.4,-23 37.12,-23.48 z"
    style="fill:#d6d1ca"/>
</svg>
