<svg
  xmlns="http://www.w3.org/2000/svg"
  width="2560"
  height="1440"
  viewBox="0 0 2560 1440">
  <rect
    width="2592"
    height="1472"
    x="-16"
    y="-16"
    style="fill:hsl(0, 0%, 99%)"/>
  <path
    d="m 1166.801,359.977 c -21.572,-0.652 -39.072,16.473 -47.541,34.943 -20.15,40.549 -26.314,86.148 -31.848,130.568 -9.313,88.968 -10.515,178.537 -11.605,267.912 -0.638,83.658 -0.415,167.334 -0.103,250.985 0.94,14.132 7.932,30.615 23.014,34.203 16.76,4.195 32.711,-8.318 40.8,-22.044 14.668,-24.829 25.779,-51.573 40.77,-76.21 18.421,-32.086 36.26,-65.697 63.682,-91.218 6.335,-5.242 16.976,-11.839 24.123,-4.352 8.418,9.332 5.523,22.956 5.477,34.355 -3.744,39.002 -9.079,79.989 4.217,117.926 7.543,20.41 24.842,38.89 47.137,41.834 25.332,4.753 51.508,-4.431 70.974,-20.68 33.323,-25.928 56.291,-62.499 75.823,-99.329 4.508,-9.88 10.782,-19.4 12.866,-30.147 0.763,-12.378 -13.082,-23.085 -24.773,-18.084 -11.118,4.027 -12.577,17.537 -18.279,26.348 -17.992,35.118 -39.8,69.545 -71.367,94.057 -12.754,9.28 -30.919,16.486 -45.859,8.412 -14.588,-9.679 -16.133,-29.204 -17.467,-44.896 -1.993,-25.5 1.446,-50.848 3.677,-76.26 1.157,-21.617 -2.405,-45.877 -18.531,-61.689 -14.608,-13.478 -37.525,-15.387 -54.846,-6.137 -25.971,12.259 -41.273,38.111 -57.32,60.62 -25.189,37.824 -46.895,77.842 -67.123,118.499 -1.297,-35.868 -0.303,-71.844 -0.613,-107.756 47.738,-87.28 89.924,-178.775 111.58,-276.328 14.555,-64.176 22.279,-130.88 13.682,-196.465 -4.094,-28.085 -12.762,-58.06 -35.072,-77.217 -9.949,-7.968 -22.761,-12.087 -35.471,-11.852 z m 2.006,36.633 c 14.244,0.944 21.167,15.141 25.353,26.934 10.452,29.297 10.044,61.011 10.072,91.763 -2.111,97.281 -30.398,191.906 -68.141,281.047 -7.42,17.932 -15.161,35.702 -23.54,53.17 0.468,-118.987 -1.253,-238.531 14.218,-356.654 4.388,-29.172 8.959,-59.367 23.669,-85.393 3.945,-6.358 10.439,-11.708 18.369,-10.867 z"
    style="fill:hsl(0, 0%, 11%)"/>
</svg>
