<svg xmlns="http://www.w3.org/2000/svg" width="448" height="448" viewBox="0 0 448 448"><g fill="#278dd2"><path d="M90.008 136.553l87.557 240.56 15.035-5.472-87.557-240.56zm30.07-10.945l87.557 240.56 15.035-5.472-87.557-240.56zm105.245-38.306l32.834 90.21-75.175 27.362 5.472 15.035 90.21-32.835L240.358 81.83zm30.07-10.945l87.557 240.56 15.035-5.472-87.557-240.56zm-58.73 166.104l5.472 15.036 75.175-27.36 35.57 97.726 15.035-5.472-41.042-112.763z"/><path d="M147.384 13.51C31.182 55.802-28.788 184.41 13.506 300.61 55.8 416.814 184.406 476.784 300.61 434.49c116.2-42.295 176.17-170.9 133.877-287.103C392.193 31.185 263.587-28.786 147.384 13.51zm2.736 7.516C262.263-19.79 386.153 37.98 426.97 150.123c40.816 112.142-16.954 236.032-129.097 276.85C185.73 467.788 61.84 410.017 21.023 297.874-19.792 185.733 37.98 61.843 150.12 21.025z"/></g></svg>