<?xml version="1.0" encoding="UTF-8" standalone="no"?>
<svg
   xmlns:dc="http://purl.org/dc/elements/1.1/"
   xmlns:cc="http://creativecommons.org/ns#"
   xmlns:rdf="http://www.w3.org/1999/02/22-rdf-syntax-ns#"
   xmlns:svg="http://www.w3.org/2000/svg"
   xmlns="http://www.w3.org/2000/svg"
   xmlns:sodipodi="http://sodipodi.sourceforge.net/DTD/sodipodi-0.dtd"
   xmlns:inkscape="http://www.inkscape.org/namespaces/inkscape"
   width="448"
   height="448"
   version="1.1"
   viewBox="0 0 448 448"
   id="svg2"
   inkscape:version="0.91 r13725"
   sodipodi:docname="favicon-small.svg">
  <metadata
     id="metadata18">
    <rdf:RDF>
      <cc:Work
         rdf:about="">
        <dc:format>image/svg+xml</dc:format>
        <dc:type
           rdf:resource="http://purl.org/dc/dcmitype/StillImage" />
        <dc:title></dc:title>
      </cc:Work>
    </rdf:RDF>
  </metadata>
  <defs
     id="defs16" />
  <sodipodi:namedview
     pagecolor="#ffffff"
     bordercolor="#666666"
     borderopacity="1"
     objecttolerance="10"
     gridtolerance="10"
     guidetolerance="10"
     inkscape:pageopacity="0"
     inkscape:pageshadow="2"
     inkscape:window-width="640"
     inkscape:window-height="480"
     id="namedview14"
     showgrid="false"
     inkscape:zoom="1.1852"
     inkscape:cx="236.77"
     inkscape:cy="384"
     inkscape:current-layer="svg2" />
  <g
     style="fill:#278dd2"
     id="g4"
     transform="matrix(0.93969,-0.34202,0.34202,0.93969,-268.18,-5.5062)">
    <path
       d="m 288,256 0,256 16,0 0,-256 z m 32,0 0,256 16,0 0,-256 z m 112,0 0,96 -80,0 0,16 96,0 0,-112 z m 32,0 0,256 16,0 0,-256 z m -112,136 0,16 80,0 0,104 16,0 0,-120 z"
       id="path6"
       inkscape:connector-curvature="0" />
    <path
       d="M 384,160 C 260.34,160 160,260.34 160,384 160,507.66 260.34,608 384,608 507.66,608 608,507.66 608,384 608,260.34 507.66,160 384,160 Z m 0,8 c 119.34,0 216,96.66 216,216 0,119.34 -96.66,216 -216,216 -119.34,0 -216,-96.66 -216,-216 0,-119.34 96.66,-216 216,-216 z"
       id="path10"
       inkscape:connector-curvature="0" />
  </g>
</svg>
