<svg xmlns="http://www.w3.org/2000/svg" width="1024" height="1024" viewBox="0 0 1024 1024"><path fill="#75bae7" d="M-16-16h1056v1056H-16z"/><g fill="#fcf9f0"><path d="M378.01 424.55l87.56 240.56 15.03-5.47-87.55-240.56zm30.07-10.94l87.56 240.56 15.03-5.47-87.55-240.56zm105.25-38.31l32.83 90.21-75.17 27.36 5.47 15.04 90.21-32.83-38.31-105.25zm30.07-10.94l87.55 240.56 15.04-5.47-87.56-240.56zm-58.73 166.1l5.47 15.04 75.17-27.36 35.57 97.72 15.04-5.47-41.04-112.76zM427.09 181.38l11.34 55.13c4.02 19.51 13.74 23.27 22.79 21.41 9.52-1.96 17.22-9.79 12.97-30.48l-11.01-53.48-5.06 1.04 11.12 54.07c3.13 15.16-.62 22.54-8.73 24.22-7.17 1.47-13.95-2.89-17.23-18.88l-11.13-54.07-5.06 1.04zm-67.54 27.99c-.58.21-1.14.52-1.74.77-6.31 3.21-8.96 8.33-9.91 11.23l3.4 2.44c.8-1.61 2.32-6.29 7.77-9.06 6.96-3.54 13.16-.1 17.73 8.9 7.6 14.97 4.09 35.88 2.05 51.45l-1.33 10.1 1.42 2.78 30.58-15.55-2.11-4.17-24.28 12.34-.1-.22 1.22-9.78c2.25-17.82 3.84-36.41-2.79-49.46-5.15-10.13-13.23-15.1-21.89-11.78zm-77.38 50.69l-3.88 3.4 53.29 60.85 21.94-19.21-2.92-3.35-18.06 15.82-50.37-57.51zm297.4-82.7l-20.32 78.29 4.76 1.24 8.57-32.99c4.49-17.31 6.71-25.9 9.04-38.2l.23.1c.39 12.38 1.49 21.47 2.72 31.09l5.69 46.85 4.99 1.3 20.33-78.29-4.77-1.24-8.98 34.61c-3.38 13.01-5.43 20.91-8.48 35.99l-.23-.1c-.54-10.32-1.98-21.97-3.25-32.84l-5.3-44.52-5-1.3zm-338.6 127.79l-3.1 4.12 64.67 48.58 3.1-4.13-64.67-48.57zm275.24-61.57c-1.55.67-2.53 2.34-2.59 4.5-.1 2.88 1.57 4.83 3.97 4.89 2.88.1 4.37-1.82 4.43-4.7.1-2.88-1.33-4.95-4.09-5.02-.63 0-1.21.1-1.72.33zm-315.1 128.55l-1.98 4.5 66.29 50.12 2.04-4.61-22.86-17.17 8.1-18.33 28.08 5.31 2.13-4.83-81.8-14.99zm5.73 5.16c6.37 1.63 12.08 2.97 18.37 4.17l22.93 4.48-7.16 16.25-18.72-13.77c-4.95-3.63-9.96-7.15-15.61-10.69l.19-.44zM671.2 210.31l-40.24 70.16 25.7 14.75 2.27-3.96-21.23-12.18 17.73-30.92 18.53 10.64 2.27-3.96-18.53-10.63 15.7-27.37 19.88 11.41 2.27-3.97-24.35-13.97zM176.18 450.55l-.65 5.11 35.83 4.61-3.39 26.3-35.82-4.59-.66 5.11 80.22 10.3.66-5.11-39.87-5.12 3.38-26.31 39.87 5.13.65-5.13-80.22-10.3zM735.6 254.02l-3.07 3.19 10.89 10.49-52.98 55.09 3.72 3.58 52.99-55.1 10.89 10.48 3.08-3.2-25.52-24.53zm52.97 129.21v.1-.1zm0 .1l-5.1 19.49-20.36.9 16.75 11.13-5.71 19.27 16.2-12.35 16.47 11.72-6.97-19.16 16.78-12.82-21.1.92-6.96-19.1zm-571.18 208l6.97 19.16-16.76 12.86 21.11-.98 6.97 19.16 5.06-19.56 20.37-.97-16.81-11.16 5.67-19.3-16.18 12.41-16.49-11.69zm554.85-64.02l-.67 5.12 39.86 5.21-3.43 26.3-39.87-5.21-.66 5.11 80.19 10.5.67-5.12-35.82-4.68 3.45-26.3 35.81 4.69.67-5.12-80.2-10.5zM329.39 697.28l-53.11 54.97-10.87-10.51-3.1 3.2 25.46 24.59 3.09-3.19-10.87-10.5 53.11-54.97-3.71-3.59zm37.42 31.25l-2.28 3.94 21.2 12.23-17.8 30.87-18.5-10.66-2.28 3.94 18.51 10.68-15.78 27.33-19.85-11.45-2.28 3.95 24.32 14.04 40.41-70.07-25.67-14.8zm391.56-130.6l-2.05 4.6 22.82 17.22-8.14 18.32-28.07-5.38-2.15 4.82 81.76 15.18 2-4.49-66.17-50.27zm24.39 24.61l18.67 13.82c4.96 3.64 9.94 7.17 15.59 10.73l-.19.44c-6.37-1.65-12.06-3-18.36-4.21l-22.92-4.54 7.21-16.24zM428.15 758.89l-20.51 78.24 4.76 1.25 9.07-34.6c3.41-13 5.47-20.89 8.55-35.96l.24.1c.52 10.31 1.93 21.96 3.17 32.84l5.21 44.53 4.99 1.31 20.5-78.24-4.76-1.25-8.64 32.98c-4.53 17.29-6.78 25.88-9.13 38.16l-.24-.1c-.35-12.38-1.45-21.46-2.64-31.08l-5.58-46.87-4.99-1.31zm292.94-92.15l-3.12 4.11 64.55 48.73 3.12-4.11-64.55-48.73zm-29.12 33.47l-21.99 19.15 2.91 3.36 18.1-15.77 50.22 57.62 3.89-3.39-53.1-60.97zM503.92 771.4c-1.65.6-2.49 2.23-2.55 4.39-.1 2.88 1.31 4.95 4.07 5.02 2.53.1 4.26-1.93 4.33-4.81.1-2.87-1.56-4.83-3.96-4.9-.72 0-1.35.1-1.89.3zm54.82-4.1c-7.81 3.08-13.26 11.32-9.58 29.43l10.87 53.51 5.05-1.03-10.98-54.1c-3.08-15.17.68-22.54 8.79-24.19 7.18-1.45 13.95 2.93 17.19 18.92l11 54.09 5.06-1.03-11.21-55.15c-3.97-19.52-13.67-23.3-22.73-21.46-1.19.24-2.36.58-3.46 1.01zm85.81-30.88l-30.62 15.48 2.1 4.18 24.32-12.29.1.23-1.26 9.77c-2.28 17.82-3.92 36.4 2.69 49.46 5.47 10.82 14.28 15.78 23.6 11.06 6.32-3.19 8.98-8.3 9.94-11.2l-3.39-2.45c-.8 1.61-2.34 6.29-7.8 9.04-6.96 3.53-13.15.1-17.69-8.93-7.58-15-4.02-35.89-1.94-51.46l1.35-10.09-1.41-2.79zM435.39 301.51c-116.2 42.29-176.18 170.9-133.88 287.1 42.29 116.2 170.9 176.18 287.1 133.88 116.2-42.29 176.18-170.9 133.88-287.1-42.29-116.2-170.9-176.18-287.1-133.88zm2.73 7.52c112.15-40.82 236.04 16.95 276.85 129.09 40.82 112.15-16.95 236.04-129.09 276.85-112.15 40.82-236.04-16.95-276.85-129.09-40.82-112.15 16.95-236.04 129.09-276.85zM380.66 151.16c-199.24 72.52-302.02 292.93-229.5 492.18 72.52 199.24 292.93 302.02 492.18 229.5 199.24-72.52 302.02-292.93 229.5-492.18-72.52-199.24-292.93-302.02-492.18-229.5zm2.74 7.52c195.18-71.045 410.88 29.54 481.92 224.72 71.05 195.18-29.54 410.88-224.72 481.92-195.18 71.05-410.88-29.54-481.92-224.72-71.045-195.18 29.54-410.88 224.72-481.92z"/></g></svg>