<svg
  xmlns="http://www.w3.org/2000/svg"
  width="1024"
  height="1024"
  viewBox="0 0 1024 1024">
  <rect
    width="1056"
    height="1056"
    x="-16"
    y="-16"
    style="fill:hsl(36, 48%, 98%)"/>
  <path
    d="m 482.707,481.316 c -3.017,0 -5.965,0.318 -8.844,0.955 -2.851,0.637 -5.925,1.784 -9.219,3.445 l 0,14.492 c 4.318,-3.515 8.9,-5.273 13.744,-5.273 4.761,0 7.141,1.979 7.141,5.938 0,1.19 -0.261,2.298 -0.787,3.322 -0.498,1.024 -1.274,2.09 -2.326,3.197 -1.024,1.08 -3.114,2.864 -6.27,5.355 -4.429,3.432 -7.543,6.241 -9.342,8.428 -1.772,2.187 -3.074,4.526 -3.904,7.018 -0.83,2.491 -1.244,5.426 -1.244,8.803 l 0,4.775 41.936,0 0,-14.201 -23.252,0 c 0.028,-0.803 0.665,-1.771 1.91,-2.906 1.273,-1.163 3.834,-2.989 7.682,-5.48 5.038,-3.239 8.483,-6.352 10.338,-9.342 1.855,-2.99 2.783,-6.629 2.783,-10.92 0,-5.592 -1.771,-9.924 -5.314,-12.996 -3.543,-3.073 -8.554,-4.609 -15.031,-4.609 z M 256,482.23 l 0,59.541 17.938,0 0,-22.215 20.594,0 0,22.215 17.938,0 0,-59.541 -17.938,0 0,22.047 -20.594,0 0,-22.047 z m 83.5,-4e-5 -20.512,59.541 19.391,0 2.822,-10.961 17.771,0 2.615,10.961 19.475,0 -19.307,-59.541 z m 48.537,0 0,59.541 17.938,0 0,-59.541 z m 29.73,0 0,59.541 38.449,0 0,-14.035 -20.512,0 0,-45.506 z m 96.33,0 0,32.676 c 0,9.328 2.185,16.318 6.559,20.969 4.401,4.623 10.838,6.934 19.309,6.934 9.079,0 15.791,-2.311 20.137,-6.934 4.374,-4.65 6.561,-11.751 6.561,-21.301 l 0,-32.344 -18.061,0 0,33.756 c 0,3.792 -0.705,6.658 -2.117,8.596 -1.384,1.938 -3.42,2.906 -6.105,2.906 -2.657,0 -4.705,-1.024 -6.145,-3.072 -1.412,-2.076 -2.117,-5.024 -2.117,-8.844 l 0,-33.342 z m 90.848,0 0,59.541 16.609,0 0,-24.996 c 0,-3.654 -0.084,-6.949 -0.25,-9.883 l 0.166,0 c 1.052,1.827 2.409,3.877 4.07,6.146 l 21.01,28.732 15.736,0 0,-59.541 -16.609,0 0,26.697 c 0,2.99 0.084,5.093 0.25,6.311 l -0.166,0 c -0.166,-0.388 -0.416,-0.83 -0.748,-1.328 -0.304,-0.498 -0.636,-1.009 -0.996,-1.535 -0.36,-0.526 -0.72,-1.039 -1.08,-1.537 -0.36,-0.498 -0.665,-0.927 -0.914,-1.287 l -20.137,-27.32 z m 69.092,0 0,59.541 38.449,0 0,-14.035 -20.512,0 0,-8.76 17.979,0 0,-14.035 -17.979,0 0,-8.678 19.141,0 0,-14.033 z m 42.436,0 0,14.033 16.648,0 0,45.508 18.021,0 0,-45.508 16.857,0 0,-14.033 z m -366.594,12.953 0.416,0 c 0.221,2.076 0.624,4.305 1.205,6.686 l 4.15,16.193 -11.375,0 c 3.017,-11.543 4.691,-18.075 5.023,-19.598 0.332,-1.522 0.525,-2.617 0.58,-3.281 z m 235.594,31.018 c -3.017,0 -5.425,0.761 -7.225,2.283 -1.772,1.495 -2.658,3.461 -2.658,5.896 0,2.381 0.9,4.386 2.699,6.02 1.827,1.606 4.166,2.408 7.018,2.408 3.128,0 5.576,-0.774 7.348,-2.324 1.772,-1.55 2.658,-3.585 2.658,-6.104 0,-2.436 -0.913,-4.402 -2.74,-5.896 -1.799,-1.522 -4.165,-2.283 -7.1,-2.283 z"
   style="fill:hsl(36, 3%, 24%)"/>
</svg>
