<svg
  xmlns="http://www.w3.org/2000/svg"
  width="1024"
  height="1024"
  viewBox="0 0 1024 1024">
  <rect
    width="1056"
    height="1056"
    x="-16"
    y="-16"
    style="fill:hsl(45, 75%, 98%)"/>
  <path
    d="m 417.658,432 v 160 h 11.045 v -76.764 h 91.604 V 592 h 10.936 V 432 h -10.936 v 73.193 H 428.703 V 432 Z m 179.535,144.045 c -2.529,0 -4.649,0.856 -6.359,2.566 -1.711,1.636 -2.566,3.756 -2.566,6.359 0,2.529 0.856,4.685 2.566,6.471 1.711,1.711 3.83,2.566 6.359,2.566 2.529,0 4.686,-0.856 6.471,-2.566 1.785,-1.785 2.678,-3.942 2.678,-6.471 0,-2.603 -0.893,-4.723 -2.678,-6.359 -1.785,-1.711 -3.942,-2.566 -6.471,-2.566 z"
    style="fill:hsl(45, 5%, 10%)"/>
</svg>
