<svg
  xmlns="http://www.w3.org/2000/svg"
  width="1024"
  height="1024"
  viewBox="0 0 1024 1024">
  <rect
    width="1056"
    height="1056"
    x="-16"
    y="-16"
    style="fill:hsl(45, 75%, 98%)"/>
  <path
    d="m 480.58008,479.97266 c -6.87995,0 -13.05853,1.77006 -18.5332,5.3125 l 0,12.20898 c 4.9477,-4.30363 10.13074,-6.45508 15.54687,-6.45508 3.13257,0 5.46005,0.68847 6.98242,2.06446 1.52238,1.37598 2.28321,3.41008 2.28321,6.10351 0,1.37599 -0.23471,2.67859 -0.70313,3.9082 -0.46843,1.20033 -1.18622,2.40123 -2.15234,3.60157 -0.93684,1.17105 -2.10646,2.3563 -3.51172,3.55664 -1.376,1.20033 -2.98762,2.45991 -4.83203,3.77734 -1.75658,1.25889 -3.61466,2.67884 -5.57618,4.25977 -1.93224,1.55164 -3.71794,3.35104 -5.35742,5.40039 -1.63948,2.02006 -3.00076,4.31821 -4.08398,6.89453 -1.08323,2.54705 -1.625,5.43194 -1.625,8.65234 l 0,4.74219 41.89453,0 0,-11.50586 -26.70117,0 c 0,-0.81973 0.29338,-1.68422 0.8789,-2.5918 0.58554,-0.90756 1.3757,-1.82877 2.3711,-2.76562 0.9954,-0.96612 2.13762,-1.93232 3.42578,-2.89844 1.31743,-0.99539 2.67872,-1.99093 4.08398,-2.98633 2.07863,-1.43454 4.08339,-2.91317 6.01563,-4.43554 1.93224,-1.55165 3.62993,-3.24934 5.09375,-5.09375 1.49309,-1.84442 2.6803,-3.89416 3.55859,-6.14844 0.90757,-2.25428 1.36133,-4.83016 1.36133,-7.72852 0,-2.7227 -0.4694,-5.18122 -1.40625,-7.37695 -0.90756,-2.22501 -2.23951,-4.11437 -3.99609,-5.66602 -1.75658,-1.55165 -3.90804,-2.7369 -6.45508,-3.55664 -2.51778,-0.84901 -5.37138,-1.27343 -8.5625,-1.27343 z M 256,481.02539 256,544 l 14.18359,0 0,-25.64648 26.08594,0 0,25.64648 14.22852,0 0,-62.97461 -14.22852,0 0,25.11914 -26.08594,0 0,-25.11914 -14.18359,0 z m 85.01953,0 L 318.0957,544 l 15.36914,0 4.43555,-14.00977 22.39649,0 4.48046,14.00977 15.45704,0 -22.39649,-62.97461 -16.81836,0 z m 47.07617,0 0,62.97461 14.1836,0 0,-62.97461 -14.1836,0 z m 28.45508,0 0,62.97461 37.50391,0 0,-11.50586 -23.31836,0 0,-51.46875 -14.18555,0 z m 97.0957,0 0,36.36133 c 0,18.4734 8.54909,27.71094 25.64649,27.71094 17.62439,0 26.43555,-9.4566 26.43555,-28.36914 l 0,-35.70313 -14.1836,0 0,37.06445 c 0,9.83687 -3.90781,14.75586 -11.72461,14.75586 -7.96317,0 -11.94531,-5.09502 -11.94531,-15.2832 l 0,-36.53711 -14.22852,0 z m 90.15625,0 0,62.97461 13.39454,0 0,-34.60547 c 0,-4.56712 -0.11735,-7.9625 -0.35157,-10.1875 l 0.17578,0 c 0.58553,1.17105 1.63974,2.91373 3.16211,5.22656 L 646.13672,544 l 14.3164,0 0,-62.97461 -13.39453,0 0,34.82422 c 0,4.30363 0.11736,7.18852 0.35157,8.65234 l -0.17578,0 c -0.96613,-1.69802 -2.02033,-3.41136 -3.16211,-5.13867 l -24.98633,-38.33789 -15.28321,0 z m 71.14258,0 0,62.97461 37.76563,0 0,-11.50586 -23.58203,0 0,-14.4043 20.5957,0 0,-11.50586 -20.5957,0 0,-14.00781 22.13281,0 0,-11.55078 -36.31641,0 z m 42.99219,0 0,11.55078 17.87305,0 0,51.42383 14.22851,0 0,-51.42383 17.96094,0 0,-11.55078 -50.0625,0 z m -369.05859,11.24219 0.35156,0 c 0.20493,2.19572 0.55699,4.08509 1.05469,5.66601 l 6.76172,21.16602 -16.11524,0 6.84961,-21.3418 c 0.58553,-1.81513 0.95128,-3.64582 1.09766,-5.49023 z m 235.55859,38.33789 c -2.34211,0 -4.30384,0.67281 -5.88477,2.01953 -1.55164,1.34671 -2.32812,3.0757 -2.32812,5.18359 0,2.04936 0.76083,3.77638 2.2832,5.18164 1.52238,1.40527 3.42543,2.10743 5.70899,2.10743 2.45922,0 4.45029,-0.67282 5.97265,-2.01954 1.55165,-1.37598 2.32813,-3.13235 2.32813,-5.26953 0,-2.07862 -0.76084,-3.79195 -2.2832,-5.13867 -1.4931,-1.37599 -3.42549,-2.06445 -5.79688,-2.06445 z"
    style="fill:hsl(45, 5%, 10%)"/>
</svg>
