<svg
  xmlns="http://www.w3.org/2000/svg"
  width="1024"
  height="1024"
  viewBox="0 0 1024 1024">
  <rect
    width="1056"
    height="1056"
    x="-16"
    y="-16"
    style="fill:hsl(36, 48%, 98%)"/>
  <path
    d="m 480.375,478.436 c -11.948,0 -22.809,8.689 -21.506,21.072 l 15.424,0 c -0.869,-4.345 1.846,-6.951 5.322,-6.951 2.172,0 5.758,0.869 5.758,5.975 0,2.498 -0.543,4.019 -6.734,12.383 l -25.092,33.672 48.01,0 0,-14.012 -19.986,0 8.365,-10.861 c 8.038,-10.645 10.643,-14.883 10.752,-22.486 0.109,-10.754 -8.69,-18.791 -20.313,-18.791 z M 256,479.414 l 0,65.172 16.619,0 0,-25.418 23.463,0 0,25.418 16.619,0 0,-65.172 -16.619,0 0,25.309 -23.463,0 0,-25.309 -16.619,0 z m 84.379,0 -23.57,65.172 17.922,0 3.584,-11.404 22.811,0 3.586,11.404 17.813,0 -23.57,-65.172 -18.574,0 z m 46.85,0 0,65.172 16.619,0 0,-65.172 -16.619,0 z m 26.574,0 0,65.172 37.367,0 0,-14.445 -20.748,0 0,-50.727 -16.619,0 z m 96.492,0 0,44.426 c 0,12.166 12.274,21.615 27.916,21.615 15.642,0 27.916,-9.45 27.916,-21.615 l 0,-44.426 -16.619,0 0,41.275 c 0,5.757 -4.997,10.318 -11.297,10.318 -6.3,0 -11.297,-4.561 -11.297,-10.318 l 0,-41.275 -16.619,0 z m 90.277,0 0,65.172 16.619,0 0,-39.973 29.328,39.973 17.488,0 0,-65.172 -16.619,0 0,39.863 -29.436,-39.863 -17.381,0 z m 73.486,0 0,65.172 40.408,0 0,-14.445 -23.789,0 0,-10.973 20.096,0 0,-14.338 -20.096,0 0,-10.971 23.789,0 0,-14.445 -40.408,0 z m 45.496,0 0,14.445 15.967,0 0,50.727 16.512,0 0,-50.727 15.967,0 0,-14.445 -48.445,0 z m -369.834,17.27 7.277,23.029 -14.447,0 7.17,-23.029 z m 233.059,31.826 c -4.562,0 -8.473,3.802 -8.473,8.473 0,4.562 3.911,8.473 8.473,8.473 4.671,0 8.582,-3.911 8.582,-8.473 0,-4.671 -3.911,-8.473 -8.582,-8.473 z"
    style="fill:hsl(36, 3%, 24%)"/>
</svg>
