<svg
  xmlns="http://www.w3.org/2000/svg"
  width="1024"
  height="1024"
  viewBox="0 0 1024 1024">
  <rect
    width="1056"
    height="1056"
    x="-16"
    y="-16"
    style="fill:hsl(45, 75%, 98%)"/>
  <path
    d="M 479.402 483.4 C 476.754 483.4 474.208 483.863 471.766 484.789 C 469.323 485.715 467.048 486.988 464.939 488.607 L 464.939 492.773 C 467.125 490.845 469.362 489.342 471.65 488.262 C 473.939 487.182 476.317 486.641 478.785 486.641 C 482.436 486.641 485.266 487.656 487.271 489.688 C 489.303 491.693 490.318 494.523 490.318 498.174 C 490.318 500.282 489.996 502.159 489.354 503.805 C 488.736 505.425 487.889 506.915 486.809 508.277 C 485.729 509.64 484.456 510.913 482.99 512.096 C 481.55 513.278 479.994 514.475 478.322 515.684 C 476.6 516.944 475.007 518.113 473.541 519.193 C 472.101 520.248 470.802 521.288 469.645 522.316 C 468.513 523.319 467.511 524.335 466.637 525.363 C 465.788 526.366 465.068 527.446 464.477 528.604 C 463.911 529.761 463.488 531.033 463.205 532.422 C 462.922 533.785 462.779 535.328 462.779 537.051 L 462.779 539.635 L 494.098 539.635 L 494.098 536.395 L 466.598 536.395 L 466.598 535.816 C 466.598 533.991 466.83 532.385 467.293 530.996 C 467.782 529.608 468.565 528.257 469.645 526.945 C 470.724 525.634 472.127 524.296 473.85 522.934 C 475.572 521.545 477.68 519.964 480.174 518.189 C 482.051 516.852 483.825 515.517 485.496 514.18 C 487.193 512.817 488.672 511.338 489.932 509.744 C 491.192 508.124 492.182 506.337 492.902 504.383 C 493.648 502.403 494.021 500.139 494.021 497.594 C 494.021 495.434 493.673 493.481 492.979 491.732 C 492.284 489.984 491.295 488.492 490.01 487.258 C 488.75 486.024 487.22 485.073 485.42 484.404 C 483.62 483.736 481.614 483.4 479.402 483.4 z M 256 484.326 L 256 539.635 L 259.818 539.635 L 259.818 513.1 L 291.482 513.1 L 291.482 539.635 L 295.264 539.635 L 295.264 484.326 L 291.482 484.326 L 291.482 509.629 L 259.818 509.629 L 259.818 484.326 L 256 484.326 z M 338.742 484.326 L 317.877 539.635 L 322.082 539.635 L 328.406 522.434 L 352.396 522.434 L 358.721 539.635 L 363.002 539.635 L 342.369 484.326 L 338.742 484.326 z M 385.539 484.326 L 385.539 539.635 L 389.357 539.635 L 389.357 484.326 L 385.539 484.326 z M 416.754 484.326 L 416.754 539.635 L 442.75 539.635 L 442.75 536.164 L 420.572 536.164 L 420.572 484.326 L 416.754 484.326 z M 519.373 484.326 L 519.373 518.383 C 519.373 533.193 525.608 540.6 538.078 540.6 C 551.192 540.6 557.748 532.911 557.748 517.535 L 557.748 484.326 L 553.969 484.326 L 553.969 518.383 C 553.969 530.853 548.918 537.09 538.813 537.09 C 528.373 537.09 523.152 530.674 523.152 517.844 L 523.152 484.326 L 519.373 484.326 z M 615.203 484.326 L 615.203 539.635 L 619.021 539.635 L 619.021 493.893 C 619.021 492.941 618.997 492.131 618.945 491.463 L 619.1 491.463 L 619.6 492.234 C 620.114 493.134 620.706 494.034 621.375 494.934 L 654.313 539.635 L 657.012 539.635 L 657.012 484.326 L 653.193 484.326 L 653.193 527.563 C 653.193 528.848 653.258 530.392 653.387 532.191 L 653.193 532.191 C 652.345 530.803 651.562 529.62 650.842 528.643 L 618.135 484.326 L 615.203 484.326 z M 684.371 484.326 L 684.371 539.635 L 711.484 539.635 L 711.484 536.164 L 688.188 536.164 L 688.188 513.484 L 708.629 513.484 L 708.629 510.014 L 688.188 510.014 L 688.188 487.836 L 710.211 487.836 L 710.211 484.326 L 684.371 484.326 z M 732.285 484.326 L 732.285 487.836 L 748.252 487.836 L 748.252 539.635 L 752.033 539.635 L 752.033 487.836 L 768 487.836 L 768 484.326 L 732.285 484.326 z M 340.324 489.148 L 340.479 489.148 C 340.684 489.791 340.877 490.433 341.057 491.076 C 341.237 491.822 341.469 492.58 341.752 493.352 L 351.084 518.924 L 329.756 518.924 L 339.051 493.275 C 339.462 492.221 339.887 490.845 340.324 489.148 z M 586.109 534.119 C 585.235 534.119 584.504 534.414 583.912 535.006 C 583.321 535.572 583.023 536.305 583.023 537.205 C 583.023 538.079 583.321 538.824 583.912 539.441 C 584.504 540.033 585.235 540.328 586.109 540.328 C 586.984 540.328 587.731 540.033 588.348 539.441 C 588.965 538.824 589.273 538.079 589.273 537.205 C 589.273 536.305 588.965 535.572 588.348 535.006 C 587.731 534.414 586.984 534.119 586.109 534.119 z"
    style="fill:hsl(45, 5%, 10%)"/>
</svg>
