<svg
  xmlns="http://www.w3.org/2000/svg"
  width="1500"
  height="272"
  viewBox="0 0 1500 272"
  role="img"
  aria-labelledby="logo-title">
  <title
    id="logo-title">Hail2u.net</title>
  <path
    d="m 665.113,61.322 c -7.661,0 -15.025,1.338 -22.092,4.016 -7.066,2.678 -13.648,6.361 -19.748,11.047 v 12.051 c 6.323,-5.579 12.794,-9.931 19.414,-13.055 6.621,-3.124 13.5,-4.686 20.641,-4.686 10.563,0 18.745,2.938 24.547,8.815 5.876,5.802 8.814,13.984 8.814,24.547 0,6.099 -0.929,11.528 -2.789,16.289 -1.785,4.686 -4.239,9.001 -7.363,12.943 -3.124,3.942 -6.807,7.623 -11.047,11.045 -4.165,3.422 -8.665,6.881 -13.5,10.377 -4.984,3.645 -9.596,7.03 -13.836,10.154 -4.165,3.05 -7.922,6.062 -11.269,9.037 -3.273,2.901 -6.174,5.839 -8.703,8.815 -2.455,2.901 -4.538,6.026 -6.249,9.373 -1.636,3.347 -2.863,7.028 -3.681,11.045 -0.818,3.942 -1.227,8.405 -1.227,13.388 V 224 h 90.6 v -9.373 H 628.07 v -1.674 c 0,-5.281 0.671,-9.928 2.01,-13.945 1.413,-4.017 3.681,-7.923 6.805,-11.717 3.124,-3.794 7.178,-7.661 12.162,-11.603 4.983,-4.017 11.083,-8.593 18.299,-13.725 5.43,-3.868 10.561,-7.736 15.396,-11.604 4.909,-3.942 9.187,-8.218 12.832,-12.83 3.645,-4.686 6.509,-9.856 8.592,-15.509 2.157,-5.728 3.234,-12.273 3.234,-19.637 0,-6.248 -1.003,-11.903 -3.011,-16.961 -2.009,-5.058 -4.873,-9.371 -8.592,-12.942 -3.645,-3.57 -8.071,-6.323 -13.278,-8.257 -5.206,-1.934 -11.009,-2.901 -17.406,-2.901 z M 18.828,64 v 160 h 11.047 v -76.764 h 91.603 V 224 h 10.934 V 64 h -10.934 v 73.193 H 29.875 V 64 Z m 239.367,0 -60.361,160 h 12.162 l 18.297,-49.764 h 69.4 L 315.992,224 h 12.385 L 268.683,64 Z m 135.379,0 v 160 h 11.047 V 64 Z m 90.303,0 V 224 H 559.08 V 213.959 H 494.924 V 64 Z m 296.867,0 v 98.521 c 0,42.846 18.039,64.268 54.115,64.268 37.936,0 56.903,-22.241 56.903,-66.723 V 64 h -10.934 v 98.521 c 0,36.077 -14.617,54.116 -43.85,54.116 -30.2,0 -45.3,-18.56 -45.3,-55.678 V 64 Z m 277.231,0 v 160 h 11.044 V 91.67 c 0,-2.752 -0.073,-5.095 -0.222,-7.029 h 0.445 l 1.451,2.232 c 1.488,2.604 3.199,5.207 5.133,7.811 L 1171.111,224 h 7.811 V 64 h -11.045 v 125.076 c 0,3.719 0.185,8.182 0.556,13.389 h -0.556 c -2.455,-4.017 -4.724,-7.437 -6.807,-10.264 L 1066.453,64 Z m 200.091,0 v 160 h 78.438 v -10.041 h -67.391 v -65.607 h 59.135 v -10.043 h -59.135 V 74.152 h 63.709 V 64 Z m 138.615,0 v 10.152 h 46.192 V 224 h 10.935 V 74.152 H 1500 V 64 Z M 262.771,77.947 h 0.446 c 0.595,1.86 1.153,3.719 1.674,5.578 0.52,2.158 1.189,4.353 2.007,6.584 L 293.9,164.084 H 232.199 L 259.09,89.885 c 1.19,-3.05 2.417,-7.028 3.681,-11.938 z m 711.037,130.098 c -2.529,0 -4.65,0.855 -6.361,2.566 -1.711,1.637 -2.566,3.756 -2.566,6.36 0,2.529 0.855,4.685 2.566,6.47 1.711,1.711 3.832,2.567 6.361,2.567 2.53,0 4.686,-0.856 6.471,-2.567 1.785,-1.785 2.678,-3.941 2.678,-6.47 0,-2.604 -0.893,-4.723 -2.678,-6.36 -1.785,-1.711 -3.941,-2.566 -6.471,-2.566 z"/>
</svg>
