<svg
  xmlns="http://www.w3.org/2000/svg"
  width="204"
  height="272"
  viewBox="0 0 204 272"
  role="img"
  aria-labelledby="logo-title">
  <title
    id="logo-title">Hail2u.net</title>
  <path
    d="m 1,56 v 160 h 36 v -65.16 h 66 V 216 h 36 V 56 h -36 v 63.822 H 37 V 56 Z m 181.822,126.553 c -5.849,0 -10.747,1.682 -14.695,5.045 -3.875,3.363 -5.813,7.676 -5.813,12.939 0,5.118 1.901,9.432 5.703,12.941 3.802,3.509 8.553,5.264 14.256,5.264 6.141,0 11.112,-1.682 14.914,-5.045 3.875,-3.436 5.813,-7.823 5.813,-13.16 0,-5.191 -1.901,-9.467 -5.703,-12.83 -3.729,-3.436 -8.553,-5.154 -14.475,-5.154 z"/>
</svg>
