<svg xmlns="http://www.w3.org/2000/svg" width="768" height="768" viewBox="0 0 768 768"><g fill="#278dd2"><path d="M250.008 296.55l87.557 240.56 15.035-5.473-87.557-240.56zm30.07-10.946l87.557 240.56 15.035-5.47-87.557-240.562zm105.245-38.306l32.834 90.21-75.175 27.362 5.472 15.035 90.21-32.834-38.306-105.244zm30.07-10.945l87.557 240.56 15.035-5.47-87.557-240.562zm-58.73 166.104l5.472 15.035 75.175-27.36 35.57 97.727 15.035-5.474-41.042-112.762zM299.09 53.38l11.338 55.13c4.014 19.508 13.737 23.27 22.784 21.402 9.526-1.956 17.22-9.79 12.97-30.473l-11.006-53.483-5.06 1.042 11.125 54.067c3.123 15.156-.627 22.544-8.733 24.217-7.17 1.47-13.95-2.893-17.236-18.877L304.15 52.34l-5.06 1.04zm-67.543 27.985c-.58.222-1.157.475-1.74.774-6.313 3.208-8.964 8.324-9.908 11.227l3.4 2.445c.796-1.616 2.318-6.293 7.77-9.065 6.96-3.537 13.152-.088 17.72 8.898 7.612 14.976 4.1 35.877 2.054 51.455l-1.328 10.093 1.417 2.783 30.586-15.548-2.114-4.17-24.284 12.34-.082-.225 1.22-9.777c2.247-17.828 3.84-36.408-2.795-49.46-5.145-10.13-13.222-15.1-21.89-11.78zm-77.377 50.697l-3.88 3.4 53.292 60.84 21.932-19.21-2.92-3.343-18.058 15.82-50.366-57.508zm297.398-82.704l-20.32 78.287 4.76 1.236 8.564-32.987c4.49-17.31 6.717-25.9 9.042-38.196l.236.063c.385 12.375 1.49 21.465 2.715 31.086l5.687 46.85 4.996 1.3 20.328-78.294-4.77-1.233-8.984 34.61c-3.374 13.008-5.427 20.906-8.472 35.987l-.233-.054c-.54-10.317-1.982-21.966-3.248-32.84l-5.307-44.52-4.995-1.295zM112.965 177.146l-3.096 4.124 64.664 48.58 3.104-4.13-64.673-48.574zm275.24-61.567c-1.553.67-2.532 2.336-2.587 4.495-.07 2.877 1.568 4.835 3.97 4.887 2.878.07 4.364-1.812 4.43-4.7.062-2.873-1.33-4.942-4.09-5.012-.633-.014-1.21.1-1.722.33zM73.113 244.13l-1.98 4.5 66.29 50.12 2.033-4.615-22.86-17.167 8.098-18.335 28.08 5.316 2.137-4.833-81.798-14.987zm5.727 5.152c6.37 1.63 12.073 2.97 18.363 4.17l22.937 4.486-7.164 16.25-18.718-13.768c-4.952-3.636-9.958-7.156-15.61-10.696l.19-.442zM543.19 82.302l-40.24 70.165 25.705 14.748 2.274-3.956-21.236-12.182 17.734-30.92 18.525 10.635 2.274-3.956-18.534-10.632 15.705-27.372 19.88 11.408 2.27-3.965-24.356-13.972zM48.182 322.547l-.66 5.113 35.83 4.602-3.387 26.305-35.818-4.596-.658 5.114 80.214 10.306.66-5.114-39.866-5.124 3.375-26.31 39.87 5.132.657-5.123-80.22-10.304zm559.413-196.534l-3.073 3.194 10.893 10.486-52.98 55.094 3.72 3.583 52.987-55.107 10.893 10.487 3.08-3.207-25.52-24.53zm52.97 129.216l.033.094-.034-.094zm.033.094l-5.102 19.49-20.357.907 16.744 11.123-5.712 19.276 16.2-12.357 16.474 11.723-6.974-19.16 16.786-12.825-21.107.926-6.952-19.104zM89.408 463.325l7.003 19.15-16.758 12.857 21.104-.977 7.002 19.15 5.073-19.565 20.368-.964-16.816-11.162 5.675-19.294-16.18 12.402-16.5-11.682zM644.27 399.31l-.67 5.117 39.857 5.213-3.432 26.3-39.87-5.22-.66 5.116 80.186 10.497.67-5.118-35.81-4.684 3.444-26.292 35.812 4.684.67-5.118-80.196-10.494zM201.416 569.275l-53.114 54.97-10.872-10.504-3.088 3.19 25.456 24.597 3.087-3.19-10.873-10.503 53.114-54.972-3.71-3.587zm37.423 31.245l-2.278 3.947 21.2 12.226-17.805 30.872-18.504-10.665-2.277 3.947 18.507 10.674-15.773 27.334-19.853-11.45-2.278 3.947 24.317 14.04 40.413-70.067-25.67-14.803zm391.555-130.596l-2.05 4.598 22.817 17.225-8.136 18.317-28.074-5.382-2.15 4.826 81.764 15.18 2.003-4.496-66.175-50.268zm24.39 24.612l18.67 13.817c4.956 3.645 9.943 7.172 15.592 10.735l-.193.432c-6.366-1.64-12.062-2.995-18.356-4.205l-22.926-4.543 7.212-16.236zM300.172 630.884l-20.506 78.24 4.763 1.247 9.064-34.595c3.41-13 5.474-20.892 8.555-35.965l.235.063c.52 10.315 1.93 21.965 3.175 32.845l5.202 44.526 4.99 1.312 20.506-78.242-4.763-1.246-8.634 32.972c-4.537 17.295-6.786 25.882-9.136 38.166l-.236-.063c-.354-12.375-1.446-21.46-2.64-31.08l-5.585-46.867-4.99-1.312zm292.94-92.15L590 542.848l64.55 48.73 3.112-4.11-64.55-48.732zm-29.12 33.47l-21.985 19.153 2.913 3.356 18.1-15.77 50.214 57.62 3.897-3.388-53.138-60.972zM375.917 643.39c-1.653.603-2.494 2.24-2.55 4.398-.07 2.878 1.313 4.95 4.073 5.02 2.524.06 4.257-1.932 4.327-4.81.07-2.877-1.56-4.838-3.955-4.902-.722-.025-1.352.087-1.894.295zm54.816-4.094c-7.81 3.077-13.26 11.318-9.582 29.432l10.877 53.507 5.05-1.03-10.983-54.096c-3.085-15.17.68-22.543 8.794-24.198 7.177-1.452 13.943 2.928 17.19 18.923l10.993 54.092 5.062-1.034-11.21-55.152c-3.965-19.52-13.673-23.298-22.73-21.46-1.19.242-2.353.58-3.46 1.016zm85.812-30.882l-30.623 15.477 2.107 4.183 24.314-12.287.082.225-1.255 9.77c-2.28 17.825-3.923 36.407 2.682 49.466 5.47 10.82 14.287 15.775 23.607 11.063 6.318-3.195 8.98-8.304 9.936-11.205l-3.39-2.448c-.8 1.61-2.34 6.29-7.8 9.042-6.964 3.524-13.15.06-17.693-8.938-7.575-14.994-4.017-35.89-1.937-51.46l1.35-10.09-1.408-2.788zM307.384 173.505c-116.202 42.294-176.172 170.9-133.878 287.103C215.8 576.81 344.406 636.78 460.61 594.486c116.2-42.294 176.17-170.9 133.877-287.103-42.294-116.202-170.9-176.172-287.103-133.878zm2.736 7.517c112.143-40.816 236.033 16.954 276.85 129.097 40.816 112.142-16.954 236.032-129.097 276.848-112.143 40.817-236.033-16.954-276.85-129.096C140.208 345.73 197.98 221.84 310.12 181.022zM252.66 23.154C53.42 95.674-49.362 316.088 23.157 515.33 95.674 714.574 316.09 817.356 515.332 744.837c199.243-72.518 302.024-292.934 229.506-492.176C672.318 53.417 451.903-49.364 252.66 23.154zm2.737 7.518C450.58-40.368 666.28 60.212 737.32 255.396c71.04 195.183-29.54 410.882-224.724 481.923-195.183 71.04-410.882-29.542-481.923-224.725-71.04-195.183 29.54-410.882 224.724-481.923z"/></g></svg>