<?xml version="1.0" encoding="UTF-8" standalone="no"?>
<svg
  xmlns="http://www.w3.org/2000/svg"
  version="1.1"
  width="512"
  height="512"
  viewBox="0 0 512 512">
  <path
    d="M -16 -16 L -16 528 L 528 528 L 528 -16 L -16 -16 z M 16 16 L 496 16 L 496 496 L 16 496 L 16 16 z M 128 128 L 128 144 L 160 144 L 160 368 L 128 368 L 128 384 L 256 384 L 256 368 L 224 368 L 224 256 L 336 256 L 336 368 L 304 368 L 304 384 L 384 384 L 384 368 L 352 368 L 352 144 L 384 144 L 384 128 L 304 128 L 304 144 L 336 144 L 336 240 L 224 240 L 224 144 L 256 144 L 256 128 L 128 128 z M 176 144 L 208 144 L 208 368 L 176 368 L 176 144 z"
    style="fill:#1188bb"/>
</svg>
