<svg
  xmlns="http://www.w3.org/2000/svg"
  width="532.117"
  height="272"
  viewBox="0 0 532.117 272"
  role="img"
  aria-labelledby="logo-title">
  <title
    id="logo-title">Hail2u</title>
  <path
    d="m 386.865,54.258 c -12.844,10e-7 -20.681,5.008 -25.252,12.627 -4.571,7.619 -6.096,18.068 -6.096,28.734 v 11.102 h 23.512 V 95.619 c 0,-5.224 0.435,-10.014 1.523,-13.715 1.088,-3.483 3.047,-5.877 6.313,-5.877 3.483,0 5.443,2.831 6.531,6.531 1.088,3.701 1.305,8.707 1.305,13.061 -0.218,9.796 -3.047,20.679 -6.748,31.781 -3.701,11.102 -8.489,21.988 -13.496,31.566 -5.878,11.32 -12.408,22.638 -19.592,33.74 v 23.293 h 63.781 v -23.293 h -37.223 c 6.095,-10.231 15.237,-26.558 23.074,-44.844 7.619,-18.068 13.715,-37.441 13.715,-53.768 0,-11.102 -1.742,-21.115 -6.531,-28.299 -4.788,-6.964 -12.843,-11.537 -24.816,-11.537 z M 16,56 V 216 H 39.51 V 146.34 H 57.797 V 216 h 23.51 V 56 h -23.51 v 66.178 H 39.51 V 56 Z m 118.682,0 -24.164,160 h 22.857 l 4.354,-32.652 H 160.37 L 164.724,216 h 22.857 L 163.416,56 Z m 81.715,0 v 160 h 23.51 V 56 Z m 58.957,0 v 160 h 54.641 V 194.231 H 298.863 V 56 Z m 178.07,0 v 127.129 c 0.218,6.531 1.523,12.409 3.918,17.416 1.959,4.354 4.789,8.489 9.143,11.754 4.354,3.483 10.45,5.443 18.287,5.443 7.837,0 13.715,-1.96 18.068,-5.443 4.354,-3.265 7.4,-7.4 9.359,-11.754 2.395,-5.007 3.7,-10.885 3.918,-17.416 V 56 h -23.51 v 127.129 c 0,2.395 -0.218,4.353 -0.871,5.877 -0.871,3.265 -2.829,5.879 -6.965,5.879 -1.959,0 -3.484,-0.654 -4.572,-1.742 -2.177,-2.395 -3.266,-5.442 -3.266,-10.014 V 56 Z m -305.028,47.891 h 1.305 l 0.654,4.137 6.748,50.504 h -16.109 l 6.748,-50.504 z"/>
</svg>
