<svg xmlns="http://www.w3.org/2000/svg" width="640" height="360" viewBox="0 0 640 360"><path fill="#fcf6e4" d="M-16-16h672v392H-16z"/><path d="M197.56 163.92v32.57h2.21v-9.17l2.23-2.39 9 11.56h2.66l-10.14-12.88 8.9-9.13h-2.66l-7.8 8.16c-.69.73-1.56 1.74-2.11 2.43h-.14v-21.15h-2.21zm71.43 0v32.57h2.21v-13.44c0-.92.14-1.51.26-2.2.97-2.71 3.53-4.95 6.65-4.95 4.5 0 6.05 3.57 6.05 7.57v13.02h2.21v-13.26c0-8.2-5.6-9.25-7.66-9.25-1.65 0-3.17.45-4.45 1.28-1.28.73-2.33 1.92-2.98 3.16h-.14v-14.5h-2.21zm204.56 0v32.57h2.2v-32.57h-2.2zm-85.75 1.16c-5.27 0-8.98 3.3-8.98 7.84 0 4.22 2.98 6.78 7.93 8.52 4.5 1.75 6.28 3.77 6.28 7.26 0 3.79-2.84 6.41-7.48 6.41-2.56 0-4.99-.83-6.73-2.01l-.83 1.78c1.6 1.24 4.72 2.11 7.38 2.11 6.61 0 9.82-4.03 9.82-8.53 0-4.63-2.7-6.92-7.79-8.99-4.46-1.74-6.43-3.48-6.43-6.91 0-2.44 1.7-5.66 6.69-5.66 2.66 0 4.64.88 5.46 1.48l.83-1.84c-1.06-.73-3.26-1.46-6.15-1.46zm-245.56.5L140 196.49h2.15l.97-14.22c.36-5.13.59-10.5.69-14.13h.14c.91 3.4 2.25 7.12 3.99 11.92l6.1 16.43h1.51l6.51-16.83c1.8-4.59 3.03-8.16 4.17-11.52h.14c0 3.36.37 9.04.64 13.67l.92 14.68h2.16l-2.07-30.91h-2.62l-6.91 17.83c-1.57 4.14-2.66 7.16-3.45 10h-.14c-.87-2.98-1.93-6.09-3.39-10.04l-6.65-17.79h-2.52zm101.4 0v1.83h10.08v29.08h2.21v-29.08h10.08v-1.83h-22.37zm50.98.69c-1.01 0-1.78.91-1.78 1.93 0 1 .69 1.87 1.7 1.87 1.14 0 1.83-.87 1.83-1.87 0-1.06-.74-1.93-1.75-1.93zm107.57 0c-1 0-1.79.91-1.79 1.93 0 1 .69 1.87 1.7 1.87 1.14 0 1.83-.87 1.83-1.87 0-1.06-.73-1.93-1.74-1.93zm-219.27 7.71c-1.97 0-4.44.54-6.47 1.87l.69 1.61c1.61-1.15 3.63-1.66 5.56-1.66 5.23-.14 5.64 4.32 5.64 6.47v.59c-8.99-.14-13.45 2.98-13.45 8.07 0 2.94 2.03 6.06 6.47 6.06 3.53 0 5.96-1.96 7.06-3.67h.14l.32 3.17h2.02c-.27-1.7-.33-3.49-.33-5.23v-8.62c0-3.9-1.24-8.66-7.61-8.66zm42.73 0c-5.69 0-9.91 4.58-9.91 11.92 0 6.45 3.95 11.05 10.28 11.05 3.85 0 6.09-.97 6.92-1.43l-.55-1.69c-1.24.59-2.9 1.24-6.1 1.24-4.59 0-8.4-2.8-8.4-9.82h16.24c.14-.4.14-.73.14-1.33 0-3.17-1.36-9.94-8.56-9.94zm87.14 0c-3.59 0-6.38 2.01-7.58 4.48h-.14l-.14-3.98h-2.07c.14 1.73.18 3.25.18 5.28v16.73h2.21v-13.63c0-.69.14-1.42.28-1.97.86-2.84 3.53-5.04 6.6-5.04 4.54 0 6.1 3.62 6.1 7.62v13.02h2.19v-13.21c0-8.25-5.58-9.3-7.69-9.3zm22.93 0c-4.86 0-9.91 4.03-9.91 11.68 0 6.02 3.89 10.83 9.45 10.83 3.95 0 6.51-2.03 7.66-4.26h.14v3.1c0 6.53-3.34 8.91-7.97 8.91-2.84 0-5.01-.83-6.57-1.83l-.77 1.74c1.7 1.28 4.5 1.93 7.02 1.93 2.47 0 5.45-.69 7.48-2.62 1.82-1.74 3.02-4.54 3.02-10.18v-13.12c0-2.29.14-4.03.18-5.68h-2.02l-.14 3.71h-.14c-.92-1.84-3.07-4.21-7.43-4.21zm22.65 0c-4.27 0-6.79 2.79-6.79 5.96 0 2.66 1.97 4.62 5.6 6 3.16 1.28 4.62 2.56 4.62 4.99 0 2.3-1.64 4.18-5.13 4.18-1.97 0-3.75-.77-4.95-1.52l-.78 1.84c1.47.92 3.48 1.52 5.59 1.52 4.5 0 7.44-2.53 7.44-6.28 0-3.35-2.11-5.14-5.69-6.51-2.99-1.24-4.55-2.25-4.55-4.55 0-2.02 1.48-3.81 4.28-3.81 2.19 0 3.61.79 4.4 1.34l.82-1.8c-1.1-.77-2.85-1.36-4.86-1.36zm61.58 0c-3.63 0-5.74 1.87-7.16 4.4h-.14l-.14-3.9h-2.07c.14 1.73.18 3.25.18 5.28v16.73h2.2v-13.57c0-.75.14-1.52.32-2.11.83-2.57 3.16-4.96 6.1-4.96 3.57 0 5.46 2.89 5.46 6.89v13.75h2.21v-14.13c0-.78.18-1.51.36-2.15.87-2.34 3.03-4.36 5.78-4.36 3.8 0 5.72 2.94 5.72 7.88v12.76h2.21v-12.98c0-8.35-5.05-9.53-7.2-9.53-2.35 0-3.81.63-5.23 1.82-.83.69-1.64 1.66-2.25 2.99h-.14c-.97-2.8-3.3-4.81-6.33-4.81zm38.48 0c-3.81 0-6.51 1.78-8.11 4.66h-.14l-.14-4.16h-2.11c.14 2.11.18 4.26.18 7.02v24.07h2.21v-12.65h.14c1.52 2.65 4.32 4.07 7.48 4.07 5.31 0 10-4.03 10-11.88 0-6.47-3.81-11.13-9.49-11.13zm32.95 0c-5.68 0-9.9 4.58-9.9 11.92 0 6.45 3.95 11.05 10.26 11.05 3.87 0 6.1-.97 6.93-1.43l-.55-1.69c-1.23.59-2.88 1.24-6.1 1.24-4.58 0-8.39-2.8-8.39-9.82h16.22c.15-.4.15-.73.15-1.33 0-3.17-1.37-9.94-8.58-9.94zm-197.85.5v22.01h2.19v-22.01h-2.19zm107.56 0v22.01h2.21v-22.01h-2.21zm-175.72 1.32c5.32 0 6.61 4.64 6.55 7.71h-13.93c.41-3.39 2.52-7.71 7.38-7.71zm110.53 0c3.62 0 5.91 2.34 6.84 5.01.22.63.27 1.32.27 2.15v4.4c0 .78-.15 1.61-.37 2.34-1.14 3.16-3.85 4.96-6.83 4.96-5.18 0-7.79-4.27-7.79-9.22 0-5.83 3.2-9.64 7.88-9.64zm122.07 0c5 0 7.74 4.45 7.74 9.41 0 5.86-2.88 9.94-7.93 9.94-3.38 0-6.32-2.19-7.24-5.59-.14-.55-.18-1.14-.18-1.73v-4.32c0-.59.18-1.28.32-1.88.96-3.62 4.08-5.83 7.29-5.83zm33.14 0c5.31 0 6.61 4.64 6.55 7.71h-13.93c.4-3.39 2.51-7.71 7.38-7.71zm-304.64 8.9h1.87v4.73c0 .36 0 .87-.23 1.32-.74 2.17-2.85 4.4-6.51 4.4-2.3 0-4.41-1.42-4.41-4.58 0-4.61 4.85-5.75 9.28-5.87z" fill="#cfc39f"/></svg>