<svg xmlns="http://www.w3.org/2000/svg" width="640" height="360" viewBox="0 0 640 360"><path fill="#5bacd0" d="M-16-16h672v392H-16z"/><path d="M159.83 152.43v42.6h2.88v-12l2.94-3.12 11.76 15.12h3.48l-13.26-16.86 11.64-11.94h-3.48l-10.2 10.68c-.9.96-2.04 2.28-2.76 3.18h-.12v-27.66h-2.88zm93.46 0v42.6h2.88v-17.58c0-1.2.1-1.98.36-2.88 1.26-3.54 4.62-6.48 8.7-6.48 5.88 0 7.92 4.68 7.92 9.9v17.04h2.88v-17.34c0-10.74-7.32-12.12-10.02-12.12-2.16 0-4.14.6-5.82 1.68-1.68.96-3.06 2.52-3.9 4.14h-.12v-18.96h-2.88zm267.65 0v42.6h2.88v-42.6h-2.88zm-112.19 1.5c-6.9 0-11.76 4.32-11.76 10.26 0 5.52 3.9 8.88 10.38 11.16 5.88 2.28 8.22 4.92 8.22 9.48 0 4.98-3.72 8.4-9.78 8.4-3.36 0-6.54-1.08-8.82-2.64l-1.08 2.34c2.1 1.62 6.18 2.76 9.66 2.76 8.64 0 12.84-5.28 12.84-11.16 0-6.06-3.54-9.06-10.2-11.76-5.82-2.28-8.4-4.56-8.4-9.06 0-3.18 2.22-7.38 8.76-7.38 3.48 0 6.06 1.14 7.14 1.92l1.08-2.4c-1.38-.96-4.26-1.92-8.04-1.92zm-321.298.66l-2.942 40.44h2.82l1.26-18.6c.48-6.72.78-13.74.9-18.48h.122c1.2 4.44 2.94 9.3 5.22 15.6l7.978 21.48h1.98l8.52-22.02c2.34-6 3.96-10.68 5.46-15.06h.12c0 4.38.48 11.82.84 17.88l1.2 19.2h2.82l-2.7-40.44h-3.42l-9.06 23.34c-2.04 5.4-3.48 9.36-4.5 13.08h-.18c-1.14-3.9-2.52-7.98-4.438-13.14l-8.7-23.28h-3.3zm132.658 0v2.4h13.2v38.04h2.88v-38.04h13.2v-2.4h-29.28zm66.72.9c-1.32 0-2.34 1.2-2.34 2.52s.9 2.46 2.22 2.46c1.5 0 2.4-1.14 2.4-2.46 0-1.38-.96-2.52-2.28-2.52zm140.75 0c-1.32 0-2.34 1.2-2.34 2.52s.9 2.46 2.22 2.46c1.5 0 2.4-1.14 2.4-2.46 0-1.38-.96-2.52-2.28-2.52zm-286.9 10.08c-2.58 0-5.82.72-8.46 2.46l.9 2.1c2.1-1.5 4.74-2.16 7.26-2.16 6.84-.1 7.38 5.64 7.38 8.46v.78c-11.76-.12-17.58 3.9-17.58 10.56 0 3.84 2.64 7.92 8.46 7.92 4.62 0 7.8-2.58 9.24-4.8h.12l.42 4.14h2.64c-.36-2.22-.42-4.56-.42-6.84v-11.28c0-5.1-1.62-11.34-9.96-11.34zm55.9 0c-7.44 0-12.96 6-12.96 15.6 0 8.46 5.16 14.46 13.44 14.46 5.04 0 7.98-1.26 9.06-1.86l-.72-2.22c-1.62.78-3.78 1.62-7.98 1.62-6 0-10.98-3.66-10.98-12.84h21.24c.12-.54.12-.96.12-1.74 0-4.14-1.8-13.02-11.22-13.02zm114.01 0c-4.68 0-8.34 2.64-9.9 5.88h-.12l-.18-5.22h-2.7c.18 2.28.24 4.26.24 6.9v21.9h2.88v-17.82c0-.9.18-1.86.36-2.58 1.14-3.72 4.62-6.6 8.64-6.6 5.94 0 7.98 4.74 7.98 9.96v17.04h2.88v-17.28c0-10.8-7.32-12.18-10.08-12.18zm30.01 0c-6.36 0-12.96 5.28-12.96 15.3 0 7.86 5.1 14.16 12.36 14.16 5.16 0 8.52-2.64 10.02-5.58h.12v4.08c0 8.52-4.38 11.64-10.44 11.64-3.72 0-6.54-1.08-8.58-2.4l-1.02 2.28c2.22 1.68 5.88 2.52 9.18 2.52 3.24 0 7.14-.9 9.78-3.42 2.4-2.28 3.96-5.94 3.96-13.32v-17.16c0-3 .1-5.28.24-7.44h-2.64l-.18 4.86h-.12c-1.2-2.4-4.02-5.52-9.72-5.52zm29.64 0c-5.58 0-8.88 3.66-8.88 7.8 0 3.48 2.58 6.06 7.32 7.86 4.14 1.68 6.06 3.36 6.06 6.54 0 3-2.16 5.46-6.72 5.46-2.58 0-4.92-1.02-6.48-1.98l-1.02 2.4c1.92 1.2 4.56 1.98 7.32 1.98 5.88 0 9.72-3.3 9.72-8.22 0-4.38-2.76-6.72-7.44-8.52-3.9-1.62-5.94-2.94-5.94-5.94 0-2.64 1.92-4.98 5.58-4.98 2.88 0 4.74 1.02 5.76 1.74l1.08-2.34c-1.44-1.02-3.72-1.8-6.36-1.8zm80.56 0c-4.74 0-7.5 2.46-9.36 5.76h-.12l-.18-5.1h-2.7c.18 2.28.24 4.26.24 6.9v21.9h2.88v-17.76c0-.96.18-1.98.42-2.76 1.08-3.36 4.14-6.48 7.98-6.48 4.68 0 7.14 3.78 7.14 9v18h2.88v-18.48c0-1.02.24-1.98.48-2.82 1.14-3.06 3.96-5.7 7.56-5.7 4.98 0 7.5 3.84 7.5 10.32v16.68h2.88v-16.98c0-10.92-6.6-12.48-9.42-12.48-3.06 0-4.98.84-6.84 2.4-1.08.9-2.16 2.16-2.94 3.9h-.12c-1.26-3.66-4.32-6.3-8.28-6.3zm50.36 0c-4.98 0-8.52 2.34-10.62 6.12h-.12l-.18-5.46h-2.76c.18 2.76.24 5.58.24 9.18v31.5h2.88v-16.56h.12c1.98 3.48 5.64 5.34 9.78 5.34 6.96 0 13.08-5.28 13.08-15.54 0-8.46-4.98-14.58-12.42-14.58zm43.11 0c-7.43 0-12.95 6-12.95 15.6 0 8.46 5.16 14.46 13.43 14.46 5.05 0 7.98-1.26 9.07-1.86l-.72-2.22c-1.62.78-3.78 1.62-7.99 1.62-6 0-10.98-3.66-10.98-12.84h21.24c.12-.54.12-.96.12-1.74 0-4.14-1.79-13.02-11.22-13.02zm-258.88.66v28.8h2.88v-28.8h-2.88zm140.75 0v28.8h2.88v-28.8h-2.88zm-229.92 1.74c6.96 0 8.64 6.06 8.58 10.08h-18.24c.54-4.44 3.3-10.08 9.66-10.08zm144.62 0c4.74 0 7.74 3.06 8.94 6.54.3.84.36 1.74.36 2.82v5.76c0 1.02-.18 2.1-.48 3.06-1.5 4.14-5.04 6.48-8.94 6.48-6.78 0-10.2-5.58-10.2-12.06 0-7.62 4.2-12.6 10.32-12.6zm159.72 0c6.54 0 10.14 5.82 10.14 12.3 0 7.68-3.78 13.02-10.38 13.02-4.44 0-8.28-2.88-9.48-7.32-.18-.72-.24-1.5-.24-2.28v-5.64c0-.78.24-1.68.42-2.46 1.26-4.74 5.34-7.62 9.54-7.62zm43.35 0c6.96 0 8.65 6.06 8.58 10.08h-18.24c.55-4.44 3.31-10.08 9.66-10.08zm-398.59 11.64h2.44v6.18c0 .48-.1 1.14-.3 1.74-.96 2.82-3.72 5.76-8.52 5.76-3 0-5.76-1.86-5.76-6 0-6.04 6.34-7.53 12.14-7.68z" fill="#3598c3"/></svg>