<?xml version="1.0" encoding="UTF-8" standalone="no"?>
<svg
  xmlns="http://www.w3.org/2000/svg"
  version="1.1"
  width="640"
  height="640"
  viewBox="0 0 640 640">
  <path
    d="M -16 -16 L -16 656 L 656 656 L 656 -16 L -16 -16 z M 128 64 L 160 64 L 160 576 L 128 576 L 128 64 z M 192 64 L 224 64 L 224 576 L 192 576 L 192 64 z M 416 64 L 448 64 L 448 288 L 256 288 L 256 256 L 416 256 L 416 64 z M 480 64 L 512 64 L 512 576 L 480 576 L 480 64 z M 256 320 L 448 320 L 448 576 L 416 576 L 416 352 L 256 352 L 256 320 z "
    style="fill:#e1ddd5"/>
</svg>
