<?xml version="1.0" encoding="UTF-8" standalone="no"?>
<svg
  xmlns="http://www.w3.org/2000/svg"
  version="1.1"
  width="512"
  height="512"
  viewBox="0 0 512 512">
  <rect
    width="544"
    height="544"
    x="-16"
    y="-16"
    style="fill:#e1ddd5"/>
  <path
    d="m 128,128 0,16 32,0 0,224 -32,0 0,16 128,0 0,-16 -32,0 0,-112 112,0 0,112 -32,0 0,16 80,0 0,-16 -32,0 0,-224 32,0 0,-16 -80,0 0,16 32,0 0,96 -112,0 0,-96 32,0 0,-16 z m 48,16 32,0 0,224 -32,0 z"
    style="fill:#fcf9f0"/>
</svg>
