<?xml version="1.0" encoding="UTF-8" standalone="no"?>
<svg
  xmlns="http://www.w3.org/2000/svg"
  version="1.1"
  width="640"
  height="360"
  viewBox="0 0 640 360">
  <rect
    width="672"
    height="392"
    x="-16"
    y="-16"
    style="fill:#2a372f"/>
  <path
    d="m 367.98,147.97 c -8.84,0 -16.35,3.09 -22.52,9.26 -6.29,6.4 -9.43,13.98 -9.43,22.74 0,8.73 3.14,16.23 9.43,22.52 6.33,6.32 13.83,9.48 22.52,9.48 8.8,0 16.44,-3.18 22.91,-9.54 6.09,-5.98 9.14,-13.47 9.14,-22.46 0,-8.99 -3.1,-16.57 -9.31,-22.74 -6.17,-6.17 -13.75,-9.26 -22.74,-9.26 z m -96.07,0.1 c -8.83,0 -16.34,3.09 -22.51,9.26 -6.29,6.4 -9.43,13.98 -9.43,22.74 0,8.76 3.14,16.28 9.43,22.57 6.36,6.29 13.86,9.43 22.51,9.43 8.8,0 16.44,-3.18 22.92,-9.54 6.09,-5.98 9.14,-13.47 9.14,-22.46 0,-8.95 -3.1,-16.53 -9.31,-22.74 -6.17,-6.17 -13.76,-9.26 -22.75,-9.26 z m 96.18,5.66 c 7.27,0 13.44,2.57 18.51,7.71 5.11,5.03 7.66,11.22 7.66,18.57 0,2.33 -0.27,4.61 -0.8,6.86 l -16.4,-7.31 -5.14,-2.29 -2.8,-1.26 -4.06,-1.83 c -0.19,-0.27 -0.28,-0.53 -0.28,-0.8 0,-0.91 0.38,-1.56 1.14,-1.94 0.8,-0.38 1.69,-0.57 2.68,-0.57 1.87,0 3.7,0.63 5.49,1.89 l 4.17,-4.29 c -2.4,-1.83 -5.07,-2.82 -8,-2.97 l 0,-4.92 -3.71,0 0,4.92 c -1.98,0.11 -3.71,0.68 -5.2,1.71 -1.49,0.99 -2.5,2.33 -3.03,4 l -12.23,-5.48 c 1.11,-1.6 2.29,-3.03 3.54,-4.29 5.03,-5.14 11.19,-7.71 18.46,-7.71 z m -96.06,0.11 c 7.23,0 13.4,2.55 18.51,7.66 5.11,5.11 7.66,11.3 7.66,18.57 0,7.39 -2.51,13.51 -7.54,18.34 -5.3,5.22 -11.51,7.83 -18.63,7.83 -7.17,0 -13.34,-2.59 -18.52,-7.77 -5.18,-5.18 -7.77,-11.31 -7.77,-18.4 0,-7.05 2.61,-13.24 7.83,-18.57 5.03,-5.11 11.18,-7.66 18.46,-7.66 z m -0.1,5.54 c -2.97,0 -4.46,1.51 -4.46,4.52 0,2.97 1.49,4.46 4.46,4.46 2.97,0 4.46,-1.49 4.46,-4.46 0,-3.01 -1.49,-4.52 -4.46,-4.52 z m -6.57,10.69 c -0.57,0 -1.07,0.21 -1.49,0.63 -0.38,0.38 -0.57,0.86 -0.57,1.43 l 0,13.08 3.66,0 0,15.55 9.94,0 0,-15.55 3.66,0 0,-13.08 c 0,-0.57 -0.21,-1.05 -0.63,-1.43 -0.42,-0.42 -0.9,-0.63 -1.43,-0.63 l -13.14,0 z m 77.83,1.31 16.35,7.32 5.08,2.23 3.77,1.71 3.09,1.32 c 0.57,0.49 0.86,1.14 0.86,1.94 0,1.14 -0.4,1.96 -1.2,2.46 -0.77,0.49 -1.7,0.74 -2.8,0.74 -2.67,0 -5.05,-0.97 -7.15,-2.92 l -4.4,4.46 c 2.93,2.49 6.17,3.76 9.72,3.83 l 0,4.91 3.71,0 0,-4.91 c 2.21,-0.19 4.12,-0.92 5.72,-2.17 1.63,-1.29 2.66,-2.95 3.08,-4.97 l 12.06,5.37 c -1.07,1.94 -2.53,3.81 -4.4,5.6 -5.22,5.22 -11.43,7.83 -18.63,7.83 -7.13,0 -13.3,-2.57 -18.51,-7.72 -5.19,-5.18 -7.78,-11.31 -7.78,-18.4 0,-3.12 0.48,-6 1.43,-8.63 z"
    style="fill:#fafaf5"/>
</svg>
