<?xml version="1.0" encoding="UTF-8" standalone="no"?>
<svg
  xmlns="http://www.w3.org/2000/svg"
  version="1.1"
  width="640"
  height="360"
  viewBox="0 0 640 360">
  <rect
    width="672"
    height="392"
    x="-16"
    y="-16"
    style="fill:#17222c"/>
  <path
    d="M 402.27 250.48 C 396.27 250.48 393.35 256.84 393.35 264.2 C 393.35 271.6 395.75 278.08 401.87 278.08 C 406.99 278.08 410.59 273.96 410.59 263.8 C 410.59 257.64 408.75 250.48 402.27 250.48 z M 374.05 250.8 L 374.05 277.76 L 379.29 277.76 L 379.29 266.48 L 384.77 266.48 L 384.77 277.76 L 390.01 277.76 L 390.01 250.8 L 384.77 250.8 L 384.77 261.6 L 379.29 261.6 L 379.29 250.8 L 374.05 250.8 z M 412.09 250.8 L 416.69 277.76 L 421.89 277.76 L 423.69 268.96 C 424.25 266.32 424.69 263.32 425.17 260.08 L 425.27 260.08 C 425.63 263.36 426.03 266.44 426.47 268.92 L 428.07 277.76 L 433.47 277.76 L 438.23 250.8 L 433.11 250.8 L 431.79 261.48 C 431.43 264.6 431.11 267.48 430.75 271 L 430.65 271 C 430.33 267.48 429.85 264.48 429.37 261.44 L 427.57 250.8 L 423.33 250.8 L 421.41 261.52 C 420.85 264.76 420.25 267.68 419.89 271 L 419.77 271 C 419.45 267.72 419.21 264.64 418.85 261.56 L 417.53 250.8 L 412.09 250.8 z M 447.41 250.8 L 447.41 277.76 L 452.65 277.76 L 452.65 250.8 L 447.41 250.8 z M 402.03 255.04 C 404.43 255.04 405.15 259.32 405.15 264.04 C 405.15 269.52 404.31 273.52 402.07 273.52 C 399.95 273.52 398.79 270.4 398.79 264.28 C 398.79 258.48 399.95 255.04 402.03 255.04 z M 476.8 300.56 C 471.2 300.56 468.32 304.16 468.32 308.48 C 468.32 310.92 469.72 313.76 473.4 316 C 475.68 317.48 476.88 318.44 476.88 320.4 C 476.88 322.16 475.64 323.44 473.2 323.44 C 471.72 323.44 469.84 323 468.76 322.4 L 468 326.92 C 468.92 327.44 471 328 473.16 328 C 478.4 328 482.04 324.76 482.04 319.84 C 482.04 317 480.76 314.28 477.16 312.12 C 474.28 310.36 473.48 309.52 473.48 307.92 C 473.48 306.48 474.56 305.12 476.8 305.12 C 478.28 305.12 479.44 305.56 480.2 306.04 L 481.04 301.52 C 480.28 301.04 478.6 300.56 476.8 300.56 z M 560.7 300.56 C 555.1 300.56 552.22 304.16 552.22 308.48 C 552.22 310.92 553.62 313.76 557.3 316 C 559.58 317.48 560.78 318.44 560.78 320.4 C 560.78 322.16 559.54 323.44 557.1 323.44 C 555.62 323.44 553.74 323 552.66 322.4 L 551.9 326.92 C 552.82 327.44 554.9 328 557.06 328 C 562.3 328 565.94 324.76 565.94 319.84 C 565.94 317 564.66 314.28 561.06 312.12 C 558.18 310.36 557.38 309.52 557.38 307.92 C 557.38 306.48 558.46 305.12 560.7 305.12 C 562.18 305.12 563.34 305.56 564.1 306.04 L 564.94 301.52 C 564.18 301.04 562.5 300.56 560.7 300.56 z M 539.93 300.68 C 537.69 300.68 535.57 300.84 533.97 301.2 L 533.97 327.64 C 535.17 327.84 536.85 327.96 538.85 327.96 C 543.37 327.96 546.09 327 547.69 325.24 C 548.97 323.92 549.69 322.16 549.69 319.96 C 549.69 316.96 548.05 314.4 544.93 313.52 L 544.93 313.36 C 547.57 312.2 548.81 309.88 548.81 307.48 C 548.81 305.6 548.21 303.8 546.77 302.6 C 544.89 301 542.45 300.68 539.93 300.68 z M 421.27 300.8 L 421.27 305.64 L 426.03 305.64 L 426.03 327.76 L 431.27 327.76 L 431.27 305.64 L 436.07 305.64 L 436.07 300.8 L 421.27 300.8 z M 438.81 300.8 L 438.81 327.76 L 444.05 327.76 L 444.05 316.48 L 449.53 316.48 L 449.53 327.76 L 454.77 327.76 L 454.77 300.8 L 449.53 300.8 L 449.53 311.6 L 444.05 311.6 L 444.05 300.8 L 438.81 300.8 z M 459.44 300.8 L 459.44 327.76 L 464.68 327.76 L 464.68 300.8 L 459.44 300.8 z M 489.2 300.8 L 493.8 327.76 L 499 327.76 L 500.8 318.96 C 501.36 316.32 501.8 313.32 502.28 310.08 L 502.38 310.08 C 502.74 313.36 503.14 316.44 503.58 318.92 L 505.18 327.76 L 510.58 327.76 L 515.34 300.8 L 510.22 300.8 L 508.9 311.48 C 508.54 314.6 508.22 317.48 507.86 321 L 507.76 321 C 507.44 317.48 506.96 314.48 506.48 311.44 L 504.68 300.8 L 500.44 300.8 L 498.52 311.52 C 497.96 314.76 497.36 317.68 497 321 L 496.88 321 C 496.56 317.72 496.32 314.64 495.96 311.56 L 494.64 300.8 L 489.2 300.8 z M 518.19 300.8 L 518.19 327.76 L 530.35 327.76 L 530.35 323.2 L 523.43 323.2 L 523.43 315.92 L 529.55 315.92 L 529.55 311.56 L 523.43 311.56 L 523.43 305.36 L 529.91 305.36 L 529.91 300.8 L 518.19 300.8 z M 569.05 300.8 L 569.05 327.76 L 574.29 327.76 L 574.29 300.8 L 569.05 300.8 z M 577.13 300.8 L 577.13 305.64 L 581.89 305.64 L 581.89 327.76 L 587.13 327.76 L 587.13 305.64 L 591.93 305.64 L 591.93 300.8 L 577.13 300.8 z M 594.67 300.8 L 594.67 327.76 L 606.83 327.76 L 606.83 323.2 L 599.91 323.2 L 599.91 315.92 L 606.03 315.92 L 606.03 311.56 L 599.91 311.56 L 599.91 305.36 L 606.39 305.36 L 606.39 300.8 L 594.67 300.8 z M 540.61 304.6 C 542.73 304.6 543.65 306.12 543.65 308.08 C 543.65 310.28 542.21 311.88 540.33 311.88 L 539.21 311.88 L 539.21 304.76 C 539.53 304.64 540.01 304.6 540.61 304.6 z M 539.21 315.76 L 540.33 315.76 C 542.41 315.76 544.25 317.16 544.25 319.88 C 544.25 322.6 542.53 323.92 540.37 323.92 C 539.93 323.92 539.53 323.92 539.21 323.82 L 539.21 315.76 z"
    style="fill:#4179ac"/>
  <path
    d="M 570.15 250.64 C 568.15 250.64 566.15 250.84 564.67 251.16 L 564.67 277.72 L 564.67 277.76 L 569.91 277.76 L 569.91 267.72 L 570.95 267.72 C 573.15 267.72 575.83 266.92 577.51 265.12 C 578.91 263.64 579.79 261.56 579.79 258.64 C 579.79 256.36 579.07 254.12 577.47 252.72 C 575.75 251.08 573.27 250.64 570.15 250.64 z M 513.2 250.66 C 511.2 250.66 509.12 250.86 507.48 251.18 L 507.48 277.74 L 507.48 277.76 L 512.72 277.76 L 512.72 267 L 513.52 267 C 515.24 267 516.08 267.96 516.56 271.28 C 516.96 274.28 517.56 277 517.92 277.76 L 523.4 277.76 C 522.92 276.76 522.2 273.44 521.68 270.44 C 521.16 267.52 520.24 265.84 518.4 265.08 L 518.4 264.98 C 521.12 263.74 522.56 261.14 522.56 258.26 C 522.56 255.94 522.04 254.14 520.4 252.66 C 518.68 251.1 516.08 250.66 513.2 250.66 z M 464.58 250.8 L 462.66 277.76 L 467.14 277.76 L 467.62 268.4 C 467.74 265.72 467.94 262.32 468.02 259.4 L 468.12 259.4 C 468.56 262.32 469.28 265.68 469.8 267.84 L 472.04 277.32 L 475.72 277.32 L 478.08 267.68 C 478.6 265.6 479.32 262.28 479.8 259.4 L 479.9 259.4 C 479.9 262.28 480.02 265.76 480.18 268.32 L 480.66 277.76 L 485.3 277.76 L 483.66 250.8 L 478.14 250.8 L 475.98 260.56 C 475.3 263.96 474.7 267 474.3 270 L 474.18 270 C 473.7 266.96 473.02 263.96 472.3 260.56 L 470.14 250.8 L 464.58 250.8 z M 492.96 250.8 L 487.12 277.76 L 492.2 277.76 L 493.4 271.6 L 498.24 271.6 L 499.4 277.76 L 504.48 277.76 L 499.24 250.8 L 492.96 250.8 z M 526.31 250.8 L 526.31 277.76 L 531.55 277.76 L 531.55 268.8 L 532.75 266.6 L 536.67 277.76 L 542.43 277.76 L 536.27 262.52 L 542.35 250.8 L 536.55 250.8 L 532.95 259.44 C 532.51 260.6 532.11 261.8 531.67 262.92 L 531.55 262.92 L 531.55 250.8 L 526.31 250.8 z M 544.51 250.8 L 544.51 267.44 C 544.51 274.2 546.71 278.08 552.35 278.08 C 557.51 278.08 560.15 274.32 560.15 267.4 L 560.15 250.8 L 554.91 250.8 L 554.91 268.32 C 554.91 272.4 553.83 273.48 552.31 273.48 C 550.91 273.48 549.75 272.28 549.75 268.32 L 549.75 250.8 L 544.51 250.8 z M 514 254.76 C 516.32 254.86 517.24 256.44 517.24 258.76 C 517.24 261.12 515.96 262.96 513.68 262.96 L 512.72 262.96 L 512.72 254.92 C 513 254.8 513.52 254.76 514 254.76 z M 571.19 254.92 C 573.63 254.92 574.59 256.76 574.59 259.12 C 574.59 261.64 573.43 263.52 570.79 263.52 L 569.91 263.52 L 569.91 255.16 L 569.91 255.12 C 570.23 255 570.71 254.92 571.19 254.92 z M 495.88 255.76 L 496 255.76 C 496.24 257.52 496.6 260.24 496.88 261.88 L 497.76 267.52 L 493.92 267.52 L 494.92 261.88 C 495.2 260.32 495.6 257.56 495.88 255.76 z M 344.77 300.56 C 339.17 300.56 336.29 304.16 336.29 308.48 C 336.29 310.92 337.69 313.76 341.37 316 C 343.65 317.48 344.85 318.44 344.85 320.4 C 344.85 322.16 343.61 323.44 341.17 323.44 C 339.69 323.44 337.81 323 336.73 322.4 L 335.97 326.92 C 336.89 327.44 338.97 328 341.13 328 C 346.37 328 350.01 324.76 350.01 319.84 C 350.01 317 348.73 314.28 345.13 312.12 C 342.25 310.36 341.45 309.52 341.45 307.92 C 341.45 306.48 342.53 305.12 344.77 305.12 C 346.25 305.12 347.41 305.56 348.17 306.04 L 349.01 301.52 C 348.25 301.04 346.57 300.56 344.77 300.56 z M 351.27 300.8 L 351.27 305.64 L 356.03 305.64 L 356.03 327.76 L 361.27 327.76 L 361.27 305.64 L 366.07 305.64 L 366.07 300.8 L 351.27 300.8 z M 367.2 300.8 L 373.12 317.44 L 373.12 327.76 L 378.36 327.76 L 378.38 327.76 L 378.38 317.24 L 384.42 300.8 L 378.98 300.8 L 377.38 307.12 C 376.9 309.04 376.46 311 376.14 312.96 L 376.04 312.96 C 375.64 310.96 375.12 308.96 374.6 307.24 L 372.8 300.8 L 367.2 300.8 z M 386.23 300.8 L 386.23 327.76 L 398.35 327.76 L 398.35 323.32 L 391.47 323.32 L 391.47 300.8 L 386.23 300.8 z M 401.47 300.8 L 401.47 327.76 L 413.63 327.76 L 413.63 323.2 L 406.71 323.2 L 406.71 315.92 L 412.83 315.92 L 412.83 311.56 L 406.71 311.56 L 406.71 305.36 L 413.19 305.36 L 413.19 300.8 L 401.47 300.8 z"
    style="fill:#66a0cf"/>
  <path
    d="m 608,277.76 c -1.56,-1.96 -2.88,-3.72 -3.76,-4.84 1.8,-2.16 3.04,-5.84 3.36,-9.52 l -4.44,0 c -0.1,2.04 -0.28,4.56 -1.2,6.32 -1.04,-1.32 -2.8,-3.96 -3.96,-5.72 l 0,-0.16 c 3.88,-2.68 4.64,-4.88 4.64,-7.32 0,-3.64 -2.48,-6.04 -5.92,-6.04 -4.2,0 -6.76,3.04 -6.76,6.72 0,1.88 0.56,3.92 2,5.84 l 0,0.12 c -2.68,1.68 -4.24,4.12 -4.24,7.36 0,4.2 2.76,7.56 7.44,7.56 2.28,0 4.4,-0.8 5.84,-2.08 0.52,0.76 0.88,1.2 1.28,1.76 l 5.72,0 z m -11.88,-3.56 c -2.2,0 -3.6,-2 -3.6,-4.32 0,-1.68 0.76,-2.92 1.52,-3.72 1.52,2.24 3.48,5 4.88,6.76 -0.68,0.8 -1.56,1.28 -2.8,1.28 z m 0.36,-20.24 c 1.44,0 1.76,1.56 1.76,2.8 0,1.56 -0.64,2.92 -2.32,4.24 -0.92,-1.32 -1.32,-2.48 -1.32,-4 0,-1.68 0.68,-3.04 1.88,-3.04 z"
    style="fill:#f9f9f9"/>
</svg>
