<?xml version="1.0" encoding="UTF-8" standalone="no"?>
<svg
   xmlns:dc="http://purl.org/dc/elements/1.1/"
   xmlns:cc="http://creativecommons.org/ns#"
   xmlns:rdf="http://www.w3.org/1999/02/22-rdf-syntax-ns#"
   xmlns:svg="http://www.w3.org/2000/svg"
   xmlns="http://www.w3.org/2000/svg"
   xmlns:sodipodi="http://sodipodi.sourceforge.net/DTD/sodipodi-0.dtd"
   xmlns:inkscape="http://www.inkscape.org/namespaces/inkscape"
   version="1.1"
   width="2560"
   height="1440"
   viewBox="0 0 2560 1440"
   id="svg2"
   inkscape:version="0.91 r13725"
   sodipodi:docname="cover.svg">
  <metadata
     id="metadata12">
    <rdf:RDF>
      <cc:Work
         rdf:about="">
        <dc:format>image/svg+xml</dc:format>
        <dc:type
           rdf:resource="http://purl.org/dc/dcmitype/StillImage" />
        <dc:title></dc:title>
      </cc:Work>
    </rdf:RDF>
  </metadata>
  <defs
     id="defs10" />
  <sodipodi:namedview
     pagecolor="#ffffff"
     bordercolor="#666666"
     borderopacity="1"
     objecttolerance="10"
     gridtolerance="10"
     guidetolerance="10"
     inkscape:pageopacity="0"
     inkscape:pageshadow="2"
     inkscape:window-width="640"
     inkscape:window-height="480"
     id="namedview8"
     showgrid="true"
     inkscape:zoom="0.707"
     inkscape:cx="3071.722"
     inkscape:cy="944.832"
     inkscape:current-layer="svg2"
     inkscape:snap-smooth-nodes="true"
     inkscape:object-nodes="true">
    <inkscape:grid
       type="xygrid"
       id="grid4140" />
  </sodipodi:namedview>
  <path
     style="fill:#fcf9f0"
     d="m -16,-16 0,1472 2592,0 0,-1472 z"
     id="rect4"
     inkscape:connector-curvature="0"
     sodipodi:nodetypes="ccccc" />
  <path
     d="m 464,687.927 0,62.98 16.911,0 0,-25.075 20.41,0 0,25.075 16.911,0 0,-62.98 -16.911,0 0,23.326 -20.41,0 0,-23.326 -16.911,0 z m 79.308,0 -18.077,62.98 17.494,0 3.499,-14.579 16.328,0 4.082,14.579 18.077,0 -18.661,-62.98 -22.743,0 z m 49.567,0 0,62.98 16.911,0 0,-62.98 -16.911,0 z m 28.574,0 0,62.98 40.82,0 0,-13.995 -23.909,0 0,-48.984 -16.911,0 z m 102.05,0 0,34.405 c 0,20.41 9.33,29.74 26.825,29.74 17.494,0 26.825,-9.913 26.825,-29.157 l 0,-34.989 -16.911,0 0,35.572 c 0,10.497 -2.916,15.162 -9.913,15.162 -6.415,0 -9.913,-5.248 -9.913,-15.162 l 0,-35.572 -16.911,0 z m 89.804,0 0,62.98 15.162,0 0,-15.162 c 0,-10.497 0,-19.827 -0.583,-28.574 l 0.583,0 c 2.916,7.581 6.998,16.328 10.497,22.743 l 10.497,20.993 18.077,0 0,-62.98 -15.745,0 0,15.162 c 0,9.33 0.583,18.077 1.749,26.241 l -0.583,0 c -2.916,-7.581 -6.415,-15.745 -9.913,-22.159 l -9.913,-19.244 -19.827,0 z m 65.895,0 0,62.98 41.986,0 0,-13.995 -25.075,0 0,-11.663 22.159,0 0,-13.412 -22.159,0 0,-9.913 23.909,0 0,-13.995 -40.82,0 z m 47.818,0 0,13.995 15.745,0 0,48.984 16.911,0 0,-48.984 16.328,0 0,-13.995 -48.984,0 z m -237.339,1.166 c -8.164,0 -16.328,2.916 -20.993,6.415 l 4.665,12.246 c 3.499,-2.333 8.164,-5.248 13.412,-5.248 5.831,0 8.747,3.499 8.747,7.581 0,6.415 -6.415,12.829 -18.661,23.326 l -8.164,7.581 0,9.913 44.902,0 0,-13.995 -21.576,0 6.415,-4.665 c 6.998,-5.831 13.995,-13.995 13.995,-23.326 0,-12.246 -8.747,-19.827 -22.743,-19.827 z m -135.872,11.08 0,0 c 1.166,3.499 2.333,8.747 3.499,12.246 l 2.916,11.663 -11.663,0 2.916,-11.663 c 0.583,-3.499 1.749,-8.747 2.333,-12.246 z m 241.421,32.073 c -5.831,0 -9.33,4.082 -9.33,9.913 0,5.831 3.499,9.913 9.33,9.913 5.831,0 9.913,-4.082 9.913,-9.913 -0.583,-5.831 -4.082,-9.913 -9.913,-9.913 z"
     style="fill:#625b56"
     id="path6"
     inkscape:connector-curvature="0" />
</svg>
