<svg
  xmlns="http://www.w3.org/2000/svg"
  width="1024"
  height="1024"
  viewBox="0 0 1024 1024">
  <rect
    width="1056"
    height="1056"
    x="-16"
    y="-16"
    style="fill:hsl(36, 48%, 98%)"/>
  <path
    d="M 265.15 478.592 L 265.15 545.408 L 284.926 545.408 L 284.926 518.432 L 300.189 518.432 L 300.189 545.408 L 319.965 545.408 L 319.965 478.592 L 300.189 478.592 L 300.189 503.264 L 284.926 503.264 L 284.926 478.592 L 265.15 478.592 z M 341.109 478.592 L 321.621 545.408 L 342.262 545.408 L 344.758 532.449 L 360.598 532.449 L 363.189 545.408 L 384.117 545.408 L 364.727 478.592 L 341.109 478.592 z M 385.9 478.592 L 385.9 545.408 L 405.676 545.408 L 405.676 478.592 L 385.9 478.592 z M 414.025 478.592 L 414.025 545.408 L 458.041 545.408 L 458.041 530.24 L 433.801 530.24 L 433.801 478.592 L 414.025 478.592 z M 482.445 478.592 C 471.789 478.592 463.725 483.585 458.541 490.689 L 469.391 499.328 C 472.847 494.912 476.014 492.801 480.334 492.801 C 484.654 492.801 487.246 495.489 487.246 499.809 C 487.246 506.433 482.446 512.192 461.23 532.352 L 461.23 545.408 L 507.021 545.408 L 507.021 531.199 L 482.734 531.201 C 503.374 513.537 506.639 506.625 506.639 497.697 C 506.639 487.521 498.573 478.592 482.445 478.592 z M 513.002 478.592 L 513.002 522.752 C 513.002 537.344 521.93 547.328 540.746 547.328 C 559.562 547.328 568.49 536.384 568.49 522.752 L 568.49 478.592 L 548.715 478.592 L 548.715 522.176 C 548.715 529.568 546.506 533.121 540.746 533.121 C 534.986 533.121 532.777 529.568 532.777 522.176 L 532.777 478.592 L 513.002 478.592 z M 597.963 478.592 L 597.963 545.408 L 615.434 545.408 L 615.434 524.672 C 615.434 512.288 613.802 503.073 612.842 496.641 L 627.434 545.408 L 652.203 545.408 L 652.203 478.592 L 634.73 478.592 L 634.73 500 C 634.73 512.096 636.17 519.777 637.418 527.553 L 622.25 478.592 L 597.963 478.592 z M 660.4 478.592 L 660.4 545.408 L 703.793 545.408 L 703.791 531.584 L 680.176 531.584 L 680.176 518.145 L 699.568 518.145 L 699.568 504.801 L 680.176 504.801 L 680.176 492.32 L 703.793 492.32 L 703.793 478.592 L 660.4 478.592 z M 706.627 478.592 L 706.627 493.377 L 722.85 493.377 L 722.852 545.408 L 742.627 545.408 L 742.627 493.377 L 758.85 493.377 L 758.85 478.592 L 706.627 478.592 z M 352.629 492.416 L 357.814 518.625 L 347.541 518.625 L 352.629 492.416 z M 582.291 527.553 C 576.819 527.553 572.404 532.065 572.404 537.441 C 572.404 542.817 576.819 547.328 582.291 547.328 C 587.763 547.328 592.18 542.817 592.18 537.441 C 592.18 532.065 587.763 527.553 582.291 527.553 z "
    style="fill:hsl(36, 3%, 24%)"/>
</svg>
