<svg
  xmlns="http://www.w3.org/2000/svg"
  width="1024"
  height="1024"
  viewBox="0 0 1024 1024">
  <rect
    width="1056"
    height="1056"
    x="-16"
    y="-16"
    style="fill:hsl(0, 0%, 99%)"/>
  <path
    d="m 585.986,460.944 c -7.866,0 -12.665,3.067 -15.465,7.733 -2.8,4.666 -3.733,11.065 -3.733,17.598 v 6.799 h 14.399 v -6.799 c 0,-3.2 0.266,-6.133 0.933,-8.399 0.667,-2.133 1.866,-3.599 3.866,-3.599 2.133,0 3.333,1.734 4,4 0.667,2.266 0.799,5.332 0.799,7.999 -0.133,5.999 -1.866,12.665 -4.133,19.464 -2.266,6.799 -5.199,13.466 -8.265,19.332 -3.6,6.933 -7.599,13.864 -11.999,20.664 V 560 h 39.062 v -14.265 h -22.797 c 3.733,-6.266 9.332,-16.265 14.131,-27.464 4.666,-11.065 8.399,-22.93 8.399,-32.929 0,-6.799 -1.067,-12.932 -4,-17.331 -2.933,-4.266 -7.866,-7.067 -15.198,-7.067 z M 358.855,462.01 V 560 h 14.398 v -42.662 h 11.2 V 560 h 14.398 v -97.99 h -14.398 v 40.53 h -11.2 v -40.53 z m 72.685,0 -14.799,97.99 h 13.999 l 2.666,-19.997 h 13.866 L 449.938,560 h 13.999 l -14.799,-97.99 z m 50.045,0 V 560 h 14.398 v -97.99 z m 36.107,0 V 560 h 33.464 V 546.668 H 532.09 V 462.01 Z m 109.056,0 v 77.858 c 0.133,4 0.933,7.6 2.4,10.666 1.2,2.666 2.933,5.199 5.599,7.198 2.666,2.133 6.4,3.334 11.2,3.334 4.799,0 8.399,-1.201 11.066,-3.334 2.666,-2 4.532,-4.532 5.732,-7.198 1.467,-3.066 2.266,-6.667 2.4,-10.666 V 462.01 h -14.398 v 77.858 c 0,1.467 -0.134,2.666 -0.533,3.599 -0.533,2 -1.732,3.6 -4.266,3.6 -1.2,0 -2.134,-0.4 -2.8,-1.067 -1.333,-1.467 -2,-3.333 -2,-6.133 V 462.01 Z m -186.809,29.33 h 0.799 l 0.401,2.533 4.133,30.93 h -9.866 l 4.133,-30.93 z"
    style="fill:hsl(0, 0%, 11%)"/>
</svg>
