<svg
  xmlns="http://www.w3.org/2000/svg"
  width="1024"
  height="1024"
  viewBox="0 0 1024 1024">
  <rect
    width="1056"
    height="1056"
    x="-16"
    y="-16"
    style="fill:hsl(0, 0%, 99%)"/>
  <path
    d="m 421.006,224.017 c -15.306,-0.319 -28.48,10.809 -35.315,23.766 -15.021,26.861 -20.356,57.721 -25.136,87.742 -6.784,47.864 -8.441,96.26 -10.271,144.51 -2.788,96.372 -1.771,192.799 -1.847,289.195 0.394,10.916 4.361,23.524 15.011,28.455 8.324,3.872 18.301,1.521 25.181,-4.182 12.603,-9.335 17.413,-25.12 24.781,-38.228 14.867,-28.948 30.636,-57.53 49.093,-84.356 7.634,-10.506 16.069,-21.171 27.152,-28.044 4.556,-2.722 11.261,-2.41 14.128,2.507 5.139,8.074 3.253,18.26 2.917,27.252 -2.023,22.176 -4.917,44.54 -2.258,66.817 1.732,18.532 7.72,38.124 22.608,50.349 11.471,9.744 27.514,11.565 41.938,9.498 18.72,-2.692 34.428,-14.52 47.829,-27.141 18.941,-18.505 33.376,-41.075 46.067,-64.164 4.385,-8.618 8.869,-17.258 12.433,-26.235 2.196,-9.027 -5.817,-19.335 -15.373,-18.03 -7.25,0.014 -12.233,6.517 -14.281,12.84 -14.188,29.638 -31.666,58.669 -56.626,80.433 -10.16,8.585 -23.635,15.923 -37.26,12.507 -10.474,-3.075 -15.028,-14.451 -16.766,-24.258 -4.119,-25.159 -0.947,-50.63 1.439,-75.798 0.85,-16.703 -2.27,-35.123 -14.307,-47.584 -10.897,-10.692 -28.372,-12.841 -42.05,-6.534 -18.116,7.357 -30.121,23.787 -41.057,39.201 -23.07,32.558 -42.185,67.729 -59.921,103.409 -1.701,4.605 -0.848,-2.698 -1.172,-4.4 -0.695,-26.682 -0.076,-53.374 -0.286,-80.06 32.747,-60.166 62.593,-122.461 80.994,-188.661 15.357,-54.494 24.517,-111.287 21.494,-168.016 -1.828,-23.987 -5.279,-49.004 -18.383,-69.731 -7.307,-11.494 -18.964,-20.992 -32.85,-22.553 -2.617,-0.372 -5.263,-0.532 -7.905,-0.505 z m 1.843,29.285 c 8.586,0.352 14.749,7.626 17.742,15.066 9.895,21.297 10.329,45.335 10.821,68.369 0.532,74.032 -18.783,146.943 -45.974,215.39 -8.559,21.483 -17.949,43.083 -27.407,63.897 0.125,-88.179 -0.485,-176.67 8.649,-264.413 3.129,-25.685 6.315,-51.746 15.125,-76.217 3.555,-7.899 6.806,-17.754 15.475,-21.376 1.772,-0.704 3.689,-0.771 5.57,-0.716 z"
    style="fill:hsl(0, 0%, 11%)"/>
</svg>
