<svg
  xmlns="http://www.w3.org/2000/svg"
  width="1024"
  height="1024"
  viewBox="0 0 1024 1024">
  <rect
    width="1056"
    height="1056"
    x="-16"
    y="-16"
    style="fill:hsl(36, 48%, 98%)"/>
  <path
    d="m 483.793,479.795 c -5.181,0 -9.512,0.804 -12.996,2.412 -3.454,1.608 -6.447,4.304 -8.979,8.086 l 10.184,7.146 c 1.161,-1.757 2.62,-3.276 4.377,-4.557 1.757,-1.28 4.02,-1.92 6.789,-1.92 2.561,0 4.572,0.566 6.031,1.697 1.459,1.132 2.188,2.664 2.188,4.6 0,2.471 -0.611,4.839 -1.832,7.102 -1.191,2.233 -2.873,4.585 -5.047,7.057 -2.174,2.442 -5.256,5.524 -9.246,9.246 -3.99,3.722 -8.412,7.624 -13.266,11.703 l 0,10.541 44.398,0 0,-11.523 -27.648,0 c 0.923,-0.685 3.366,-2.725 7.326,-6.119 3.99,-3.395 7.309,-6.492 9.959,-9.291 2.68,-2.829 4.735,-5.731 6.164,-8.709 1.459,-3.007 2.189,-6.493 2.189,-10.453 0,-5.39 -1.847,-9.573 -5.539,-12.551 -3.663,-2.978 -8.68,-4.467 -15.053,-4.467 z M 256,481.092 l 0,61.816 12.596,2.5e-4 0,-26.264 24.342,0 0,26.264 12.641,0 0,-61.816 -12.641,0 0,24.029 -24.342,0 0,-24.029 z m 77.852,-1.5e-4 -20.457,61.816 12.508,0 4.02,-12.551 23.807,0 4.109,12.551 12.908,0 -20.502,-61.816 z m 42.566,0 0,9.691 8.621,0 0,42.432 -8.621,0 0,9.693 29.836,0 0,-9.693 -8.574,0 0,-42.432 8.574,0 0,-9.691 z m 41.092,0 0,61.816 38.592,0 0,-11.523 -25.996,0 0,-50.293 z m 100.23,0 0,36 c 0,9.767 1.979,16.749 5.939,20.947 3.99,4.169 10.482,6.254 19.475,6.254 9.082,0 15.589,-2.115 19.52,-6.344 3.931,-4.228 5.895,-11.18 5.895,-20.857 l 0,-36 -12.596,0 0,35.285 c 0,6.074 -0.952,10.392 -2.857,12.953 -1.906,2.531 -5.257,3.797 -10.051,3.797 -3.365,0 -5.925,-0.566 -7.682,-1.697 -1.757,-1.132 -3.038,-2.904 -3.842,-5.316 -0.804,-2.412 -1.205,-5.717 -1.205,-9.916 l 0,-35.105 -12.596,0 z m 90.402,0 0,61.816 12.328,0 0,-44.174 22.51,44.174 14.83,0 0,-61.816 -12.373,0 0,41.672 -20.947,-41.672 z m 63.066,0 0,61.816 40.154,0 0,-11.523 -27.559,0 0,-14.83 23.227,0 0,-11.166 -23.227,0 0,-13.176 27.559,0 0,-11.121 z m 46.141,0 0,11.523 19.027,0 0,50.293 12.596,0 0,-50.293 19.027,0 0,-11.523 z m -375.502,12.684 8.307,25.549 -16.66,0 z m 246.508,35.51 c -2.68,0 -4.555,0.581 -5.627,1.742 -1.072,1.161 -1.609,2.963 -1.609,5.404 0,2.293 0.507,4.049 1.52,5.27 1.012,1.221 2.918,1.832 5.717,1.832 2.561,0 4.423,-0.535 5.584,-1.607 1.161,-1.102 1.742,-2.933 1.742,-5.494 0,-2.501 -0.537,-4.318 -1.609,-5.449 -1.072,-1.132 -2.977,-1.697 -5.717,-1.697 z"
    style="fill:hsl(36, 3%, 24%)"/>
</svg>
