<svg
  xmlns="http://www.w3.org/2000/svg"
  width="1024"
  height="1024"
  viewBox="0 0 1024 1024">
  <rect
    width="1056"
    height="1056"
    x="-16"
    y="-16"
    style="fill:hsl(36, 48%, 98%)"/>
  <path
    d="m 256,478 0,63 17,0 0,-25 20.41,0 0,25 17,0 0,-63 -17,0 0,23.326 -20.41,0 0,-23.326 -17,0 z m 79.308,0 -18,63 17.494,0 3.499,-14.579 16.328,0 4,14.579 18,0 -18.661,-63 -22.743,0 z m 49.567,0 0,63 17,0 0,-63 -17,0 z m 28.574,0 0,63 40.82,0 0,-14 -24,0 0,-49 -17,0 z m 102,0 0,34.406 c 0,20.41 9.33,29.74 26.825,29.74 17.494,0 26.825,-10 26.825,-29.157 l 0,-35 -17,0 0,35.572 c 0,10.497 -3,15.162 -10,15.162 -6.415,0 -10,-5.248 -10,-15.162 l 0,-35.572 -17,0 z m 89.804,0 0,63 15.162,0 0,-15.162 c 0,-10.497 0,-19.827 -0.583,-28.574 l 0.583,0 c 3,7.581 7,16.328 10.497,22.743 l 10.497,21 18,0 0,-63 -15.745,0 0,15.162 c 0,9.33 0.583,18 1.749,26.242 l -0.583,0 c -3,-7.581 -6.415,-15.745 -10,-22.16 l -10,-19.244 -19.827,0 z m 65.895,0 0,63 42,0 0,-14 -25,0 0,-11.663 22.16,0 0,-13.412 -22.16,0 0,-10 24,0 0,-14 -40.82,0 z m 47.818,0 0,14 15.745,0 0,49 17,0 0,-49 16.328,0 0,-14 -49,0 z m -237.34,1.166 c -8.164,0 -16.328,3 -21,6.415 l 4.665,12.246 c 3.499,-2.333 8.164,-5.248 13.412,-5.248 5.831,0 8.747,3.499 8.747,7.581 0,6.415 -6.415,12.829 -18.661,23.326 l -8.164,7.581 0,10 45,0 0,-14 -21.576,0 6.415,-4.665 c 7,-5.831 14,-14 14,-23.326 0,-12.246 -8.747,-19.827 -22.743,-19.827 z m -135.873,11 0,0 c 1.166,3.499 2.333,8.747 3.499,12.246 l 3,11.663 -11.663,0 3,-11.663 c 0.583,-3.499 1.749,-8.747 2.333,-12.246 z m 241.422,32 c -5.831,0 -9.33,4 -9.33,10 0,5.831 3.499,10 9.33,10 5.831,0 10,-4 10,-10 -0.583,-5.831 -4,-10 -10,-10 z"
    style="fill:hsl(36, 3%, 24%)"/>
</svg>
