<svg
  xmlns="http://www.w3.org/2000/svg"
  width="1024"
  height="1024"
  viewBox="0 0 1024 1024">
  <rect
    width="1056"
    height="1056"
    x="-16"
    y="-16"
    style="fill:hsl(45, 75%, 98%)"/>
  <path
    d="M 269.6,320 V 704 H 356 V 547.616 H 514.4 V 704 h 86.4 V 320 H 514.4 V 473.173 H 356 V 320 Z m 436.373,303.727 c -14.037,0 -25.794,4.037 -35.269,12.108 -9.3,8.071 -13.95,18.421 -13.95,31.055 0,12.282 4.563,22.637 13.688,31.059 9.124,8.422 20.528,12.633 34.214,12.633 14.739,0 26.67,-4.037 35.794,-12.108 9.3,-8.247 13.95,-18.776 13.95,-31.584 0,-12.458 -4.563,-22.721 -13.687,-30.792 -8.949,-8.247 -20.527,-12.37 -34.739,-12.37 z"
    style="fill:hsl(45, 5%, 10%)"/>
</svg>
