<?xml version="1.0" encoding="UTF-8" standalone="no"?>
<svg
	xmlns="http://www.w3.org/2000/svg"
	height="512"
	viewBox="0 0 512 512"
	width="512">
	<rect
		fill="#464339"
		height="544"
		width="544"
		x="-16"
		y="-16"/>
  <path
		d="M 131.207 228.82 L 131.207 282.171 L 141.863 282.171 L 141.863 259.132 L 162.023 259.132 L 162.023 282.171 L 172.607 282.171 L 172.607 228.82 L 162.023 228.82 L 162.023 249.843 L 141.863 249.843 L 141.863 228.82 L 131.207 228.82 z M 195.992 228.82 L 178.929 282.171 L 189.728 282.171 L 193.472 268.492 L 210.753 268.492 L 214.496 282.171 L 225.656 282.171 L 208.521 228.82 L 195.992 228.82 z M 231.894 228.82 L 231.894 282.171 L 242.55 282.171 L 242.55 228.82 L 231.894 228.82 z M 255.66 228.82 L 255.66 282.171 L 287.988 282.171 L 287.988 273.244 L 266.316 273.244 L 266.316 228.82 L 255.66 228.82 z M 339.464 228.82 L 339.464 258.195 C 339.464 275.907 347.241 283.179 360.201 283.179 C 373.233 283.179 380.792 275.907 380.792 258.195 L 380.792 228.82 L 370.57 228.82 L 370.57 259.132 C 370.57 270.22 366.537 273.964 360.201 273.964 C 354.009 273.964 350.121 270.22 350.121 259.132 L 350.121 228.82 L 339.464 228.82 z M 310.244 229.251 C 302.972 229.251 298.22 232.132 293.324 237.388 L 299.083 243.148 C 301.819 240.196 304.988 237.603 308.876 237.603 C 313.988 237.603 316.869 240.771 316.869 246.027 C 316.869 253.731 307.724 262.804 293.828 276.052 L 293.828 282.171 L 329.541 282.171 L 329.541 273.244 L 317.876 273.244 C 315.356 273.244 311.828 273.532 309.164 273.82 C 318.668 263.884 327.021 254.523 327.021 245.451 C 327.021 235.659 320.324 229.251 310.244 229.251 z M 201.896 236.955 L 202.257 236.955 C 203.769 242.715 205.209 248.836 206.865 254.38 L 208.449 260.212 L 195.777 260.212 L 197.361 254.38 C 198.945 248.836 200.528 242.787 201.896 236.955 z"
		fill="#f9f5ec"/>
</svg>
