<svg
	height="960"
	viewBox="0 0 960 960"
	width="960"
	xmlns="http://www.w3.org/2000/svg">
	<rect
		fill="#f9f5ec"
		height="1024"
		width="1024"
		x="-32"
		y="-32"/>
	<path
		d="m 240,427.305 v 103.456 h 0.539 20.986 v -44.211 h 37.604 v 44.211 h 21.388 v -103.456 h -21.388 v 40.343 h -37.604 v -40.343 z m 124.461,0 -33.089,103.456 h 0.739 21.136 l 7.182,-26.25 h 32.334 l 7.184,26.25 h 22.567 l -33.228,-103.456 z m 68.743,0 v 103.456 h 0.539 20.986 v -103.456 z m 45.602,0 v 103.456 h 0.539 62.571 v -18.212 h -41.584 v -85.243 z m 160.811,0 v 56.908 c 0,17.072 3.745,29.202 10.702,37.073 6.957,7.871 17.09,11.407 29.625,11.407 12.603,0 22.67,-3.536 29.541,-11.409 C 716.359,513.412 720,501.284 720,484.214 v -56.908 h -20.697 v 58.704 c 0,10.572 -1.931,17.565 -5.274,21.878 -3.343,4.312 -8.107,6.041 -14.08,6.041 -5.832,0 -10.452,-1.723 -13.694,-6.035 -3.242,-4.311 -5.107,-11.309 -5.107,-21.884 v -58.704 z m -55.532,0.83 c -14.096,0 -23.414,5.642 -32.861,15.783 l -0.354,0.379 11.816,11.818 0.381,-0.411 c 5.215,-5.627 11.172,-10.464 18.393,-10.464 4.793,0 8.459,1.47 10.953,4.129 2.494,2.659 3.843,6.551 3.843,11.495 0,7.177 -4.297,15.135 -11.984,24.473 -7.687,9.337 -18.729,20.038 -32.06,32.747 l -0.166,0.158 v 12.515 h 0.539 69.066 v -18.212 h -22.921 c -4.477,0 -10.47,0.512 -15.401,1.018 17.845,-18.699 33.487,-36.382 33.487,-53.807 0,-9.517 -3.266,-17.446 -9.008,-22.976 -5.741,-5.53 -13.937,-8.647 -23.722,-8.647 z m -207.557,16.131 c 2.835,10.848 5.55,22.333 8.67,32.779 l 2.85,10.496 h -22.904 l 2.852,-10.502 c 2.979,-10.427 5.941,-21.786 8.531,-32.772 z"
		fill="#1f1c14"/>
</svg>
