<svg xmlns="http://www.w3.org/2000/svg" width="512" height="64" viewBox="0 0 512 64" aria-labelledby="logo-title"><title>Hail2u.net</title><path d="M226.707 1.254c-3.017 0-5.965.318-8.844.955-2.851.637-5.925 1.784-9.219 3.445v14.492c4.318-3.515 8.9-5.273 13.744-5.273 4.761 0 7.141 1.979 7.141 5.938 0 1.19-.261 2.298-.787 3.322-.498 1.024-1.274 2.09-2.326 3.197-1.024 1.08-3.114 2.864-6.27 5.355-4.429 3.432-7.543 6.24-9.342 8.428-1.772 2.187-3.074 4.526-3.904 7.018-.83 2.49-1.244 5.426-1.244 8.803v4.775h41.936V47.508H224.34c.028-.803.665-1.771 1.91-2.906 1.273-1.163 3.834-2.99 7.682-5.48 5.038-3.24 8.483-6.352 10.338-9.342 1.855-2.99 2.783-6.63 2.783-10.92 0-5.592-1.771-9.924-5.314-12.996-3.543-3.073-8.554-4.61-15.031-4.61zM0 2.168v59.54h17.938V39.495h20.594v22.215H56.47V2.168H38.532v22.047H17.938V2.168zm83.5 0l-20.512 59.54h19.391l2.822-10.96h17.771l2.615 10.96h19.475l-19.307-59.54zm48.537 0v59.54h17.938V2.168zm29.73 0v59.54h38.449V47.673h-20.512V2.167zm96.33 0v32.675c0 9.328 2.185 16.318 6.559 20.97 4.401 4.622 10.838 6.933 19.309 6.933 9.079 0 15.791-2.31 20.137-6.934 4.374-4.65 6.561-11.75 6.561-21.3V2.166h-18.061v33.756c0 3.792-.705 6.658-2.117 8.596-1.384 1.938-3.42 2.906-6.105 2.906-2.657 0-4.705-1.024-6.145-3.072-1.412-2.076-2.117-5.024-2.117-8.844V2.167zm90.848 0v59.54h16.609V36.712c0-3.654-.084-6.949-.25-9.883h.166c1.052 1.827 2.409 3.877 4.07 6.146l21.01 28.732h15.736V2.167h-16.609v26.696c0 2.99.084 5.093.25 6.311h-.166a8.494 8.494 0 0 0-.748-1.328 35.156 35.156 0 0 0-.996-1.535c-.36-.526-.72-1.039-1.08-1.537-.36-.498-.665-.927-.914-1.287l-20.137-27.32zm69.092 0v59.54h38.449V47.673h-20.512v-8.76h17.979V24.878h-17.979V16.2h19.141V2.167zm42.436 0V16.2h16.648v45.508h18.021V16.2h16.857V2.167zM93.879 15.12h.416c.221 2.076.624 4.305 1.205 6.686L99.65 38H88.275c3.017-11.543 4.691-18.075 5.023-19.598.332-1.522.525-2.617.58-3.28zm235.594 31.018c-3.017 0-5.425.761-7.225 2.283-1.772 1.495-2.658 3.461-2.658 5.896 0 2.381.9 4.386 2.699 6.02 1.827 1.606 4.166 2.408 7.018 2.408 3.128 0 5.576-.774 7.348-2.324 1.772-1.55 2.658-3.585 2.658-6.104 0-2.436-.913-4.402-2.74-5.896-1.799-1.522-4.165-2.283-7.1-2.283z"/></svg>
