<svg
  xmlns="http://www.w3.org/2000/svg"
  width="1481.173"
  height="272"
  viewBox="0 0 1481.173 272"
  role="img"
  aria-labelledby="logo-title">
  <title
    id="logo-title">Hail2u.net</title>
  <path
    d="M 646.285 61.322 C 638.624 61.322 631.26 62.66 624.193 65.338 C 617.127 68.016 610.545 71.699 604.445 76.385 L 604.445 88.436 C 610.768 82.857 617.239 78.505 623.859 75.381 C 630.48 72.257 637.359 70.695 644.5 70.695 C 655.063 70.695 663.245 73.633 669.047 79.51 C 674.923 85.312 677.861 93.494 677.861 104.057 C 677.861 110.156 676.932 115.585 675.072 120.346 C 673.287 125.032 670.833 129.347 667.709 133.289 C 664.585 137.231 660.902 140.912 656.662 144.334 C 652.497 147.756 647.997 151.215 643.162 154.711 C 638.178 158.356 633.566 161.741 629.326 164.865 C 625.161 167.915 621.404 170.927 618.057 173.902 C 614.784 176.803 611.883 179.741 609.354 182.717 C 606.899 185.618 604.816 188.743 603.105 192.09 C 601.469 195.437 600.242 199.118 599.424 203.135 C 598.606 207.077 598.197 211.54 598.197 216.523 L 598.197 224 L 688.797 224 L 688.797 214.627 L 609.242 214.627 L 609.242 212.953 C 609.242 207.672 609.913 203.025 611.252 199.008 C 612.665 194.991 614.933 191.085 618.057 187.291 C 621.181 183.497 625.235 179.63 630.219 175.688 C 635.202 171.671 641.302 167.095 648.518 161.963 C 653.948 158.095 659.079 154.227 663.914 150.359 C 668.823 146.417 673.101 142.141 676.746 137.529 C 680.391 132.843 683.255 127.673 685.338 122.02 C 687.495 116.292 688.572 109.747 688.572 102.383 C 688.572 96.135 687.569 90.48 685.561 85.422 C 683.552 80.364 680.688 76.051 676.969 72.48 C 673.324 68.91 668.898 66.157 663.691 64.223 C 658.485 62.289 652.682 61.322 646.285 61.322 z M 0 64 L 0 224 L 11.047 224 L 11.047 147.236 L 102.65 147.236 L 102.65 224 L 113.584 224 L 113.584 64 L 102.65 64 L 102.65 137.193 L 11.047 137.193 L 11.047 64 L 0 64 z M 239.367 64 L 179.006 224 L 191.168 224 L 209.465 174.236 L 278.865 174.236 L 297.164 224 L 309.549 224 L 249.855 64 L 239.367 64 z M 374.746 64 L 374.746 224 L 385.793 224 L 385.793 64 L 374.746 64 z M 465.049 64 L 465.049 224 L 540.252 224 L 540.252 213.959 L 476.096 213.959 L 476.096 64 L 465.049 64 z M 761.916 64 L 761.916 162.521 C 761.916 205.367 779.955 226.789 816.031 226.789 C 853.967 226.789 872.934 204.548 872.934 160.066 L 872.934 64 L 862 64 L 862 162.521 C 862 198.598 847.383 216.637 818.15 216.637 C 787.95 216.637 772.85 198.077 772.85 160.959 L 772.85 64 L 761.916 64 z M 1039.147 64 L 1039.147 224 L 1050.191 224 L 1050.191 91.67 C 1050.191 88.918 1050.118 86.575 1049.969 84.641 L 1050.414 84.641 L 1051.865 86.873 C 1053.353 89.477 1055.064 92.08 1056.998 94.684 L 1152.283 224 L 1160.094 224 L 1160.094 64 L 1149.049 64 L 1149.049 189.076 C 1149.049 192.795 1149.234 197.258 1149.605 202.465 L 1149.049 202.465 C 1146.594 198.448 1144.325 195.028 1142.242 192.201 L 1047.625 64 L 1039.147 64 z M 1239.238 64 L 1239.238 224 L 1317.676 224 L 1317.676 213.959 L 1250.285 213.959 L 1250.285 148.352 L 1309.42 148.352 L 1309.42 138.309 L 1250.285 138.309 L 1250.285 74.152 L 1313.994 74.152 L 1313.994 64 L 1239.238 64 z M 1377.853 64 L 1377.853 74.152 L 1424.045 74.152 L 1424.045 224 L 1434.98 224 L 1434.98 74.152 L 1481.172 74.152 L 1481.174 64 L 1377.853 64 z M 243.943 77.947 L 244.389 77.947 C 244.984 79.807 245.542 81.666 246.063 83.525 C 246.583 85.683 247.252 87.878 248.07 90.109 L 275.072 164.084 L 213.371 164.084 L 240.262 89.885 C 241.452 86.835 242.679 82.857 243.943 77.947 z M 954.98 208.045 C 952.451 208.045 950.33 208.9 948.619 210.611 C 946.908 212.248 946.053 214.367 946.053 216.971 C 946.053 219.5 946.908 221.656 948.619 223.441 C 950.33 225.152 952.451 226.008 954.98 226.008 C 957.51 226.008 959.666 225.152 961.451 223.441 C 963.236 221.656 964.129 219.5 964.129 216.971 C 964.129 214.367 963.236 212.248 961.451 210.611 C 959.666 208.9 957.51 208.045 954.98 208.045 z "/>
</svg>
