<svg
  xmlns="http://www.w3.org/2000/svg"
  width="609.409"
  height="1024"
  viewBox="0 0 609.409 1024"
  role="img"
  aria-labelledby="logo-title">
  <title
    id="logo-title">Hail2u</title>
  <path
    d="M 153.064,32.006 C 127.554,31.474 105.598,50.02 94.206,71.615 69.171,116.383 60.279,167.816 52.313,217.852 41.006,297.625 38.244,378.285 35.195,458.702 30.549,619.322 32.243,780.033 32.117,940.693 c 0.656,18.194 7.269,39.206 25.018,47.426 13.874,6.454 30.501,2.536 41.969,-6.971 21.005,-15.559 29.022,-41.867 41.302,-63.714 24.777,-48.246 51.061,-95.883 81.821,-140.593 12.723,-17.51 26.782,-35.285 45.254,-46.74 7.594,-4.537 18.768,-4.016 23.547,4.178 8.565,13.457 5.422,30.434 4.861,45.419 -3.371,36.959 -8.195,74.234 -3.764,111.362 2.887,30.886 12.866,63.541 37.68,83.916 19.119,16.24 45.857,19.275 69.896,15.83 31.2,-4.487 57.38,-24.2 79.715,-45.234 31.569,-30.841 55.626,-68.458 76.778,-106.941 7.308,-14.363 14.782,-28.764 20.722,-43.725 3.66,-15.046 -9.695,-32.225 -25.621,-30.051 -12.083,0.023 -20.389,10.861 -23.801,21.4 -23.647,49.397 -52.776,97.782 -94.377,134.055 -16.933,14.309 -39.392,26.538 -62.1,20.846 -17.456,-5.125 -25.046,-24.086 -27.943,-40.43 -6.866,-41.932 -1.578,-84.384 2.398,-126.33 1.416,-27.838 -3.784,-58.538 -23.846,-79.307 -18.162,-17.82 -47.286,-21.402 -70.084,-10.891 -30.193,12.262 -50.201,39.644 -68.428,65.335 -38.449,54.263 -70.308,112.881 -99.868,172.349 -2.835,7.675 -1.413,-4.496 -1.953,-7.333 C 80.136,870.08 81.167,825.594 80.816,781.117 135.395,680.84 185.138,577.015 215.806,466.682 241.401,375.859 256.667,281.203 251.629,186.654 248.581,146.676 242.83,104.98 220.99,70.436 c -12.179,-19.157 -31.607,-34.987 -54.75,-37.588 -4.362,-0.62 -8.771,-0.886 -13.176,-0.842 z m 3.072,48.809 c 14.309,0.587 24.582,12.71 29.57,25.11 16.492,35.494 17.215,75.559 18.035,113.949 0.887,123.387 -31.304,244.905 -76.623,358.983 -14.265,35.805 -29.915,71.805 -45.679,106.495 0.209,-146.965 -0.808,-294.451 14.415,-440.689 5.215,-42.809 10.526,-86.244 25.208,-127.028 5.925,-13.164 11.343,-29.591 25.791,-35.627 2.954,-1.173 6.148,-1.285 9.283,-1.193 z"/>
</svg>
