<?xml version="1.0" encoding="UTF-8" standalone="no"?>
<svg
  xmlns="http://www.w3.org/2000/svg"
  width="431.55"
  height="70"
  viewBox="0 0 431.55 70">
  <path
    d="M185.391 8.208c-7.632 0-12.53 2.735-17.786 8.279l6.985 6.912c2.52-2.736 5.4-5.183 9.072-5.183 4.248 0 6.984 2.664 6.984 7.56 0 7.776-9 17.496-22.392 29.664v7.344h37.152V51.983h-9.865c-2.376 0-6.047.361-8.711.721 8.208-8.28 16.127-18.432 16.127-27.648 0-10.224-7.198-16.848-17.566-16.848zM0 9.216v53.568h12.889V40.753h17.638v22.031h12.744V9.216H30.527v20.377H12.889V9.216H0zm65.551 0L48.92 62.784h13.103l3.096-12.312h15.84l3.096 12.312h13.537L80.959 9.216H65.551zm37.668 0v53.568h12.888V9.216h-12.888zm25.172 0v53.568h33.695V51.983h-20.807V9.216h-12.888zm86.609 0v28.369c0 18.072 7.424 26.207 21.752 26.207 14.256 0 21.457-8.135 21.457-26.207V9.216h-12.385v29.736c0 10.152-3.24 13.752-9.072 13.752-5.904 0-8.928-3.6-8.928-13.752V9.216H215zm78.344 0v53.568h12.24V45.001c0-6.48-1.08-13.825-1.656-19.801h.359l5.256 11.737 13.248 25.847h13.105V9.216h-12.24v17.713c0 6.408 1.007 14.111 1.727 19.799h-.36l-5.255-11.879-13.321-25.633h-13.103zm54.984 0v53.568h34.776V51.983h-21.887V40.608h17.928v-10.8h-17.928v-9.936h21.096V9.216h-33.985zm41.318 0v10.656h14.471v42.912h12.889V19.872h14.545V9.216h-41.905zM72.824 18.792h.287c1.44 5.472 2.808 11.881 4.248 17.209l1.153 4.535H67.568l1.151-4.535c1.368-5.328 2.809-11.593 4.105-17.209zM274.512 47.88c-4.464 0-7.633 3.528-7.633 7.92 0 4.464 3.169 7.992 7.633 7.992 4.392 0 7.631-3.528 7.631-7.992 0-4.392-3.239-7.92-7.631-7.92z"
    fill="#625b56"/>
</svg>
