<svg
  xmlns="http://www.w3.org/2000/svg"
  height="128"
  width="476.055"
  viewBox="0 0 476.055 128"
  role="img"
  aria-labelledby="logo-title">
  <title id="logo-title">Hail2u.net</title>
  <path
    d="m 207.252,32 c -2.984,0 -5.555,0.384 -7.712,1.152 -2.127,0.768 -3.915,1.699 -5.363,2.792 -1.418,1.093 -2.541,2.246 -3.368,3.457 -0.798,1.182 -1.374,2.187 -1.729,3.014 l 3.457,1.64 c 1.271,-2.837 3.132,-4.979 5.584,-6.427 2.452,-1.448 5.452,-2.172 8.997,-2.172 2.127,0 4.063,0.295 5.806,0.886 1.743,0.561 3.235,1.418 4.476,2.571 1.241,1.152 2.201,2.6 2.881,4.343 0.68,1.743 1.019,3.767 1.019,6.072 0,2.659 -0.443,5.053 -1.33,7.18 -0.886,2.098 -2.024,4.063 -3.413,5.895 -0.975,1.3 -2.113,2.718 -3.413,4.255 -1.3,1.536 -2.704,3.132 -4.211,4.787 -1.507,1.655 -3.102,3.339 -4.787,5.053 -1.655,1.684 -3.324,3.354 -5.008,5.008 -1.684,1.655 -3.368,3.25 -5.053,4.787 -1.684,1.536 -3.295,2.955 -4.831,4.255 l 0,4.078 38.205,0 0,-3.457 -33.861,0 c 2.777,-2.452 5.348,-4.816 7.712,-7.091 2.393,-2.305 4.565,-4.476 6.515,-6.515 1.98,-2.039 3.753,-3.93 5.319,-5.673 1.566,-1.743 2.955,-3.295 4.166,-4.654 2.807,-3.221 4.861,-6.264 6.161,-9.13 1.33,-2.866 1.994,-5.791 1.994,-8.776 0,-3.132 -0.488,-5.791 -1.463,-7.978 -0.975,-2.216 -2.305,-4.004 -3.989,-5.363 -1.655,-1.389 -3.59,-2.393 -5.806,-3.014 C 212.024,32.325 209.705,32 207.252,32 Z M 2,33.285 l 0,61.341 3.812,0 0,-30.05 31.778,0 0,30.05 3.812,0 0,-61.341 -3.812,0 0,27.834 -31.778,0 0,-27.834 z m 73.928,0 -21.584,61.341 4.255,0 6.648,-19.501 26.194,0 6.648,19.501 4.432,0 -21.85,-61.341 z m 34.526,0 0,3.413 8.377,0 0,54.471 -8.377,0 0,3.457 20.521,0 0,-3.457 -8.332,0 0,-54.471 8.332,0 0,-3.413 z m 34.615,0 0,61.341 33.596,0 0,-3.457 -29.784,0 0,-57.884 z m 97.596,0 0,35.723 c 0,4.934 0.325,9.115 0.975,12.543 0.65,3.428 1.773,6.22 3.368,8.377 1.625,2.127 3.782,3.679 6.471,4.654 C 256.198,95.527 259.61,96 263.717,96 c 3.782,0 6.988,-0.458 9.618,-1.374 2.63,-0.886 4.757,-2.379 6.382,-4.476 1.655,-2.127 2.851,-4.905 3.59,-8.332 0.739,-3.457 1.108,-7.727 1.108,-12.809 l 0,-35.723 -3.812,0 0,35.014 c 0,4.787 -0.266,8.746 -0.798,11.878 -0.532,3.102 -1.448,5.584 -2.748,7.446 -1.3,1.832 -3.043,3.117 -5.23,3.856 -2.187,0.709 -4.92,1.064 -8.199,1.064 -3.339,0 -6.116,-0.369 -8.332,-1.108 -2.187,-0.768 -3.945,-2.068 -5.274,-3.9 -1.3,-1.861 -2.216,-4.358 -2.748,-7.49 -0.532,-3.162 -0.798,-7.136 -0.798,-11.922 l 0,-34.837 z m 83.767,0 0,61.341 3.812,0 0,-56.909 33.152,56.909 4.343,0 0,-61.341 -3.812,0 0,55.003 -32.044,-55.003 z m 60.454,0 0,61.341 35.147,0 0,-3.457 -31.335,0 0,-27.568 27.036,0 0,-3.457 -27.036,0 0,-23.446 31.335,0 0,-3.413 z m 43.789,0 0,3.413 21.806,0 0,57.928 3.812,0 0,-57.928 21.761,0 4e-4,-3.413 z m -352.488,3.501 12.011,34.881 -23.801,0 z m 226.925,52.122 c -2.187,0 -3.28,1.064 -3.28,3.191 0,1.005 0.251,1.788 0.753,2.349 0.502,0.532 1.344,0.798 2.526,0.798 1.123,0 1.965,-0.207 2.526,-0.62 0.561,-0.443 0.842,-1.285 0.842,-2.526 0,-1.152 -0.266,-1.965 -0.798,-2.438 -0.532,-0.502 -1.389,-0.753 -2.571,-0.753 z"/>
</svg>
