<?xml version="1.0" encoding="UTF-8" standalone="no"?>
<svg
  xmlns="http://www.w3.org/2000/svg"
  version="1.1"
  width="640"
  height="360"
  viewBox="0 0 640 360">
  <rect
    width="672"
    height="392"
    x="-16"
    y="-16"
    style="fill:#5bacd0"/>
  <path
    d="m 159.83,152.43 0,42.6 2.88,0 0,-12 2.94,-3.12 11.76,15.12 3.48,0 -13.26,-16.86 11.64,-11.94 -3.48,0 -10.2,10.68 c -0.9,0.96 -2.04,2.28 -2.76,3.18 l -0.12,0 0,-27.66 -2.88,0 z m 93.46,0 0,42.6 2.88,0 0,-17.58 c 0,-1.2 0.1,-1.98 0.36,-2.88 1.26,-3.54 4.62,-6.48 8.7,-6.48 5.88,0 7.92,4.68 7.92,9.9 l 0,17.04 2.88,0 0,-17.34 c 0,-10.74 -7.32,-12.12 -10.02,-12.12 -2.16,0 -4.14,0.6 -5.82,1.68 -1.68,0.96 -3.06,2.52 -3.9,4.14 l -0.12,0 0,-18.96 -2.88,0 z m 267.65,0 0,42.6 2.88,0 0,-42.6 -2.88,0 z m -112.19,1.5 c -6.9,0 -11.76,4.32 -11.76,10.26 0,5.52 3.9,8.88 10.38,11.16 5.88,2.28 8.22,4.92 8.22,9.48 0,4.98 -3.72,8.4 -9.78,8.4 -3.36,0 -6.54,-1.08 -8.82,-2.64 l -1.08,2.34 c 2.1,1.62 6.18,2.76 9.66,2.76 8.64,0 12.84,-5.28 12.84,-11.16 0,-6.06 -3.54,-9.06 -10.2,-11.76 -5.82,-2.28 -8.4,-4.56 -8.4,-9.06 0,-3.18 2.22,-7.38 8.76,-7.38 3.48,0 6.06,1.14 7.14,1.92 l 1.08,-2.4 c -1.38,-0.96 -4.26,-1.92 -8.04,-1.92 z m -321.298,0.66 -2.942,40.44 2.821,0 1.259,-18.6 c 0.48,-6.72 0.781,-13.74 0.901,-18.48 l 0.121,0 c 1.2,4.44 2.939,9.3 5.219,15.6 l 7.979,21.48 1.98,0 8.52,-22.02 c 2.34,-6 3.96,-10.68 5.46,-15.06 l 0.12,0 c 0,4.38 0.48,11.82 0.84,17.88 l 1.2,19.2 2.82,0 -2.7,-40.44 -3.42,0 -9.06,23.34 c -2.04,5.4 -3.48,9.36 -4.5,13.08 l -0.18,0 c -1.14,-3.9 -2.52,-7.98 -4.438,-13.14 l -8.701,-23.28 -3.299,0 z m 132.658,0 0,2.4 13.2,0 0,38.04 2.88,0 0,-38.04 13.2,0 0,-2.4 -29.28,0 z m 66.72,0.9 c -1.32,0 -2.34,1.2 -2.34,2.52 0,1.32 0.9,2.46 2.22,2.46 1.5,0 2.4,-1.14 2.4,-2.46 0,-1.38 -0.96,-2.52 -2.28,-2.52 z m 140.75,0 c -1.32,0 -2.34,1.2 -2.34,2.52 0,1.32 0.9,2.46 2.22,2.46 1.5,0 2.4,-1.14 2.4,-2.46 0,-1.38 -0.96,-2.52 -2.28,-2.52 z m -286.9,10.08 c -2.58,0 -5.82,0.72 -8.46,2.46 l 0.9,2.1 c 2.1,-1.5 4.74,-2.16 7.26,-2.16 6.84,-0.1 7.38,5.64 7.38,8.46 l 0,0.78 c -11.76,-0.12 -17.58,3.9 -17.58,10.56 0,3.84 2.64,7.92 8.46,7.92 4.62,0 7.8,-2.58 9.24,-4.8 l 0.12,0 0.42,4.14 2.64,0 c -0.36,-2.22 -0.42,-4.56 -0.42,-6.84 l 0,-11.28 c 0,-5.1 -1.62,-11.34 -9.96,-11.34 z m 55.9,0 c -7.44,0 -12.96,6 -12.96,15.6 0,8.46 5.16,14.46 13.44,14.46 5.04,0 7.98,-1.26 9.06,-1.86 l -0.72,-2.22 c -1.62,0.78 -3.78,1.62 -7.98,1.62 -6,0 -10.98,-3.66 -10.98,-12.84 l 21.24,0 c 0.12,-0.54 0.12,-0.96 0.12,-1.74 0,-4.14 -1.8,-13.02 -11.22,-13.02 z m 114.01,0 c -4.68,0 -8.34,2.64 -9.9,5.88 l -0.12,0 -0.18,-5.22 -2.7,0 c 0.18,2.28 0.24,4.26 0.24,6.9 l 0,21.9 2.88,0 0,-17.82 c 0,-0.9 0.18,-1.86 0.36,-2.58 1.14,-3.72 4.62,-6.6 8.64,-6.6 5.94,0 7.98,4.74 7.98,9.96 l 0,17.04 2.88,0 0,-17.28 c 0,-10.8 -7.32,-12.18 -10.08,-12.18 z m 30.01,0 c -6.36,0 -12.96,5.28 -12.96,15.3 0,7.86 5.1,14.16 12.36,14.16 5.16,0 8.52,-2.64 10.02,-5.58 l 0.12,0 0,4.08 c 0,8.52 -4.38,11.64 -10.44,11.64 -3.72,0 -6.54,-1.08 -8.58,-2.4 l -1.02,2.28 c 2.22,1.68 5.88,2.52 9.18,2.52 3.24,0 7.14,-0.9 9.78,-3.42 2.4,-2.28 3.96,-5.94 3.96,-13.32 l 0,-17.16 c 0,-3 0.1,-5.28 0.24,-7.44 l -2.64,0 -0.18,4.86 -0.12,0 c -1.2,-2.4 -4.02,-5.52 -9.72,-5.52 z m 29.64,0 c -5.58,0 -8.88,3.66 -8.88,7.8 0,3.48 2.58,6.06 7.32,7.86 4.14,1.68 6.06,3.36 6.06,6.54 0,3 -2.16,5.46 -6.72,5.46 -2.58,0 -4.92,-1.02 -6.48,-1.98 l -1.02,2.4 c 1.92,1.2 4.56,1.98 7.32,1.98 5.88,0 9.72,-3.3 9.72,-8.22 0,-4.38 -2.76,-6.72 -7.44,-8.52 -3.9,-1.62 -5.94,-2.94 -5.94,-5.94 0,-2.64 1.92,-4.98 5.58,-4.98 2.88,0 4.74,1.02 5.76,1.74 l 1.08,-2.34 c -1.44,-1.02 -3.72,-1.8 -6.36,-1.8 z m 80.56,0 c -4.74,0 -7.5,2.46 -9.36,5.76 l -0.12,0 -0.18,-5.1 -2.7,0 c 0.18,2.28 0.24,4.26 0.24,6.9 l 0,21.9 2.88,0 0,-17.76 c 0,-0.96 0.18,-1.98 0.42,-2.76 1.08,-3.36 4.14,-6.48 7.98,-6.48 4.68,0 7.14,3.78 7.14,9 l 0,18 2.88,0 0,-18.48 c 0,-1.02 0.24,-1.98 0.48,-2.82 1.14,-3.06 3.96,-5.7 7.56,-5.7 4.98,0 7.5,3.84 7.5,10.32 l 0,16.68 2.88,0 0,-16.98 c 0,-10.92 -6.6,-12.48 -9.42,-12.48 -3.06,0 -4.98,0.84 -6.84,2.4 -1.08,0.9 -2.16,2.16 -2.94,3.9 l -0.12,0 c -1.26,-3.66 -4.32,-6.3 -8.28,-6.3 z m 50.36,0 c -4.98,0 -8.52,2.34 -10.62,6.12 l -0.12,0 -0.18,-5.46 -2.76,0 c 0.18,2.76 0.24,5.58 0.24,9.18 l 0,31.5 2.88,0 0,-16.56 0.12,0 c 1.98,3.48 5.64,5.34 9.78,5.34 6.96,0 13.08,-5.28 13.08,-15.54 0,-8.46 -4.98,-14.58 -12.42,-14.58 z m 43.11,0 c -7.43,0 -12.95,6 -12.95,15.6 0,8.46 5.16,14.46 13.43,14.46 5.05,0 7.98,-1.26 9.07,-1.86 l -0.72,-2.22 c -1.62,0.78 -3.78,1.62 -7.99,1.62 -6,0 -10.98,-3.66 -10.98,-12.84 l 21.24,0 c 0.12,-0.54 0.12,-0.96 0.12,-1.74 0,-4.14 -1.79,-13.02 -11.22,-13.02 z m -258.88,0.66 0,28.8 2.88,0 0,-28.8 -2.88,0 z m 140.75,0 0,28.8 2.88,0 0,-28.8 -2.88,0 z m -229.92,1.74 c 6.96,0 8.64,6.06 8.58,10.08 l -18.24,0 c 0.54,-4.44 3.3,-10.08 9.66,-10.08 z m 144.62,0 c 4.74,0 7.74,3.06 8.94,6.54 0.3,0.84 0.36,1.74 0.36,2.82 l 0,5.76 c 0,1.02 -0.18,2.1 -0.48,3.06 -1.5,4.14 -5.04,6.48 -8.94,6.48 -6.78,0 -10.2,-5.58 -10.2,-12.06 0,-7.62 4.2,-12.6 10.32,-12.6 z m 159.72,0 c 6.54,0 10.14,5.82 10.14,12.3 0,7.68 -3.78,13.02 -10.38,13.02 -4.44,0 -8.28,-2.88 -9.48,-7.32 -0.18,-0.72 -0.24,-1.5 -0.24,-2.28 l 0,-5.64 c 0,-0.78 0.24,-1.68 0.42,-2.46 1.26,-4.74 5.34,-7.62 9.54,-7.62 z m 43.35,0 c 6.96,0 8.65,6.06 8.58,10.08 l -18.24,0 c 0.55,-4.44 3.31,-10.08 9.66,-10.08 z m -398.59,11.64 c 0.83,0 1.65,0 2.44,0 l 0,6.18 c 0,0.48 -0.1,1.14 -0.3,1.74 -0.96,2.82 -3.72,5.76 -8.52,5.76 -3,0 -5.76,-1.86 -5.76,-6 0,-6.04 6.34,-7.53 12.14,-7.68 z"
    style="fill:#3598c3"/>
</svg>
