<?xml version="1.0" encoding="UTF-8" standalone="no"?>
<svg
  xmlns="http://www.w3.org/2000/svg"
  version="1.1"
  width="640"
  height="360"
  viewBox="0 0 640 360">
  <rect
    width="672"
    height="392"
    x="-16"
    y="-16"
    style="fill:#fcf6e4"/>
  <path
    d="m 197.56,163.92 0,32.57 2.21,0 0,-9.17 2.23,-2.39 9,11.56 2.66,0 -10.14,-12.88 8.9,-9.13 -2.66,0 -7.8,8.16 c -0.69,0.73 -1.56,1.74 -2.11,2.43 l -0.14,0 0,-21.15 -2.21,0 z m 71.43,0 0,32.57 2.21,0 0,-13.44 c 0,-0.92 0.14,-1.51 0.26,-2.2 0.97,-2.71 3.53,-4.95 6.65,-4.95 4.5,0 6.05,3.57 6.05,7.57 l 0,13.02 2.21,0 0,-13.26 c 0,-8.2 -5.6,-9.25 -7.66,-9.25 -1.65,0 -3.17,0.45 -4.45,1.28 -1.28,0.73 -2.33,1.92 -2.98,3.16 l -0.14,0 0,-14.5 -2.21,0 z m 204.56,0 0,32.57 2.2,0 0,-32.57 -2.2,0 z m -85.75,1.16 c -5.27,0 -8.98,3.3 -8.98,7.84 0,4.22 2.98,6.78 7.93,8.52 4.5,1.75 6.28,3.77 6.28,7.26 0,3.79 -2.84,6.41 -7.48,6.41 -2.56,0 -4.99,-0.83 -6.73,-2.01 l -0.83,1.78 c 1.6,1.24 4.72,2.11 7.38,2.11 6.61,0 9.82,-4.03 9.82,-8.53 0,-4.63 -2.7,-6.92 -7.79,-8.99 -4.46,-1.74 -6.43,-3.48 -6.43,-6.91 0,-2.44 1.7,-5.66 6.69,-5.66 2.66,0 4.64,0.88 5.46,1.48 l 0.83,-1.84 c -1.06,-0.73 -3.26,-1.46 -6.15,-1.46 z m -245.56,0.5 -2.24,30.91 2.15,0 0.97,-14.22 c 0.36,-5.13 0.59,-10.5 0.69,-14.13 l 0.14,0 c 0.91,3.4 2.25,7.12 3.99,11.92 l 6.1,16.43 1.51,0 6.51,-16.83 c 1.8,-4.59 3.03,-8.16 4.17,-11.52 l 0.14,0 c 0,3.36 0.37,9.04 0.64,13.67 l 0.92,14.68 2.16,0 -2.07,-30.91 -2.62,0 -6.91,17.83 c -1.57,4.14 -2.66,7.16 -3.45,10 l -0.14,0 c -0.87,-2.98 -1.93,-6.09 -3.39,-10.04 l -6.65,-17.79 -2.52,0 z m 101.4,0 0,1.83 10.08,0 0,29.08 2.21,0 0,-29.08 10.08,0 0,-1.83 -22.37,0 z m 50.98,0.69 c -1.01,0 -1.78,0.91 -1.78,1.93 0,1 0.69,1.87 1.7,1.87 1.14,0 1.83,-0.87 1.83,-1.87 0,-1.06 -0.74,-1.93 -1.75,-1.93 z m 107.57,0 c -1,0 -1.79,0.91 -1.79,1.93 0,1 0.69,1.87 1.7,1.87 1.14,0 1.83,-0.87 1.83,-1.87 0,-1.06 -0.73,-1.93 -1.74,-1.93 z m -219.27,7.71 c -1.97,0 -4.44,0.54 -6.47,1.87 l 0.69,1.61 c 1.61,-1.15 3.63,-1.66 5.56,-1.66 5.23,-0.14 5.64,4.32 5.64,6.47 l 0,0.59 c -8.99,-0.14 -13.45,2.98 -13.45,8.07 0,2.94 2.03,6.06 6.47,6.06 3.53,0 5.96,-1.96 7.06,-3.67 l 0.14,0 0.32,3.17 2.02,0 c -0.27,-1.7 -0.33,-3.49 -0.33,-5.23 l 0,-8.62 c 0,-3.9 -1.24,-8.66 -7.61,-8.66 z m 42.73,0 c -5.69,0 -9.91,4.58 -9.91,11.92 0,6.45 3.95,11.05 10.28,11.05 3.85,0 6.09,-0.97 6.92,-1.43 l -0.55,-1.69 c -1.24,0.59 -2.9,1.24 -6.1,1.24 -4.59,0 -8.4,-2.8 -8.4,-9.82 l 16.24,0 c 0.14,-0.4 0.14,-0.73 0.14,-1.33 0,-3.17 -1.36,-9.94 -8.56,-9.94 z m 87.14,0 c -3.59,0 -6.38,2.01 -7.58,4.48 l -0.14,0 -0.14,-3.98 -2.07,0 c 0.14,1.73 0.18,3.25 0.18,5.28 l 0,16.73 2.21,0 0,-13.63 c 0,-0.69 0.14,-1.42 0.28,-1.97 0.86,-2.84 3.53,-5.04 6.6,-5.04 4.54,0 6.1,3.62 6.1,7.62 l 0,13.02 2.19,0 0,-13.21 c 0,-8.25 -5.58,-9.3 -7.69,-9.3 z m 22.93,0 c -4.86,0 -9.91,4.03 -9.91,11.68 0,6.02 3.89,10.83 9.45,10.83 3.95,0 6.51,-2.03 7.66,-4.26 l 0.14,0 0,3.1 c 0,6.53 -3.34,8.91 -7.97,8.91 -2.84,0 -5.01,-0.83 -6.57,-1.83 l -0.77,1.74 c 1.7,1.28 4.5,1.93 7.02,1.93 2.47,0 5.45,-0.69 7.48,-2.62 1.82,-1.74 3.02,-4.54 3.02,-10.18 l 0,-13.12 c 0,-2.29 0.14,-4.03 0.18,-5.68 l -2.02,0 -0.14,3.71 -0.14,0 c -0.92,-1.84 -3.07,-4.21 -7.43,-4.21 z m 22.65,0 c -4.27,0 -6.79,2.79 -6.79,5.96 0,2.66 1.97,4.62 5.6,6 3.16,1.28 4.62,2.56 4.62,4.99 0,2.3 -1.64,4.18 -5.13,4.18 -1.97,0 -3.75,-0.77 -4.95,-1.52 l -0.78,1.84 c 1.47,0.92 3.48,1.52 5.59,1.52 4.5,0 7.44,-2.53 7.44,-6.28 0,-3.35 -2.11,-5.14 -5.69,-6.51 -2.99,-1.24 -4.55,-2.25 -4.55,-4.55 0,-2.02 1.48,-3.81 4.28,-3.81 2.19,0 3.61,0.79 4.4,1.34 l 0.82,-1.8 c -1.1,-0.77 -2.85,-1.36 -4.86,-1.36 z m 61.58,0 c -3.63,0 -5.74,1.87 -7.16,4.4 l -0.14,0 -0.14,-3.9 -2.07,0 c 0.14,1.73 0.18,3.25 0.18,5.28 l 0,16.73 2.2,0 0,-13.57 c 0,-0.75 0.14,-1.52 0.32,-2.11 0.83,-2.57 3.16,-4.96 6.1,-4.96 3.57,0 5.46,2.89 5.46,6.89 l 0,13.75 2.21,0 0,-14.13 c 0,-0.78 0.18,-1.51 0.36,-2.15 0.87,-2.34 3.03,-4.36 5.78,-4.36 3.8,0 5.72,2.94 5.72,7.88 l 0,12.76 2.21,0 0,-12.98 c 0,-8.35 -5.05,-9.53 -7.2,-9.53 -2.35,0 -3.81,0.63 -5.23,1.82 -0.83,0.69 -1.64,1.66 -2.25,2.99 l -0.14,0 c -0.97,-2.8 -3.3,-4.81 -6.33,-4.81 z m 38.48,0 c -3.81,0 -6.51,1.78 -8.11,4.66 l -0.14,0 -0.14,-4.16 -2.11,0 c 0.14,2.11 0.18,4.26 0.18,7.02 l 0,24.07 2.21,0 0,-12.65 0.14,0 c 1.52,2.65 4.32,4.07 7.48,4.07 5.31,0 10,-4.03 10,-11.88 0,-6.47 -3.81,-11.13 -9.49,-11.13 z m 32.95,0 c -5.68,0 -9.9,4.58 -9.9,11.92 0,6.45 3.95,11.05 10.26,11.05 3.87,0 6.1,-0.97 6.93,-1.43 l -0.55,-1.69 c -1.23,0.59 -2.88,1.24 -6.1,1.24 -4.58,0 -8.39,-2.8 -8.39,-9.82 l 16.22,0 c 0.15,-0.4 0.15,-0.73 0.15,-1.33 0,-3.17 -1.37,-9.94 -8.58,-9.94 z m -197.85,0.5 0,22.01 2.19,0 0,-22.01 -2.19,0 z m 107.56,0 0,22.01 2.21,0 0,-22.01 -2.21,0 z m -175.72,1.32 c 5.32,0 6.61,4.64 6.55,7.71 l -13.93,0 c 0.41,-3.39 2.52,-7.71 7.38,-7.71 z m 110.53,0 c 3.62,0 5.91,2.34 6.84,5.01 0.22,0.63 0.27,1.32 0.27,2.15 l 0,4.4 c 0,0.78 -0.15,1.61 -0.37,2.34 -1.14,3.16 -3.85,4.96 -6.83,4.96 -5.18,0 -7.79,-4.27 -7.79,-9.22 0,-5.83 3.2,-9.64 7.88,-9.64 z m 122.07,0 c 5,0 7.74,4.45 7.74,9.41 0,5.86 -2.88,9.94 -7.93,9.94 -3.38,0 -6.32,-2.19 -7.24,-5.59 -0.14,-0.55 -0.18,-1.14 -0.18,-1.73 l 0,-4.32 c 0,-0.59 0.18,-1.28 0.32,-1.88 0.96,-3.62 4.08,-5.83 7.29,-5.83 z m 33.14,0 c 5.31,0 6.61,4.64 6.55,7.71 l -13.93,0 c 0.4,-3.39 2.51,-7.71 7.38,-7.71 z m -304.64,8.9 1.87,0 0,4.73 c 0,0.36 0,0.87 -0.23,1.32 -0.74,2.17 -2.85,4.4 -6.51,4.4 -2.3,0 -4.41,-1.42 -4.41,-4.58 0,-4.61 4.85,-5.75 9.28,-5.87 z"
    style="fill:#cfc39f"/>
</svg>
