<?xml version="1.0" encoding="UTF-8" standalone="no"?>
<svg
  xmlns="http://www.w3.org/2000/svg"
  version="1.1"
  width="640"
  height="360"
  viewBox="0 0 640 360">
  <rect
    width="672"
    height="392"
    x="-16"
    y="-16"
    style="fill:#98c4e5"/>
  <path
    d="M 159.83 152.43 L 159.83 195.03 L 162.71 195.03 L 162.71 183.03 L 165.65 179.91 L 177.41 195.03 L 180.89 195.03 L 167.63 178.17 L 179.27 166.23 L 175.79 166.23 L 165.59 176.91 C 164.69 177.87 163.55 179.19 162.83 180.09 L 162.71 180.09 L 162.71 152.43 L 159.83 152.43 z M 253.29 152.43 L 253.29 195.03 L 256.17 195.03 L 256.17 177.45 C 256.17 176.25 256.27 175.47 256.53 174.57 C 257.79 171.03 261.15 168.09 265.23 168.09 C 271.11 168.09 273.15 172.77 273.15 177.99 L 273.15 195.03 L 276.03 195.03 L 276.03 177.69 C 276.03 166.95 268.71 165.57 266.01 165.57 C 263.85 165.57 261.87 166.17 260.19 167.25 C 258.51 168.21 257.13 169.77 256.29 171.39 L 256.17 171.39 L 256.17 152.43 L 253.29 152.43 z M 520.94 152.43 L 520.94 195.03 L 523.82 195.03 L 523.82 152.43 L 520.94 152.43 z M 408.75 153.93 C 401.85 153.93 396.99 158.25 396.99 164.19 C 396.99 169.71 400.89 173.07 407.37 175.35 C 413.25 177.63 415.59 180.27 415.59 184.83 C 415.59 189.81 411.87 193.23 405.81 193.23 C 402.45 193.23 399.27 192.15 396.99 190.59 L 395.91 192.93 C 398.01 194.55 402.09 195.69 405.57 195.69 C 414.21 195.69 418.41 190.41 418.41 184.53 C 418.41 178.47 414.87 175.47 408.21 172.77 C 402.39 170.49 399.81 168.21 399.81 163.71 C 399.81 160.53 402.03 156.33 408.57 156.33 C 412.05 156.33 414.63 157.47 415.71 158.25 L 416.79 155.85 C 415.41 154.89 412.53 153.93 408.75 153.93 z M 87.451 154.59 L 84.51 195.03 L 87.33 195.03 L 88.59 176.43 C 89.07 169.71 89.37 162.69 89.49 157.95 L 89.611 157.95 C 90.811 162.39 92.55 167.25 94.83 173.55 L 102.81 195.03 L 104.79 195.03 L 113.31 173.01 C 115.65 167.01 117.27 162.33 118.77 157.95 L 118.89 157.95 C 118.89 162.33 119.37 169.77 119.73 175.83 L 120.93 195.03 L 123.75 195.03 L 121.05 154.59 L 117.63 154.59 L 108.57 177.93 C 106.53 183.33 105.09 187.29 104.07 191.01 L 103.89 191.01 C 102.75 187.11 101.37 183.03 99.451 177.87 L 90.752 154.59 L 87.451 154.59 z M 220.11 154.59 L 220.11 156.99 L 233.31 156.99 L 233.31 195.03 L 236.19 195.03 L 236.19 156.99 L 249.39 156.99 L 249.39 154.59 L 220.11 154.59 z M 286.83 155.49 C 285.51 155.49 284.49 156.69 284.49 158.01 C 284.49 159.33 285.39 160.47 286.71 160.47 C 288.21 160.47 289.11 159.33 289.11 158.01 C 289.11 156.63 288.15 155.49 286.83 155.49 z M 427.58 155.49 C 426.26 155.49 425.24 156.69 425.24 158.01 C 425.24 159.33 426.14 160.47 427.46 160.47 C 428.96 160.47 429.86 159.33 429.86 158.01 C 429.86 156.63 428.9 155.49 427.58 155.49 z M 140.68 165.57 C 138.1 165.57 134.86 166.29 132.22 168.03 L 133.12 170.13 C 135.22 168.63 137.86 167.97 140.38 167.97 C 147.22 167.87 147.76 173.61 147.76 176.43 L 147.76 177.21 C 136 177.09 130.18 181.11 130.18 187.77 C 130.18 191.61 132.82 195.69 138.64 195.69 C 143.26 195.69 146.44 193.11 147.88 190.89 L 148 190.89 L 148.42 195.03 L 151.06 195.03 C 150.7 192.81 150.64 190.47 150.64 188.19 L 150.64 176.91 C 150.64 171.81 149.02 165.57 140.68 165.57 z M 196.58 165.57 C 189.14 165.57 183.62 171.57 183.62 181.17 C 183.62 189.63 188.78 195.63 197.06 195.63 C 202.1 195.63 205.04 194.37 206.12 193.77 L 205.4 191.55 C 203.78 192.33 201.62 193.17 197.42 193.17 C 191.42 193.17 186.44 189.51 186.44 180.33 L 207.68 180.33 C 207.8 179.79 207.8 179.37 207.8 178.59 C 207.8 174.45 206 165.57 196.58 165.57 z M 310.59 165.57 C 305.91 165.57 302.25 168.21 300.69 171.45 L 300.57 171.45 L 300.39 166.23 L 297.69 166.23 C 297.87 168.51 297.93 170.49 297.93 173.13 L 297.93 195.03 L 300.81 195.03 L 300.81 177.21 C 300.81 176.31 300.99 175.35 301.17 174.63 C 302.31 170.91 305.79 168.03 309.81 168.03 C 315.75 168.03 317.79 172.77 317.79 177.99 L 317.79 195.03 L 320.67 195.03 L 320.67 177.75 C 320.67 166.95 313.35 165.57 310.59 165.57 z M 340.6 165.57 C 334.24 165.57 327.64 170.85 327.64 180.87 C 327.64 188.73 332.74 195.03 340 195.03 C 345.16 195.03 348.52 192.39 350.02 189.45 L 350.14 189.45 L 350.14 193.53 C 350.14 202.05 345.76 205.17 339.7 205.17 C 335.98 205.17 333.16 204.09 331.12 202.77 L 330.1 205.05 C 332.32 206.73 335.98 207.57 339.28 207.57 C 342.52 207.57 346.42 206.67 349.06 204.15 C 351.46 201.87 353.02 198.21 353.02 190.83 L 353.02 173.67 C 353.02 170.67 353.12 168.39 353.26 166.23 L 350.62 166.23 L 350.44 171.09 L 350.32 171.09 C 349.12 168.69 346.3 165.57 340.6 165.57 z M 370.24 165.57 C 364.66 165.57 361.36 169.23 361.36 173.37 C 361.36 176.85 363.94 179.43 368.68 181.23 C 372.82 182.91 374.74 184.59 374.74 187.77 C 374.74 190.77 372.58 193.23 368.02 193.23 C 365.44 193.23 363.1 192.21 361.54 191.25 L 360.52 193.65 C 362.44 194.85 365.08 195.63 367.84 195.63 C 373.72 195.63 377.56 192.33 377.56 187.41 C 377.56 183.03 374.8 180.69 370.12 178.89 C 366.22 177.27 364.18 175.95 364.18 172.95 C 364.18 170.31 366.1 167.97 369.76 167.97 C 372.64 167.97 374.5 168.99 375.52 169.71 L 376.6 167.37 C 375.16 166.35 372.88 165.57 370.24 165.57 z M 450.8 165.57 C 446.06 165.57 443.3 168.03 441.44 171.33 L 441.32 171.33 L 441.14 166.23 L 438.44 166.23 C 438.62 168.51 438.68 170.49 438.68 173.13 L 438.68 195.03 L 441.56 195.03 L 441.56 177.27 C 441.56 176.31 441.74 175.29 441.98 174.51 C 443.06 171.15 446.12 168.03 449.96 168.03 C 454.64 168.03 457.1 171.81 457.1 177.03 L 457.1 195.03 L 459.98 195.03 L 459.98 176.55 C 459.98 175.53 460.22 174.57 460.46 173.73 C 461.6 170.67 464.42 168.03 468.02 168.03 C 473 168.03 475.52 171.87 475.52 178.35 L 475.52 195.03 L 478.4 195.03 L 478.4 178.05 C 478.4 167.13 471.8 165.57 468.98 165.57 C 465.92 165.57 464 166.41 462.14 167.97 C 461.06 168.87 459.98 170.13 459.2 171.87 L 459.08 171.87 C 457.82 168.21 454.76 165.57 450.8 165.57 z M 501.16 165.57 C 496.18 165.57 492.64 167.91 490.54 171.69 L 490.42 171.69 L 490.24 166.23 L 487.48 166.23 C 487.66 168.99 487.72 171.81 487.72 175.41 L 487.72 206.91 L 490.6 206.91 L 490.6 190.35 L 490.72 190.35 C 492.7 193.83 496.36 195.69 500.5 195.69 C 507.46 195.69 513.58 190.41 513.58 180.15 C 513.58 171.69 508.6 165.57 501.16 165.57 z M 544.27 165.57 C 536.84 165.57 531.32 171.57 531.32 181.17 C 531.32 189.63 536.48 195.63 544.75 195.63 C 549.8 195.63 552.73 194.37 553.82 193.77 L 553.1 191.55 C 551.48 192.33 549.32 193.17 545.11 193.17 C 539.11 193.17 534.13 189.51 534.13 180.33 L 555.37 180.33 C 555.49 179.79 555.49 179.37 555.49 178.59 C 555.49 174.45 553.7 165.57 544.27 165.57 z M 285.39 166.23 L 285.39 195.03 L 288.27 195.03 L 288.27 166.23 L 285.39 166.23 z M 426.14 166.23 L 426.14 195.03 L 429.02 195.03 L 429.02 166.23 L 426.14 166.23 z M 196.22 167.97 C 203.18 167.97 204.86 174.03 204.8 178.05 L 186.56 178.05 C 187.1 173.61 189.86 167.97 196.22 167.97 z M 340.84 167.97 C 345.58 167.97 348.58 171.03 349.78 174.51 C 350.08 175.35 350.14 176.25 350.14 177.33 L 350.14 183.09 C 350.14 184.11 349.96 185.19 349.66 186.15 C 348.16 190.29 344.62 192.63 340.72 192.63 C 333.94 192.63 330.52 187.05 330.52 180.57 C 330.52 172.95 334.72 167.97 340.84 167.97 z M 500.56 167.97 C 507.1 167.97 510.7 173.79 510.7 180.27 C 510.7 187.95 506.92 193.29 500.32 193.29 C 495.88 193.29 492.04 190.41 490.84 185.97 C 490.66 185.25 490.6 184.47 490.6 183.69 L 490.6 178.05 C 490.6 177.27 490.84 176.37 491.02 175.59 C 492.28 170.85 496.36 167.97 500.56 167.97 z M 543.91 167.97 C 550.87 167.97 552.56 174.03 552.49 178.05 L 534.25 178.05 C 534.8 173.61 537.56 167.97 543.91 167.97 z M 145.32 179.61 L 147.76 179.61 L 147.76 185.79 C 147.76 186.27 147.66 186.93 147.46 187.53 C 146.5 190.35 143.74 193.29 138.94 193.29 C 135.94 193.29 133.18 191.43 133.18 187.29 C 133.18 181.25 139.52 179.76 145.32 179.61 z "
    style="fill:#66a0cf"/>
</svg>
