<svg
  xmlns="http://www.w3.org/2000/svg"
  width="2560"
  height="1440"
  viewBox="0 0 2560 1440">
  <rect
    width="2592"
    height="1472"
    x="-16"
    y="-16"
    style="fill:#2a372f"/>
  <path
    d="m 959.531,464 c -71.009,0 -130.89,24.849 -179.65,74.514 -24.68,24.688 -43.505,52.648 -56.457,83.889 -12.952,31.24 -19.424,63.769 -19.424,97.602 0,34.137 6.401,66.585 19.201,97.369 12.8,30.784 31.464,58.45 56,82.979 24.536,24.528 52.273,43.273 83.201,56.217 30.937,12.968 63.321,19.432 97.146,19.432 33.825,0 66.593,-6.552 98.281,-19.656 31.705,-13.104 60.049,-32.009 85.033,-56.689 24.064,-23.464 42.281,-50.52 54.625,-81.145 12.328,-30.616 18.512,-63.457 18.512,-98.506 0,-34.745 -6.264,-67.577 -18.752,-98.514 -12.496,-30.928 -30.792,-58.441 -54.857,-82.514 C 1092.111,489.001 1031.14,464 959.531,464 Z m 640.012,0 c -70.712,0 -130.733,24.679 -180.109,74.063 C 1369.154,589.263 1344,649.912 1344,720 c 0,70.096 25.154,130.271 75.434,180.559 50.888,50.288 110.917,75.441 180.109,75.441 70.392,0 131.489,-25.448 183.297,-76.352 C 1831.608,851.808 1856,791.928 1856,720 1856,648.384 1831.145,587.735 1781.48,538.055 1732.104,488.679 1671.447,464 1599.543,464 Z m -639.082,46.176 c 57.905,0 107.417,20.578 148.586,61.723 19.792,19.824 34.888,42.368 45.232,67.664 10.36,25.296 15.545,52.113 15.545,80.457 0,58.833 -19.952,107.745 -59.873,146.754 -20.736,20.112 -43.953,35.49 -69.705,46.17 -25.784,10.672 -52.361,15.992 -79.785,15.992 -27.736,0 -54.258,-5.255 -79.547,-15.768 -25.312,-10.528 -48.009,-25.752 -68.121,-45.721 -20.12,-19.96 -35.576,-42.666 -46.4,-68.131 -10.832,-25.432 -16.232,-51.872 -16.232,-79.305 0,-27.736 5.4,-54.329 16.232,-79.777 10.816,-25.448 26.28,-48.376 46.4,-68.801 39.929,-40.833 89.155,-61.258 147.668,-61.258 z m 639.996,0 c 57.904,0 107.277,20.418 148.109,61.25 40.824,40.848 61.25,90.355 61.25,148.563 0,59.128 -20.112,108.038 -60.344,146.742 -42.36,41.768 -92.047,62.629 -149.031,62.629 -57.296,0 -106.665,-20.712 -148.113,-62.168 -41.44,-41.424 -62.16,-90.496 -62.16,-147.184 0,-56.376 20.873,-105.902 62.633,-148.574 40.232,-40.832 89.448,-61.258 147.656,-61.258 z M 1600,554.52 c -23.784,0 -35.664,12.049 -35.664,36.113 0,23.768 11.896,35.656 35.664,35.656 23.768,0 35.656,-11.888 35.656,-35.656 0,-24.08 -11.872,-36.113 -35.656,-36.113 z M 1547.434,640 c -4.56,0 -8.448,1.609 -11.656,4.801 -3.192,3.2 -4.793,7.08 -4.793,11.656 l 0,104.688 29.246,0 0,124.328 79.555,0 0,-124.336 29.246,0 0,-104.68 c 0,-4.568 -1.687,-8.456 -5.023,-11.656 -3.344,-3.2 -7.158,-4.801 -11.422,-4.801 l -105.152,0 z m -658.303,0.482 c -21.648,0 -39.552,7.168 -53.721,21.488 -14.168,14.328 -21.256,33.672 -21.256,58.057 0,24.984 7.007,44.49 21.023,58.506 14.016,14.032 32.462,21.031 55.318,21.031 14.328,0 27.442,-3.576 39.314,-10.744 11.888,-7.16 21.183,-16.984 27.887,-29.488 l -31.535,-16 c -6.104,14.624 -16.616,21.945 -31.553,21.945 -11.28,0 -19.815,-4.121 -25.607,-12.354 -5.784,-8.232 -8.682,-19.192 -8.682,-32.904 0,-30.176 11.441,-45.256 34.289,-45.256 4.576,0 9.527,1.528 14.863,4.568 5.328,3.048 9.816,8.392 13.48,16 L 957.252,677.5 c -13.72,-24.688 -36.417,-37.034 -68.121,-37.018 z m 148.115,0 c -21.64,0 -39.545,7.168 -53.705,21.488 -14.184,14.328 -21.266,33.672 -21.266,58.057 0,24.984 6.928,44.49 20.816,58.506 13.856,14.032 32.359,21.031 55.527,21.031 14.016,0 26.97,-3.576 38.858,-10.744 11.872,-7.16 21.328,-16.984 28.328,-29.488 l -32,-16 c -6.088,14.624 -16.609,21.945 -31.529,21.945 -11.296,0 -19.823,-4.121 -25.607,-12.354 -5.784,-8.232 -8.69,-19.192 -8.69,-32.904 0,-30.176 11.441,-45.256 34.297,-45.256 4.856,0 9.969,1.528 15.314,4.568 5.328,3.048 9.83,8.392 13.486,16 L 1104.91,677.5 c -13.4,-24.688 -35.968,-37.034 -67.664,-37.018 z"
    style="fill:#ffffff"/>
</svg>
