<svg xmlns="http://www.w3.org/2000/svg" width="640" height="360" viewBox="0 0 640 360"><path fill="#fdfdfa" d="M-16-16h672v392H-16z"/><path d="M272.68 160.57c-1.12.4-2.36.8-3.16.92v.6c0 .8-.47 1.04-3.8 1.04h-16.64c-1.12 0-1.64-.12-2.2-1h-.76c-.1 2.2-.28 4.88-.48 7.24h1.16c.48-1.84.84-2.76 1.32-3.52.56-.96 1.28-1.32 4.84-1.32h2.53v19.6c0 3.36-.33 3.68-3.88 3.92v1.08h11.27v-1.08c-3.68-.24-4-.56-4-3.92v-19.6h2.84c3.53 0 5.6 0 7.8.28v20.12c0 2.64-.24 2.92-2.8 3.16v1.04h8.6v-1.04c-2.44-.24-2.64-.56-2.64-3.12v-9.4c1.08-1.36 2.64-2.12 4.13-2.12 2.71 0 3.95 1.64 3.95 4.96v6.56c0 2.6-.27 2.88-2.64 3.12v1.04h8.49v-1.04c-2.41-.2-2.68-.44-2.68-3.12v-7c0-4.76-2.29-6.88-5.65-6.8-2.08 0-4.12 1.36-5.6 2.88v-13.48zm-102.93.1c-1.55.48-3.96 1.12-5.88 1.4v.96c2.64.24 2.72.4 2.72 2.92v19.08c0 2.64-.32 2.88-2.72 3.08v1.04h8.51v-1.04c-2.4-.24-2.59-.52-2.6-3.08v-9.52c1.13-1.28 2.65-2.04 4.17-2.04 2.68 0 3.92 1.64 3.92 4.92v6.64c0 2.6-.33 2.84-2.65 3.08v1.04h8.44v-1.04c-2.32-.2-2.63-.44-2.63-3.08v-7c0-4.8-2.29-6.84-5.53-6.84-2.16 0-4.27 1.48-5.72 2.92v-13.44zm-108.935 2.46v1.12c3.12.24 3.44.4 3.44 3.96v15.92c0 3.28-.32 3.6-3.96 3.88v1.12h19.28c.36-1.24 1.16-5 1.4-6.32l-1.16-.16c-.56 1.56-1.32 2.96-2 3.76-.88 1.04-2 1.36-5.04 1.36-2 0-3.4 0-4.16-.52-.72-.48-.96-1.36-.96-3.24v-7.56h3.8c3.48 0 3.76.24 4.28 3.08h1.16v-7.64h-1.16c-.48 2.68-.68 3-4.32 3h-3.76v-9.12c0-1.16.08-1.28 1.32-1.28h3.04c2.88 0 3.96.28 4.52 1.16.52.84.92 1.72 1.28 3.4l1.16-.16c-.12-2.04-.32-4.76-.32-5.76h-17.84zm265.935 0v1.12c3.27.24 3.59.48 3.59 3.88v16c0 3.4-.32 3.64-3.59 3.88v1.12h10.59v-1.12c-3.28-.24-3.59-.44-3.59-3.88v-16c0-3.4.31-3.64 3.59-3.88v-1.12h-10.59zm21.86 0v1.12c2.44.28 3.03.64 4.03 3.92 2.2 7.12 4.44 14.16 6.56 21.4h1.24c2.05-6.48 4.28-12.92 6.52-19.96h.1c2.03 5.8 4.79 13.52 7 19.96h1.23c3.28-11.2 5.72-18.76 6.6-21.32 1.2-3.32 1.56-3.64 4.32-4v-1.12h-8.8v1.12c3.12.36 3.28.8 2.72 3.2-.6 2.84-2.84 10.68-4.51 16.04h-.1c-2.44-6.92-4.76-13.4-7-20h-1.15c-2.05 6.52-4.32 13.16-6.49 19.96h-.1c-1.76-5.68-3.32-11.08-4.88-16.48-.61-2.04-.53-2.36 2.39-2.72v-1.12h-9.71zm136.77 0v1.12c3.17.24 3.49.44 3.49 4.08v15.68c0 3.48-.32 3.76-3.37 4v1.12h10.4v-1.12c-3.32-.24-3.68-.52-3.68-4v-7.6c.68-.12 1.21 0 2.16 1.08 3.56 4.24 6.8 8.16 9.93 11.64h6.11v-1.12c-1.92-.24-2.71-.6-4.84-2.88-2-2.16-6.4-7.08-9.4-10.88 2.69-2.72 5.52-5.6 7.08-7 2.52-2.32 3.49-2.72 6.49-3v-1.12h-9.61v1.12l.92.12c1.81.2 1.84.6.64 2.04-1.8 2.2-4.48 5-6.68 7.12-1.12 1.04-1.91 1.6-2.8 1.8v-7c0-3.56.4-3.84 3.48-4.08v-1.12h-10.32zm-295.5.44c-1.08 0-2.04.88-2.04 2.08 0 1.08.96 2.04 2 2.04 1.16 0 2.04-.96 2.04-2.04 0-1.2-.88-2.08-2-2.08zm-32.99 2.52l-2.6 2.68v2.88h-1.79l-1.13 1.16.16.44h2.76v11.6c0 3.16 1.4 4.76 3.92 4.76.4 0 1-.16 1.68-.52l2.72-1.4-.36-1.04c-.52.28-1.44.68-2.44.68-1.04 0-2.36-.6-2.36-3.84v-10.24h4.28c.52-.32.64-1.16.24-1.6h-4.52v-5.48l-.56-.1zm153.29 0l-2.61 2.68v2.88h-1.8l-1.12 1.16.16.44h2.76v11.6c0 3.16 1.4 4.76 3.93 4.76.39 0 1-.16 1.68-.52l2.71-1.4-.36-1.04c-.52.28-1.44.68-2.44.68-1.03 0-2.35-.6-2.35-3.84v-10.24h4.27c.52-.32.64-1.16.24-1.6h-4.51v-5.48l-.56-.1zm117.1 0l-2.6 2.68v2.88h-1.8l-1.12 1.16.17.44h2.75v11.6c0 3.16 1.4 4.76 3.93 4.76.39 0 1-.16 1.67-.52l2.72-1.4-.36-1.04c-.52.28-1.44.68-2.44.68-1.04 0-2.36-.6-2.36-3.84v-10.24h4.28c.52-.32.64-1.16.25-1.6h-4.53v-5.48l-.56-.1zm21.25 0l-2.6 2.68v2.88h-1.8l-1.12 1.16.17.44h2.75v11.6c0 3.16 1.4 4.76 3.93 4.76.39 0 1-.16 1.67-.52l2.72-1.4-.36-1.04c-.52.28-1.44.68-2.44.68-1.04 0-2.36-.6-2.36-3.84v-10.24h4.28c.52-.32.64-1.16.25-1.6h-4.53v-5.48l-.56-.1zm-324.97 5c-1.92.8-3.68 1.28-5.64 1.6v.92c2.32.28 2.48.44 2.48 3.08v8.28c0 2.64-.28 2.88-2.76 3.12v1.04h9.2v-1.04c-3.08-.24-3.28-.48-3.28-3.12v-7.32c.88-2.24 2.16-3.4 3.2-3.4.64 0 1.12.24 1.72.8.24.24.56.28 1.04.1.76-.36 1.28-1.16 1.28-1.96 0-.92-.96-2-2.32-2-1.92 0-3.64 2.24-4.84 4.28h-.1v-4.36zm68.12 0c-1.72.72-3.64 1.24-5.68 1.56v.96c2.4.36 2.52.56 2.52 3.04v8.24c0 2.72-.27 2.96-2.8 3.2v1.04h8.8v-1.04c-2.56-.24-2.84-.48-2.84-3.2v-13.8zm10.71 0c-1.76.76-3.64 1.24-5.56 1.6v.92c2.17.4 2.4.56 2.4 3.12v8.24c0 2.64-.2 2.84-2.92 3.12v1.04H205v-1.04c-2.37-.24-2.61-.4-2.61-3.12v-9.4c1.2-1.04 2.76-2.04 4.36-2.04 2.68 0 3.64 1.8 3.64 4.56v6.68c0 2.76-.28 3.08-2.64 3.32v1.04h8.36v-1.04c-2.32-.24-2.56-.4-2.56-3.12v-7.72c0-3.84-1.96-6.08-5.16-6.08-1.16 0-2.2.48-3.32 1.2-1 .68-1.88 1.28-2.68 1.88v-3.16zm204.85 0c-1.77.76-3.65 1.24-5.56 1.6v.92c2.15.4 2.39.56 2.39 3.12v8.24c0 2.64-.2 2.84-2.92 3.12v1.04h8.68v-1.04c-2.36-.24-2.59-.4-2.59-3.12v-9.4c1.19-1.04 2.76-2.04 4.35-2.04 2.68 0 3.65 1.8 3.65 4.56v6.68c0 2.76-.29 3.08-2.65 3.32v1.04h8.36v-1.04c-2.32-.24-2.56-.4-2.56-3.12v-7.72c0-3.84-1.96-6.08-5.15-6.08-1.17 0-2.21.48-3.33 1.2-1 .68-1.88 1.28-2.67 1.88v-3.16zm110.38 0c-1.75.76-3.63 1.24-5.56 1.6v.92c2.17.4 2.41.56 2.41 3.12v8.24c0 2.64-.21 2.84-2.93 3.12v1.04h8.69v-1.04c-2.36-.24-2.61-.4-2.61-3.12v-9.4c1.21-1.04 2.76-2.04 4.37-2.04 2.67 0 3.63 1.8 3.63 4.56v6.68c0 2.76-.27 3.08-2.63 3.32v1.04h8.36v-1.04c-2.33-.24-2.57-.4-2.57-3.12v-7.72c0-3.84-1.95-6.08-5.16-6.08-1.15 0-2.2.48-3.32 1.2-1 .68-1.88 1.28-2.68 1.88v-3.16zm-408.37.1c-2.04 0-4.2 1.12-5.84 2.92-1.64 1.8-2.64 4.28-2.64 7 0 4.52 2.88 8.52 7.8 8.52 1.24 0 4-.72 6.52-3.84l-.6-.88c-1.48 1.36-2.96 2-4.6 2-2.8 0-5.96-2.24-6-7.68 4.8-.16 9.84-.56 10.48-.68.76-.16.92-.48.92-1.28 0-3.08-2.68-6.08-6-6.08zm116.66 0c-3.08 0-7.16 2.12-7.16 6.64 0 2.72 1.72 4.6 3.52 5.36-.64.8-1.92 1.84-3.52 2.44 0 .4.1 1.12.44 1.68.52.84 1.52 1.76 2.96 2.2-.96.76-2.52 2-3.32 2.8-.6.6-.96 1.36-.96 2.24 0 2.28 2.48 4.88 6.96 4.88 5.32 0 9.96-3.88 9.96-7.92 0-3.92-3.24-4.72-5.72-4.72h-4.24c-1.8 0-2.52-.76-2.52-1.52 0-.56.69-1.32 1.2-1.68.64.12 1.4.2 2.04.2 3.4 0 7-2.08 7-6.4 0-1.4-.48-2.68-1.2-3.52l2.28.12c.64-.36 1.44-1.4 1.8-2.04l-.2-.32c-1.48.24-3.52.48-5.44.6-1.2-.72-2.52-1.08-3.84-1.08zm70.27 0c-2.28.48-4.92 2-6 2.8-.75.56-1.24 1.04-1.24 1.6 0 .96 1 1.72 1.72 1.72.56 0 .96-.28 1.16-.92.32-1.2.68-2.08 1.17-2.64.44-.48 1.03-.76 1.79-.76 2.04 0 3.4 1.6 3.4 4.52v.68c-.87.72-3.8 1.8-6.19 2.6-2.21.76-3.24 2-3.24 3.96 0 2.52 1.95 4.88 4.8 4.88 1.2 0 3.11-1.48 4.71-2.56.2.68.44 1.24.96 1.76.44.44 1.28.8 1.89.8l3.39-2.04-.39-1.04c-.41.24-.97.44-1.45.44-.67 0-1.4-.6-1.4-2.4v-7.4c0-2.12-.39-3.72-1.8-4.92-.88-.72-2.08-1.08-3.28-1.08zm95.63 0c-2.29.48-4.93 2-6 2.8-.76.56-1.25 1.04-1.25 1.6 0 .96 1 1.72 1.72 1.72.56 0 .97-.28 1.16-.92.32-1.2.68-2.08 1.17-2.64.44-.48 1.03-.76 1.79-.76 2.04 0 3.41 1.6 3.41 4.52v.68c-.88.72-3.81 1.8-6.2 2.6-2.21.76-3.24 2-3.24 3.96 0 2.52 1.95 4.88 4.79 4.88 1.21 0 3.12-1.48 4.72-2.56.2.68.44 1.24.96 1.76.44.44 1.28.8 1.88.8l3.4-2.04-.4-1.04c-.4.24-.96.44-1.44.44-.67 0-1.4-.6-1.4-2.4v-7.4c0-2.12-.39-3.72-1.8-4.92-.88-.72-2.08-1.08-3.27-1.08zm72.76 0c-3.68 0-8.8 3-8.8 9.6 0 4.44 3.29 8.84 8.76 8.84 3.97 0 8.68-3.08 8.68-9.52 0-4.92-3.68-8.92-8.64-8.92zm77.81 0c-3.67 0-8.79 3-8.79 9.6 0 4.44 3.28 8.84 8.76 8.84 3.95 0 8.67-3.08 8.67-9.52 0-4.92-3.67-8.92-8.64-8.92zm-461.372.48v1.04c2.16.32 2.44.6 3.36 2.88 1.92 4.68 3.76 9.2 5.52 14h1.12c2.24-5.96 4.317-10.88 5.677-13.88 1.08-2.36 1.4-2.72 3.515-3v-1.04h-7.112v1.04c2.277.28 2.517.72 1.88 2.64-.88 2.6-2.16 6.2-3.56 9.52-1.16-2.84-2.8-7.08-3.8-9.88-.64-1.72-.56-2.04 1.6-2.28v-1.04h-8.2zm51.402 0v1.04c2.2.28 2.56.8 3.44 3 1.16 2.84 2.96 7.68 4.56 12.24.24.68.28 1.2.1 1.8-.21.52-.53 1.36-1.25 2.76-.96 1.76-1.72 2.76-3 3.52-.68.48-1 .84-1 1.48 0 .96 1.12 1.92 2.25 1.92.55 0 1.07-.2 1.27-1 .56-2.12 1.44-4.4 4.12-10.8 2.76-6.6 4-9.92 5.04-12.04 1.08-2.24 1.4-2.56 3.52-2.88v-1.04h-7.24v1.04c2.32.28 2.56.76 2.08 2.24-.79 2.52-2.56 7.24-3.68 9.96l-3.6-10c-.56-1.52-.36-1.92 1.52-2.2v-1.04h-8.09zm419.82 0v1.04c1.91.24 2.24.52 2.95 2.6 1.69 4.8 3.18 9.52 4.66 14.28h1.1c1.6-4.44 3.24-8.4 4.77-12.44 1.64 4.2 3.29 8.12 4.89 12.44h1.15c1.8-5.4 3.6-10.72 4.79-13.92.81-2.2 1.17-2.68 3.17-2.96v-1.04h-7.2v1.04c2.57.36 2.85.56 2.33 2.64-.76 2.96-1.9 6.48-2.78 9.24h-.1c-1.69-4.32-3.33-8.56-4.81-12.72h-1.04c-1.67 4.64-3.15 8.72-4.63 12.56h-.1c-1-3.08-2-6.24-2.95-9.28-.57-1.84-.36-2.08 2.04-2.44v-1.04h-8.28zm-326.76.76c2.32 0 3.8 2.24 3.8 5.36 0 3.16-1.56 4.72-3.32 4.76-2.2 0-3.76-2.24-3.76-5.36 0-3.08 1.6-4.76 3.28-4.76zm238.59.1c3.56 0 5.44 3.84 5.44 8.48 0 5.48-2.05 7.32-4.53 7.32-3.32 0-5.47-3.76-5.47-8.8 0-4.52 2.15-7 4.56-7zm77.81 0c3.55 0 5.43 3.84 5.43 8.48 0 5.48-2.04 7.32-4.52 7.32-3.31 0-5.48-3.76-5.48-8.8 0-4.52 2.17-7 4.57-7zm-433.58.16c2.24 0 3.6 1.92 3.56 4 0 .6-.24.8-.96.8-2.32.1-4.56.12-6.8.12.6-3.24 2.4-4.92 4.2-4.92zm189.89 6.88v6.24c-.75.76-2.16 1.44-3.19 1.44-1.24 0-2.85-1-2.85-3.04 0-1.48.88-2.24 2.44-2.96.85-.4 2.76-1.24 3.6-1.68zm95.63 0v6.24c-.76.76-2.17 1.44-3.2 1.44-1.24 0-2.85-1-2.85-3.04 0-1.48.88-2.24 2.44-2.96.85-.4 2.76-1.24 3.61-1.68zm-167.46 10.04c1.76 0 2.92.12 3.92.52 1.12.48 1.8 1.48 1.8 2.84 0 2.48-1.96 4.44-5.76 4.44-2.96 0-5.28-1.64-5.28-3.84 0-1.12.8-2.24 1.84-3.12.72-.6 1.64-.84 3.48-.84z" fill="#36333d"/></svg>