<svg xmlns="http://www.w3.org/2000/svg" width="6000" height="3135"><rect width="100%" height="100%" fill="#fff"/><path d="M2584 527.5c-53.72 0-96 42.28-96 96v1888c0 53.72 42.28 96 96 96h832c53.72 0 96-42.28 96-96v-1888c0-53.72-42.28-96-96-96zm0 2h832c52.647 0 94 41.353 94 94v1888c0 52.647-41.353 94-94 94h-832c-52.647 0-94-41.353-94-94v-1888c0-52.647 41.353-94 94-94zm8 12c-49.29 0-88 40.71-88 90v1872c0 49.29 38.71 88 88 88h816c49.29 0 90-38.71 90-88v-1872c0-49.29-40.71-90-90-90zm0 2h816c48.215 0 88 39.785 88 88v1872c0 48.215-39.785 86-88 86h-816c-48.215 0-86-37.785-86-86v-1872c0-48.215 37.785-88 86-88zm408 1864c-40.305 0-72 31.695-72 72s31.695 72 72 72 72-31.695 72-72-31.695-72-72-72zm0 2c39.224 0 70 30.776 70 70 0 39.224-30.776 70-70 70-39.224 0-70-30.776-70-70 0-39.224 30.776-70 70-70zm0 6c-35.887 0-64 28.113-64 64s28.113 64 64 64 64-28.113 64-64-28.113-64-64-64zm0 2c34.806 0 62 27.194 62 62s-27.194 62-62 62-62-27.194-62-62 27.194-62 62-62zm-440-1666c-4.97 0-8 3.03-8 8v1600c0 4.97 3.03 8 8 8h880c4.97 0 8-3.03 8-8v-1600c0-4.97-3.03-8-8-8zm0 2h880c3.895 0 6 2.105 6 6v1600c0 3.895-2.105 6-6 6h-880c-3.895 0-6-2.105-6-6v-1600c0-3.895 2.105-6 6-6zm304-122c-9.377 0-16 6.623-16 16 0 9.377 6.623 16 16 16 9.377 0 16-6.623 16-16 0-9.377-6.623-16-16-16zm0 2c8.296 0 14 5.704 14 14s-5.704 14-14 14-14-5.704-14-14 5.704-14 14-14zm72 6c-4.97 0-8 3.03-8 8 0 4.97 3.03 8 8 8h128c4.97 0 8-3.03 8-8 0-4.97-3.03-8-8-8zm0 2h128c3.895 0 6 2.105 6 6s-2.105 6-6 6h-128c-3.895 0-6-2.105-6-6s2.105-6 6-6zm64-66c-4.96 0-8 3.04-8 8s3.04 8 8 8 8-3.04 8-8-3.04-8-8-8zm0 2c3.878 0 6 2.122 6 6s-2.122 6-6 6-6-2.122-6-6 2.122-6 6-6z"/></svg>