<svg xmlns="http://www.w3.org/2000/svg" width="1200" height="600" viewBox="0 0 1200 600"><path fill="#46b0dd" d="M-4-4h1208v608H-4z"/><path d="M480 172c-6 0-8 2-8 8s2 8 8 8h16c6 0 8 2 8 8v208c0 6-2 8-8 8h-16c-6 0-8 2-8 8s2 8 8 8h112c6 0 8-2 8-8s-2-8-8-8h-16c-6 0-8-2-8-8v-80c0-6 2-8 8-8h96c6 0 8 2 8 8v80c0 6-2 8-8 8h-16c-6 0-8 2-8 8s2 8 8 8h64c6 0 8-2 8-8s-2-8-8-8h-16c-6 0-8-2-8-8V196c0-6 2-8 8-8h16c6 0 8-2 8-8s-2-8-8-8h-64c-6 0-8 2-8 8s2 8 8 8h16c6 0 8 2 8 8v96c0 6-2 8-8 8h-96c-6 0-8-2-8-8v-96c0-6 2-8 8-8h16c6 0 8-2 8-8s-2-8-8-8zm48 16h16c6 0 8 2 8 8v208c0 6-2 8-8 8h-16c-6 0-8-2-8-8V196c0-6 2-8 8-8z" fill="#fcf9f0"/></svg>