<?xml version="1.0" encoding="UTF-8" standalone="no"?>
<svg
  xmlns="http://www.w3.org/2000/svg"
  version="1.1"
  width="512"
  height="512"
  viewBox="0 0 512 512">
  <defs>
    <linearGradient
      x1="512"
      y1="0"
      x2="0"
      y2="512"
      gradientUnits="userSpaceOnUse"
      id="light">
      <stop
        offset="0"
        style="stop-color:#ffffff;stop-opacity:0.5"/>
      <stop
        offset="1"
        style="stop-color:#ffffff;stop-opacity:0"/>
    </linearGradient>
  </defs>
  <rect
    x="0"
    y="0"
    width="512"
    height="512"
    style="fill:#2255ee"/>
  <path
    d="m 0,0 0,368 c 192,0 320,0 512,-240 L 512,0 z"
    style="fill:url(#light)"/>
  <path
    d="m 272,304 -64,64 c -8,-48 8,-64 8,-64 L 112,176 c 0,0 -16,8 -48,0 L 176,64 c 8,32 0,48 0,48 l 128,104 c 0,0 16,-16 64,-8 l -64,64 144,176 z"
    style="fill:#ffffff"/>
</svg>
