<?xml version="1.0" encoding="UTF-8" standalone="no"?>
<svg
  xmlns="http://www.w3.org/2000/svg"
  version="1.1"
  width="2560"
  height="1440"
  viewBox="0 0 2560 1440">
  <rect
    x="-1280"
    y="-720"
    width="5120"
    height="2880"
    fill="rgb(242, 224, 200)"/>
  <path
    d="M276.239 804.844c11.329 34.944-14.014 77.305-50.95 81.389-20.962.376-12.877-27.217-4.531-37.563 13.438-19.82 34.852-32.913 55.481-43.827zm209.78-229.865c-7.796-29.354-40.041-42.358-67.51-45.65-57.153-7.278-112.386 16.435-161.057 43.971-37.538 22.662-75.108 52.501-89.587 95.496-9.365 26.827 9.41 52.597 28.186 69.907 21.065 20.005 46.993 33.951 69.249 52.301-28.388 15.189-58.785 31.476-76.602 59.292-10.28 18.234-10.224 46.47 9.565 58.302 45.425 15.117 96.003-22.369 101.178-68.579 3.801-14.32-2.162-32.873-2.412-43.826 26.496-5.391 58.296-3.409 78.51 16.51 13.039 12.21 14.108 35.904-2.742 45.473-15.285 12.084 14.808 3.301 16.4-5.349 16.915-22.196.949-53.756-21.086-65.591-25.025-14.124-56.055-12.562-82.924-5.128-23.657-26.915-60.276-41.312-77.224-74.133-12.668-28.707 6.248-58.923 27.559-77.58 33.46-28.876 73.463-50.317 115.593-63.48 30.638-8.24 65.753-13.649 95.094 1.674 19.707 10.726 15.888 37.587 5.743 53.834-25.681 42.292-76.795 65.14-125.231 64.797-16.06.482-30.567-9.279-41.994-17.528-3.076 16.566 18.541 27.97 32.452 32.082 37.309 7.599 77.038-1.121 110.24-18.975 36.025-21.374 68.629-63.753 58.599-107.82z"
    fill="#c6538c"/>
  <path
    d="M660.767 556.207l-12.893 64.465h262.388l-8.189 41.641h-262.563l-12.719 64.465h262.388l-14.635 73.525-105.757 35.02-91.644-35.02 6.272-31.884h-64.465l-15.332 77.358 151.579 58.018 174.751-58.018 23.172-116.385 4.704-23.347 29.793-149.837z"
    fill="#433f3c"/>
  <path
    d="M1264.35 611.381c-61.999.052-118.856 33.298-163.567 73.863-9.633 12.096-31.163 21.886-27.352 39.873 12.806 19.017 31.51 33.373 49.185 47.738 44.566 34.973 100.388 60.811 158.255 54.924 60.579-5.852 113.638-41.241 156.884-82.029 7.98-9.207 24.295-19.55 16.399-33.493-33.868-39.214-77.1-71.299-125.876-89.408-20.437-7.475-42.157-11.464-63.928-11.469zm0 34.665c36.749-.862 70.549 29.711 73.383 66.354 4.589 36.467-22.207 73.335-58.411 79.944-36.57 8.451-76.503-15.918-85.956-52.181-10.853-35.228 9.4-76.129 43.929-88.952 8.587-3.406 17.819-5.154 27.055-5.165zm-.023 45.306c-22.009-1.08-36.905 26.938-23.712 44.586 11.327 18.661 42.517 15.642 50.04-4.857 8.286-18.04-6.456-40.36-26.328-39.729z"
    fill="#acdc30"/>
  <path
    d="M1750.213 528c-22.089 7.803-27.659 19.729-29.312 30.531-5.682-4.067-5.061-17.328-5.375-20.719-5.646.674-21.876 16.427-21.156 36.25-1.489.405-2.947.827-4.406 1.281-4.744-6.445-18.661-23.524-37-29.438-6.047-1.953-12.131-2.938-18.063-2.938-21.761 0-34.576 12.961-34.688 13.094l-6.125 7.125 9.188 1.813c.151.031 15.45 3.223 21.781 13.219 1.05 1.661 1.364 4.982 1.656 8.469.179 2.074-.3 4.076-.719 6.031-.317 1.459-.591 2.916-.656 4.406-5.75.208-10.702 1.334-14.688 3.375-5.402 2.764-9.043 7.176-10.563 12.75-3.725 13.665 8.399 28.889 8.813 29.375 1.415 2.525 2.018 20.846-1.25 28.188-.449 1.013-1.659 1.991-3.219 3.25-.488.395-1.077.842-1.656 1.281-4.61 3.48-11.563 8.724-11.563 20.844 0 16.583 16.806 25.583 30.313 32.813 2.216 1.192 4.338 2.336 6.25 3.438 2.017 1.166 9.152 8.542 9.156 19.563 0 5.163-.488 29.68-2.781 46.719-8.67-7.426-16.675-19.332-18.469-32.75 0 0-21.911 16.917-15.469 53.125 3.939 22.149 17.384 34.543 35.25 41.031 6.596 14.305 22.017 34.284 50.438 37.219 10.834 8.874 25.801 14.638 47.656 14.656h.125c21.853-.019 36.823-5.782 47.656-14.656 28.45-2.929 43.88-22.939 50.469-37.25 17.843-6.493 31.28-18.869 35.219-41 6.442-36.208-15.469-53.125-15.469-53.125-1.793 13.407-9.776 25.322-18.438 32.75-2.296-17.039-2.785-41.556-2.781-46.719 0-11.02 7.138-18.397 9.156-19.563 1.906-1.102 4.001-2.245 6.219-3.438 13.502-7.23 30.313-16.229 30.313-32.813 0-12.12-6.951-17.364-11.563-20.844-.584-.439-1.137-.886-1.625-1.281-1.563-1.259-2.801-2.237-3.25-3.25-3.264-7.342-2.664-25.662-1.25-28.188.414-.486 12.569-15.71 8.844-29.375-1.522-5.574-5.19-9.986-10.594-12.75-4.233-2.165-9.544-3.305-15.75-3.406-.161-3.318-1.694-6.728-1.375-10.531.305-3.623.586-7.021 1.781-8.906 6.649-10.499 22.338-13.686 22.5-13.719l7.375-1.438-4.875-5.75c-.631-.738-20.653-19.81-51.625-9.813-17.605 5.679-31.347 22.209-36.25 28.781-2.718-.873-5.491-1.674-8.313-2.375-3.139-11.85 6.75-28.844 6.75-28.844s-10.166-2.254-25.25 11.438c-1.952-4.872-6.074-15.39-1.344-27.938zm-32.594 127.406l.625.375-.125.188-.5-.563zm41 0l-.656.75-.219-.25.875-.5z"
    fill="#e48632"/>
  <path
    d="M2200.126 528.018c-75.757-.088-148.444 49.765-175.877 120.266-24.885 61.826-15.403 136.289 26.091 188.726 39.101 50.939 104.667 80.542 168.98 74.12 62.725-5.289 121.762-43.109 151.65-98.795 30.534-55.195 31.835-125.463 1.962-181.107-26.704-51.483-77.339-89.568-134.487-99.896-12.609-2.408-25.449-3.486-38.318-3.315zm1.032 27.213c8.882-.11 17.748.836 26.522 2.031 9.661 21.6 18.765 43.636 24.683 66.614-33.082 3.296-66.489 3.295-99.57 0 5.816-22.905 15.071-44.892 24.618-66.582 7.871-1.018 15.765-2.053 23.747-2.064zm64.821 12.317c22.255 10.136 42.721 24.195 59.497 42.077-14.907 4.634-30.201 7.863-45.591 10.64-4.844-18.79-11.763-36.919-18.649-55.103l4.743 2.386zm-123.995 2.676c-6.196 16.46-12.396 33.018-16.681 50.041-15.371-2.771-30.613-5.979-45.526-10.64 17.739-19.15 39.961-33.809 63.917-44.044l-1.71 4.643zm200.915 63.744c13.21 21.876 21.495 46.758 23.683 72.321h-73.5c-1.018-19.847-3.485-39.507-7.26-59.005 19.043-3.8 38.003-8.178 56.206-14.8l.523.89.349.593zm-278.19-.903c17.796 6.264 36.123 10.61 54.625 14.219-3.776 19.499-6.243 39.157-7.26 59.005h-73.5c2.261-26.064 10.783-51.551 24.586-73.74l.98.326.569.19zm194.107 20.41c3.073 17.478 5.715 35.06 6.421 52.814h-125.318c.725-18.42 3.557-36.586 6.743-54.716 37.132 4.205 74.735 4.235 111.863-.032l.153 1.02.137.914zm-217.951 80.027h71.048c.557 19.814 2.418 39.561 5.711 59.069-18.527 3.496-36.665 8.413-54.464 14.671-13.816-22.204-22.321-47.655-24.586-73.74h2.291zm101.087 0h123.382c-.347 18.476-2.127 36.887-5.227 55.071-38.183-4.453-76.875-4.452-115.058 0-3.098-18.187-4.881-36.594-5.227-55.071h2.13zm153.292 0h71.338c-2.261 26.064-10.783 51.551-24.586 73.74-17.799-6.26-35.938-11.177-54.464-14.671 3.296-19.51 5.152-39.254 5.711-59.069h2zm-93.633 79.866c17.655.008 35.332.652 52.883 2.644-5.962 22.814-14.006 45.061-24.521 66.163-18.039 3.133-36.748 3.14-54.786 0-10.497-21.105-18.596-43.334-24.489-66.163 16.897-1.957 33.914-2.565 50.914-2.644zm-77.759 8.286c4.51 17.29 10.418 34.352 16.713 51.17-22.811-10.103-43.864-24.347-60.755-42.722 14.308-4.322 28.822-7.634 43.526-10.253l.284.992.233.814zm159.745-1.451c14.114 2.505 28.042 5.762 41.783 9.899-16.95 18.326-37.968 32.673-60.82 42.722 6.602-17.442 12.647-34.902 17.133-52.975l1.015.189.889.166z"
    fill="#005a9c"/>
</svg>
