<svg
  xmlns="http://www.w3.org/2000/svg"
  width="3200"
  height="1800"
  viewBox="0 0 3200 1800">
  <rect
    width="3232"
    height="1832"
    x="-16"
    y="-16"
    style="fill:hsl(0, 0%, 99%)"/>
  <path
    d="m 1448.344,419.972 c -25.51,-0.532 -47.467,18.014 -58.859,39.609 -25.035,44.768 -33.927,96.201 -41.893,146.237 -11.307,79.773 -14.068,160.433 -17.118,240.85 -4.646,160.62 -2.952,321.331 -3.078,481.991 0.656,18.194 7.269,39.206 25.018,47.426 13.874,6.454 30.501,2.536 41.969,-6.971 21.005,-15.559 29.022,-41.867 41.302,-63.714 24.777,-48.246 51.061,-95.883 81.821,-140.593 12.723,-17.51 26.782,-35.285 45.254,-46.74 7.594,-4.537 18.768,-4.016 23.547,4.178 8.565,13.457 5.422,30.434 4.861,45.419 -3.371,36.959 -8.195,74.234 -3.764,111.362 2.887,30.886 12.866,63.541 37.68,83.916 19.119,16.24 45.857,19.275 69.896,15.83 31.2,-4.487 57.38,-24.2 79.715,-45.234 31.569,-30.841 55.626,-68.458 76.778,-106.941 7.308,-14.363 14.782,-28.764 20.722,-43.725 3.66,-15.046 -9.695,-32.225 -25.621,-30.051 -12.083,0.023 -20.389,10.861 -23.801,21.4 -23.647,49.397 -52.776,97.782 -94.377,134.055 -16.933,14.309 -39.392,26.538 -62.1,20.846 -17.456,-5.125 -25.046,-24.086 -27.943,-40.43 -6.866,-41.932 -1.578,-84.384 2.398,-126.33 1.416,-27.838 -3.784,-58.538 -23.846,-79.307 -18.162,-17.82 -47.286,-21.402 -70.084,-10.891 -30.193,12.262 -50.201,39.644 -68.428,65.335 -38.449,54.263 -70.308,112.881 -99.868,172.349 -2.835,7.675 -1.413,-4.496 -1.953,-7.333 -1.158,-44.47 -0.126,-88.956 -0.477,-133.433 54.58,-100.276 104.323,-204.101 134.99,-314.434 25.596,-90.823 40.862,-185.479 35.823,-280.028 -3.047,-39.978 -8.798,-81.674 -30.638,-116.218 -12.179,-19.157 -31.607,-34.987 -54.75,-37.588 -4.362,-0.62 -8.771,-0.886 -13.176,-0.842 z m 3.072,48.809 c 14.309,0.587 24.582,12.71 29.57,25.11 16.492,35.494 17.215,75.559 18.035,113.949 0.887,123.387 -31.304,244.905 -76.623,358.983 -14.265,35.805 -29.915,71.805 -45.679,106.495 0.209,-146.965 -0.808,-294.451 14.415,-440.689 5.215,-42.809 10.526,-86.244 25.208,-127.028 5.925,-13.164 11.343,-29.591 25.791,-35.627 2.954,-1.173 6.148,-1.285 9.283,-1.193 z"
    style="fill:hsl(0, 0%, 11%)"/>
</svg>
