<svg
	xmlns="http://www.w3.org/2000/svg"
	height="960"
	viewBox="0 0 960 960"
	width="960">
	<rect
		fill="#f9f5ec"
		height="1024"
		width="1024"
		x="-32"
		y="-32"/>
	<path
		d="m 119.48633,401.48047 v 154.12695 h 30.7832 v -66.55859 h 58.24024 v 66.55859 h 30.57617 V 401.48047 h -30.57617 v 60.73633 h -58.24024 v -60.73633 z m 187.16015,0 -49.29492,154.12695 h 31.19922 l 10.81641,-39.51953 h 49.91992 l 10.81641,39.51953 H 392.3418 L 342.83789,401.48047 Z m 103.71485,0 v 154.12695 h 30.7832 V 401.48047 Z m 68.65625,0 V 555.60742 H 572.4082 V 529.81641 H 509.80078 V 401.48047 Z m 242.10547,0 v 84.86328 c 0,51.168 22.46429,72.17578 59.90429,72.17578 37.648,0 59.48633,-21.00778 59.48633,-72.17578 v -84.86328 h -29.53515 v 87.56836 c 0,32.032 -11.64718,42.84765 -29.95118,42.84765 -17.888,0 -29.12109,-10.81565 -29.12109,-42.84765 v -87.56836 z m -84.41602,1.24805 c -21.008,0 -34.73686,8.3199 -48.88086,23.5039 l 16.64063,16.63867 c 7.904,-8.528 17.05511,-16.01562 28.28711,-16.01562 14.768,0 23.08984,9.15194 23.08984,24.33594 0,22.256 -26.41655,48.46432 -66.56055,86.73632 v 17.67969 h 103.16797 v -25.79101 h -33.69726 c -7.28,0 -17.47197,0.83206 -25.16797,1.66406 27.456,-28.704 51.58398,-55.74513 51.58398,-81.95313 0,-28.288 -19.34289,-46.79882 -48.46289,-46.79882 z m -313.00391,22.25586 h 1.03907 c 4.368,16.63999 8.5285,34.31993 13.3125,50.33593 l 4.57617,16.84766 h -36.60742 l 4.57422,-16.84766 c 4.576,-16.016 9.15347,-33.48793 13.10546,-50.33593 z"
		fill="#1f1c14"/>
</svg>
